G04*
G04 #@! TF.GenerationSoftware,Altium Limited,Altium Designer,25.4.2 (15)*
G04*
G04 Layer_Color=32896*
%FSLAX44Y44*%
%MOMM*%
G71*
G04*
G04 #@! TF.SameCoordinates,C4BCFB55-FD20-4FE3-AFDB-455A7CCC5DC8*
G04*
G04*
G04 #@! TF.FilePolarity,Positive*
G04*
G01*
G75*
%ADD11C,0.2000*%
%ADD14C,0.2540*%
G36*
X250717Y31146D02*
X250849Y30953D01*
X251006Y30761D01*
X251150Y30593D01*
X251294Y30449D01*
X251402Y30329D01*
X251450Y30293D01*
X251486Y30257D01*
X251498Y30245D01*
X251510Y30233D01*
X251763Y30028D01*
X252015Y29836D01*
X252255Y29668D01*
X252495Y29536D01*
X252700Y29416D01*
X252784Y29367D01*
X252856Y29332D01*
X252916Y29295D01*
X252964Y29283D01*
X252988Y29259D01*
X253000D01*
Y28274D01*
X252820Y28346D01*
X252640Y28430D01*
X252459Y28514D01*
X252291Y28599D01*
X252147Y28671D01*
X252027Y28731D01*
X251955Y28779D01*
X251943Y28791D01*
X251931D01*
X251714Y28923D01*
X251522Y29055D01*
X251354Y29175D01*
X251222Y29283D01*
X251102Y29367D01*
X251030Y29440D01*
X250970Y29488D01*
X250958Y29500D01*
Y23000D01*
X249936D01*
Y31350D01*
X250597D01*
X250717Y31146D01*
D02*
G37*
G36*
X243260Y377726D02*
X240521D01*
Y370397D01*
X239416D01*
Y377726D01*
X236676D01*
Y378711D01*
X243260D01*
Y377726D01*
D02*
G37*
G36*
X235535Y370397D02*
X234430D01*
Y373773D01*
X232303D01*
X231991Y373785D01*
X231690Y373809D01*
X231426Y373845D01*
X231186Y373893D01*
X230958Y373941D01*
X230765Y374001D01*
X230585Y374073D01*
X230429Y374146D01*
X230297Y374206D01*
X230177Y374278D01*
X230081Y374338D01*
X230009Y374398D01*
X229948Y374434D01*
X229912Y374470D01*
X229888Y374494D01*
X229876Y374506D01*
X229756Y374650D01*
X229648Y374794D01*
X229564Y374939D01*
X229480Y375095D01*
X229408Y375251D01*
X229360Y375395D01*
X229276Y375671D01*
X229252Y375803D01*
X229228Y375924D01*
X229216Y376032D01*
X229203Y376116D01*
X229191Y376200D01*
Y376248D01*
Y376284D01*
Y376296D01*
X229203Y376524D01*
X229228Y376741D01*
X229276Y376933D01*
X229312Y377101D01*
X229360Y377245D01*
X229408Y377353D01*
X229432Y377413D01*
X229444Y377437D01*
X229540Y377618D01*
X229660Y377774D01*
X229768Y377918D01*
X229876Y378026D01*
X229972Y378110D01*
X230044Y378182D01*
X230093Y378218D01*
X230117Y378230D01*
X230273Y378326D01*
X230453Y378411D01*
X230621Y378483D01*
X230777Y378543D01*
X230921Y378579D01*
X231030Y378603D01*
X231114Y378627D01*
X231138D01*
X231318Y378651D01*
X231522Y378675D01*
X231738Y378687D01*
X231943Y378699D01*
X232123Y378711D01*
X235535D01*
Y370397D01*
D02*
G37*
G36*
X225695Y378735D02*
X225888Y378723D01*
X226224Y378651D01*
X226380Y378603D01*
X226524Y378555D01*
X226656Y378495D01*
X226777Y378435D01*
X226873Y378375D01*
X226969Y378315D01*
X227053Y378266D01*
X227113Y378218D01*
X227161Y378182D01*
X227197Y378146D01*
X227221Y378134D01*
X227233Y378122D01*
X227341Y378002D01*
X227449Y377882D01*
X227533Y377750D01*
X227606Y377618D01*
X227726Y377365D01*
X227798Y377125D01*
X227846Y376921D01*
X227858Y376825D01*
X227870Y376753D01*
X227882Y376681D01*
Y376632D01*
Y376609D01*
Y376596D01*
X227870Y376380D01*
X227834Y376176D01*
X227786Y375996D01*
X227726Y375840D01*
X227678Y375719D01*
X227630Y375623D01*
X227594Y375575D01*
X227582Y375551D01*
X227449Y375407D01*
X227305Y375275D01*
X227149Y375155D01*
X226993Y375059D01*
X226849Y374986D01*
X226741Y374939D01*
X226693Y374915D01*
X226656Y374902D01*
X226644Y374890D01*
X226632D01*
X226909Y374806D01*
X227137Y374698D01*
X227341Y374566D01*
X227509Y374446D01*
X227642Y374326D01*
X227738Y374230D01*
X227786Y374170D01*
X227810Y374158D01*
Y374146D01*
X227942Y373929D01*
X228050Y373701D01*
X228122Y373485D01*
X228170Y373269D01*
X228194Y373076D01*
X228206Y372992D01*
Y372920D01*
X228218Y372872D01*
Y372824D01*
Y372800D01*
Y372788D01*
X228206Y372596D01*
X228182Y372403D01*
X228146Y372223D01*
X228098Y372043D01*
X227978Y371743D01*
X227918Y371599D01*
X227846Y371478D01*
X227774Y371358D01*
X227714Y371262D01*
X227642Y371178D01*
X227594Y371106D01*
X227546Y371046D01*
X227509Y371010D01*
X227486Y370986D01*
X227474Y370974D01*
X227329Y370842D01*
X227173Y370733D01*
X227005Y370637D01*
X226837Y370553D01*
X226681Y370493D01*
X226512Y370433D01*
X226188Y370349D01*
X226044Y370313D01*
X225912Y370289D01*
X225791Y370277D01*
X225683Y370265D01*
X225599Y370253D01*
X225479D01*
X225251Y370265D01*
X225047Y370289D01*
X224842Y370325D01*
X224650Y370361D01*
X224482Y370421D01*
X224314Y370481D01*
X224158Y370541D01*
X224025Y370613D01*
X223905Y370686D01*
X223797Y370746D01*
X223713Y370806D01*
X223629Y370866D01*
X223569Y370902D01*
X223533Y370938D01*
X223509Y370962D01*
X223497Y370974D01*
X223365Y371118D01*
X223244Y371262D01*
X223148Y371406D01*
X223064Y371562D01*
X222980Y371707D01*
X222920Y371863D01*
X222836Y372139D01*
X222800Y372271D01*
X222776Y372392D01*
X222764Y372500D01*
X222752Y372584D01*
X222740Y372656D01*
Y372716D01*
Y372752D01*
Y372764D01*
X222752Y373040D01*
X222800Y373293D01*
X222872Y373521D01*
X222944Y373713D01*
X223016Y373869D01*
X223088Y373989D01*
X223136Y374062D01*
X223148Y374073D01*
Y374086D01*
X223316Y374278D01*
X223497Y374446D01*
X223689Y374578D01*
X223869Y374698D01*
X224037Y374782D01*
X224182Y374842D01*
X224230Y374866D01*
X224266Y374878D01*
X224290Y374890D01*
X224302D01*
X224086Y374986D01*
X223905Y375095D01*
X223749Y375203D01*
X223617Y375311D01*
X223521Y375407D01*
X223449Y375479D01*
X223401Y375527D01*
X223389Y375551D01*
X223281Y375719D01*
X223208Y375888D01*
X223148Y376056D01*
X223112Y376224D01*
X223088Y376356D01*
X223076Y376464D01*
Y376536D01*
Y376548D01*
Y376560D01*
X223088Y376729D01*
X223100Y376885D01*
X223184Y377185D01*
X223293Y377449D01*
X223413Y377678D01*
X223533Y377858D01*
X223593Y377930D01*
X223641Y378002D01*
X223689Y378050D01*
X223725Y378086D01*
X223737Y378098D01*
X223749Y378110D01*
X223881Y378218D01*
X224013Y378326D01*
X224158Y378411D01*
X224302Y378483D01*
X224590Y378591D01*
X224878Y378663D01*
X224998Y378699D01*
X225119Y378711D01*
X225227Y378723D01*
X225323Y378735D01*
X225395Y378747D01*
X225503D01*
X225695Y378735D01*
D02*
G37*
G36*
X227004Y310922D02*
X224265D01*
Y303593D01*
X223160D01*
Y310922D01*
X220420D01*
Y311907D01*
X227004D01*
Y310922D01*
D02*
G37*
G36*
X219279Y303593D02*
X218174D01*
Y306969D01*
X216047D01*
X215735Y306981D01*
X215434Y307005D01*
X215170Y307041D01*
X214930Y307089D01*
X214702Y307137D01*
X214509Y307197D01*
X214329Y307269D01*
X214173Y307341D01*
X214041Y307402D01*
X213921Y307474D01*
X213825Y307534D01*
X213752Y307594D01*
X213692Y307630D01*
X213656Y307666D01*
X213632Y307690D01*
X213620Y307702D01*
X213500Y307846D01*
X213392Y307990D01*
X213308Y308134D01*
X213224Y308291D01*
X213152Y308447D01*
X213104Y308591D01*
X213020Y308867D01*
X212996Y309000D01*
X212971Y309120D01*
X212959Y309228D01*
X212948Y309312D01*
X212936Y309396D01*
Y309444D01*
Y309480D01*
Y309492D01*
X212948Y309720D01*
X212971Y309937D01*
X213020Y310129D01*
X213056Y310297D01*
X213104Y310441D01*
X213152Y310549D01*
X213176Y310609D01*
X213188Y310633D01*
X213284Y310814D01*
X213404Y310970D01*
X213512Y311114D01*
X213620Y311222D01*
X213716Y311306D01*
X213789Y311378D01*
X213837Y311414D01*
X213861Y311426D01*
X214017Y311523D01*
X214197Y311607D01*
X214365Y311679D01*
X214521Y311739D01*
X214666Y311775D01*
X214774Y311799D01*
X214858Y311823D01*
X214882D01*
X215062Y311847D01*
X215266Y311871D01*
X215483Y311883D01*
X215687Y311895D01*
X215867Y311907D01*
X219279D01*
Y303593D01*
D02*
G37*
G36*
X211878Y310814D02*
X207805D01*
X208094Y310465D01*
X208370Y310093D01*
X208610Y309732D01*
X208839Y309384D01*
X208935Y309228D01*
X209019Y309084D01*
X209103Y308951D01*
X209163Y308843D01*
X209211Y308747D01*
X209247Y308687D01*
X209271Y308639D01*
X209283Y308627D01*
X209524Y308146D01*
X209740Y307666D01*
X209920Y307209D01*
X209992Y307005D01*
X210064Y306801D01*
X210136Y306621D01*
X210184Y306453D01*
X210232Y306308D01*
X210268Y306188D01*
X210304Y306080D01*
X210328Y306008D01*
X210340Y305960D01*
Y305948D01*
X210461Y305455D01*
X210509Y305215D01*
X210545Y304999D01*
X210581Y304795D01*
X210617Y304590D01*
X210641Y304422D01*
X210665Y304254D01*
X210677Y304110D01*
X210689Y303978D01*
X210701Y303857D01*
Y303761D01*
X210713Y303689D01*
Y303641D01*
Y303605D01*
Y303593D01*
X209668D01*
X209632Y304050D01*
X209571Y304470D01*
X209511Y304855D01*
X209475Y305035D01*
X209439Y305203D01*
X209415Y305347D01*
X209379Y305479D01*
X209355Y305599D01*
X209331Y305696D01*
X209307Y305768D01*
X209295Y305828D01*
X209283Y305864D01*
Y305876D01*
X209103Y306428D01*
X208911Y306945D01*
X208815Y307197D01*
X208718Y307438D01*
X208610Y307654D01*
X208514Y307870D01*
X208430Y308062D01*
X208346Y308231D01*
X208274Y308375D01*
X208214Y308507D01*
X208154Y308615D01*
X208118Y308687D01*
X208094Y308735D01*
X208082Y308747D01*
X207938Y309000D01*
X207793Y309252D01*
X207649Y309480D01*
X207505Y309696D01*
X207373Y309888D01*
X207241Y310081D01*
X207109Y310249D01*
X207001Y310393D01*
X206892Y310537D01*
X206796Y310657D01*
X206700Y310754D01*
X206628Y310838D01*
X206580Y310910D01*
X206532Y310958D01*
X206508Y310982D01*
X206496Y310994D01*
Y311799D01*
X211878D01*
Y310814D01*
D02*
G37*
G36*
X542997Y91235D02*
X543225Y91211D01*
X543442Y91163D01*
X543646Y91103D01*
X543826Y91019D01*
X544006Y90947D01*
X544162Y90851D01*
X544307Y90766D01*
X544427Y90682D01*
X544547Y90586D01*
X544643Y90514D01*
X544715Y90442D01*
X544775Y90370D01*
X544823Y90322D01*
X544847Y90298D01*
X544859Y90286D01*
X545015Y90070D01*
X545148Y89817D01*
X545268Y89553D01*
X545376Y89277D01*
X545460Y88988D01*
X545532Y88700D01*
X545592Y88400D01*
X545640Y88123D01*
X545676Y87847D01*
X545700Y87595D01*
X545724Y87366D01*
X545736Y87174D01*
Y87006D01*
X545748Y86886D01*
Y86838D01*
Y86802D01*
Y86790D01*
Y86778D01*
X545736Y86393D01*
X545712Y86033D01*
X545676Y85696D01*
X545616Y85384D01*
X545556Y85108D01*
X545496Y84855D01*
X545424Y84627D01*
X545340Y84423D01*
X545268Y84255D01*
X545196Y84099D01*
X545136Y83978D01*
X545064Y83870D01*
X545015Y83786D01*
X544980Y83738D01*
X544955Y83702D01*
X544943Y83690D01*
X544787Y83522D01*
X544619Y83378D01*
X544451Y83258D01*
X544283Y83149D01*
X544102Y83053D01*
X543934Y82981D01*
X543766Y82921D01*
X543598Y82873D01*
X543454Y82837D01*
X543310Y82801D01*
X543189Y82777D01*
X543081Y82765D01*
X542985D01*
X542925Y82753D01*
X542865D01*
X542589Y82765D01*
X542336Y82813D01*
X542108Y82861D01*
X541904Y82933D01*
X541748Y82993D01*
X541628Y83053D01*
X541579Y83065D01*
X541543Y83089D01*
X541531Y83101D01*
X541519D01*
X541315Y83246D01*
X541123Y83414D01*
X540967Y83582D01*
X540835Y83750D01*
X540726Y83906D01*
X540654Y84026D01*
X540630Y84075D01*
X540606Y84111D01*
X540594Y84123D01*
Y84135D01*
X540474Y84387D01*
X540390Y84651D01*
X540330Y84892D01*
X540294Y85120D01*
X540258Y85312D01*
Y85384D01*
X540246Y85456D01*
Y85516D01*
Y85552D01*
Y85576D01*
Y85588D01*
X540258Y85805D01*
X540282Y86009D01*
X540318Y86213D01*
X540354Y86393D01*
X540414Y86561D01*
X540474Y86730D01*
X540534Y86874D01*
X540606Y87006D01*
X540678Y87126D01*
X540738Y87234D01*
X540798Y87318D01*
X540859Y87402D01*
X540895Y87463D01*
X540931Y87499D01*
X540955Y87523D01*
X540967Y87535D01*
X541099Y87667D01*
X541243Y87787D01*
X541399Y87883D01*
X541543Y87967D01*
X541688Y88051D01*
X541832Y88111D01*
X542108Y88195D01*
X542228Y88231D01*
X542348Y88256D01*
X542444Y88267D01*
X542541Y88279D01*
X542613Y88292D01*
X542709D01*
X542925Y88279D01*
X543129Y88244D01*
X543321Y88207D01*
X543490Y88159D01*
X543634Y88099D01*
X543742Y88063D01*
X543814Y88027D01*
X543826Y88015D01*
X543838D01*
X544030Y87895D01*
X544198Y87763D01*
X544355Y87631D01*
X544475Y87487D01*
X544583Y87366D01*
X544667Y87270D01*
X544715Y87198D01*
X544727Y87186D01*
Y87402D01*
X544715Y87619D01*
X544703Y87811D01*
X544679Y88003D01*
X544667Y88171D01*
X544643Y88328D01*
X544619Y88472D01*
X544583Y88604D01*
X544559Y88724D01*
X544535Y88820D01*
X544511Y88904D01*
X544499Y88976D01*
X544475Y89024D01*
X544463Y89060D01*
X544451Y89085D01*
Y89096D01*
X544331Y89337D01*
X544211Y89553D01*
X544078Y89721D01*
X543958Y89865D01*
X543850Y89986D01*
X543766Y90070D01*
X543706Y90118D01*
X543682Y90130D01*
X543538Y90226D01*
X543394Y90286D01*
X543249Y90334D01*
X543105Y90370D01*
X542997Y90394D01*
X542901Y90406D01*
X542817D01*
X542601Y90382D01*
X542396Y90334D01*
X542228Y90262D01*
X542072Y90190D01*
X541952Y90106D01*
X541868Y90034D01*
X541820Y89986D01*
X541796Y89962D01*
X541712Y89853D01*
X541628Y89721D01*
X541555Y89577D01*
X541507Y89433D01*
X541459Y89301D01*
X541423Y89193D01*
X541411Y89121D01*
X541399Y89108D01*
Y89096D01*
X540378Y89181D01*
X540450Y89517D01*
X540558Y89817D01*
X540678Y90082D01*
X540811Y90298D01*
X540943Y90466D01*
X540991Y90538D01*
X541051Y90598D01*
X541087Y90634D01*
X541123Y90670D01*
X541135Y90682D01*
X541147Y90694D01*
X541267Y90791D01*
X541399Y90875D01*
X541664Y91019D01*
X541928Y91115D01*
X542180Y91175D01*
X542408Y91223D01*
X542505Y91235D01*
X542589D01*
X542661Y91247D01*
X542757D01*
X542997Y91235D01*
D02*
G37*
G36*
X560754Y90226D02*
X558015D01*
Y82897D01*
X556910D01*
Y90226D01*
X554170D01*
Y91211D01*
X560754D01*
Y90226D01*
D02*
G37*
G36*
X553029Y82897D02*
X551924D01*
Y86273D01*
X549797D01*
X549485Y86285D01*
X549184Y86309D01*
X548920Y86345D01*
X548680Y86393D01*
X548452Y86441D01*
X548259Y86501D01*
X548079Y86573D01*
X547923Y86646D01*
X547791Y86706D01*
X547671Y86778D01*
X547575Y86838D01*
X547502Y86898D01*
X547442Y86934D01*
X547406Y86970D01*
X547382Y86994D01*
X547370Y87006D01*
X547250Y87150D01*
X547142Y87294D01*
X547058Y87438D01*
X546974Y87595D01*
X546902Y87751D01*
X546854Y87895D01*
X546770Y88171D01*
X546745Y88304D01*
X546721Y88424D01*
X546710Y88532D01*
X546698Y88616D01*
X546685Y88700D01*
Y88748D01*
Y88784D01*
Y88796D01*
X546698Y89024D01*
X546721Y89241D01*
X546770Y89433D01*
X546806Y89601D01*
X546854Y89745D01*
X546902Y89853D01*
X546926Y89914D01*
X546938Y89937D01*
X547034Y90118D01*
X547154Y90274D01*
X547262Y90418D01*
X547370Y90526D01*
X547466Y90610D01*
X547538Y90682D01*
X547587Y90718D01*
X547611Y90730D01*
X547767Y90827D01*
X547947Y90911D01*
X548115Y90983D01*
X548271Y91043D01*
X548415Y91079D01*
X548524Y91103D01*
X548608Y91127D01*
X548632D01*
X548812Y91151D01*
X549016Y91175D01*
X549232Y91187D01*
X549437Y91199D01*
X549617Y91211D01*
X553029D01*
Y82897D01*
D02*
G37*
G36*
X510050Y156844D02*
X509089Y156712D01*
X509005Y156844D01*
X508897Y156952D01*
X508801Y157060D01*
X508705Y157144D01*
X508609Y157204D01*
X508536Y157264D01*
X508488Y157288D01*
X508476Y157300D01*
X508320Y157372D01*
X508164Y157432D01*
X508020Y157469D01*
X507876Y157505D01*
X507755Y157517D01*
X507659Y157529D01*
X507431D01*
X507287Y157505D01*
X507035Y157444D01*
X506818Y157360D01*
X506626Y157276D01*
X506482Y157180D01*
X506374Y157096D01*
X506314Y157036D01*
X506290Y157024D01*
Y157012D01*
X506121Y156808D01*
X506001Y156592D01*
X505917Y156363D01*
X505857Y156135D01*
X505821Y155943D01*
X505809Y155859D01*
Y155787D01*
X505797Y155726D01*
Y155678D01*
Y155654D01*
Y155642D01*
Y155474D01*
X505821Y155318D01*
X505881Y155018D01*
X505965Y154765D01*
X506049Y154561D01*
X506146Y154393D01*
X506230Y154261D01*
X506266Y154225D01*
X506290Y154189D01*
X506302Y154177D01*
X506314Y154165D01*
X506410Y154068D01*
X506506Y153984D01*
X506722Y153840D01*
X506926Y153744D01*
X507131Y153684D01*
X507299Y153636D01*
X507443Y153624D01*
X507491Y153612D01*
X507563D01*
X507791Y153624D01*
X507996Y153672D01*
X508176Y153732D01*
X508320Y153804D01*
X508452Y153876D01*
X508548Y153936D01*
X508596Y153984D01*
X508620Y153996D01*
X508765Y154165D01*
X508885Y154345D01*
X508981Y154549D01*
X509053Y154729D01*
X509101Y154909D01*
X509137Y155042D01*
X509149Y155102D01*
X509161Y155138D01*
Y155162D01*
Y155174D01*
X510230Y155090D01*
X510206Y154897D01*
X510170Y154717D01*
X510062Y154381D01*
X509930Y154093D01*
X509858Y153960D01*
X509786Y153852D01*
X509726Y153744D01*
X509654Y153648D01*
X509594Y153576D01*
X509534Y153516D01*
X509486Y153468D01*
X509462Y153420D01*
X509437Y153408D01*
X509425Y153396D01*
X509281Y153288D01*
X509137Y153191D01*
X508981Y153107D01*
X508825Y153035D01*
X508524Y152927D01*
X508224Y152855D01*
X508092Y152819D01*
X507960Y152807D01*
X507852Y152795D01*
X507755Y152783D01*
X507671Y152771D01*
X507563D01*
X507311Y152783D01*
X507071Y152819D01*
X506842Y152867D01*
X506638Y152927D01*
X506446Y153011D01*
X506266Y153095D01*
X506097Y153180D01*
X505953Y153276D01*
X505821Y153372D01*
X505701Y153456D01*
X505605Y153552D01*
X505521Y153624D01*
X505461Y153684D01*
X505413Y153732D01*
X505389Y153768D01*
X505377Y153780D01*
X505257Y153936D01*
X505160Y154105D01*
X505064Y154261D01*
X504992Y154429D01*
X504872Y154753D01*
X504800Y155066D01*
X504776Y155198D01*
X504752Y155330D01*
X504740Y155438D01*
X504728Y155534D01*
X504716Y155618D01*
Y155678D01*
Y155715D01*
Y155726D01*
X504728Y155943D01*
X504752Y156147D01*
X504788Y156351D01*
X504836Y156531D01*
X504896Y156700D01*
X504956Y156868D01*
X505028Y157012D01*
X505088Y157144D01*
X505160Y157264D01*
X505233Y157372D01*
X505293Y157457D01*
X505353Y157541D01*
X505401Y157601D01*
X505437Y157637D01*
X505461Y157661D01*
X505473Y157673D01*
X505617Y157805D01*
X505761Y157925D01*
X505917Y158021D01*
X506073Y158105D01*
X506230Y158189D01*
X506386Y158250D01*
X506674Y158334D01*
X506806Y158370D01*
X506926Y158394D01*
X507035Y158406D01*
X507131Y158418D01*
X507203Y158430D01*
X507467D01*
X507611Y158406D01*
X507900Y158346D01*
X508164Y158261D01*
X508404Y158165D01*
X508596Y158069D01*
X508680Y158021D01*
X508753Y157985D01*
X508813Y157949D01*
X508849Y157925D01*
X508873Y157913D01*
X508885Y157901D01*
X508440Y160148D01*
X505112D01*
Y161121D01*
X509245D01*
X510050Y156844D01*
D02*
G37*
G36*
X525284Y160244D02*
X522545D01*
Y152915D01*
X521440D01*
Y160244D01*
X518700D01*
Y161229D01*
X525284D01*
Y160244D01*
D02*
G37*
G36*
X517559Y152915D02*
X516454D01*
Y156291D01*
X514327D01*
X514015Y156303D01*
X513714Y156327D01*
X513450Y156363D01*
X513210Y156411D01*
X512982Y156459D01*
X512789Y156519D01*
X512609Y156592D01*
X512453Y156664D01*
X512321Y156724D01*
X512201Y156796D01*
X512105Y156856D01*
X512033Y156916D01*
X511972Y156952D01*
X511936Y156988D01*
X511912Y157012D01*
X511900Y157024D01*
X511780Y157168D01*
X511672Y157312D01*
X511588Y157457D01*
X511504Y157613D01*
X511432Y157769D01*
X511384Y157913D01*
X511300Y158189D01*
X511276Y158322D01*
X511252Y158442D01*
X511240Y158550D01*
X511228Y158634D01*
X511216Y158718D01*
Y158766D01*
Y158802D01*
Y158814D01*
X511228Y159042D01*
X511252Y159259D01*
X511300Y159451D01*
X511336Y159619D01*
X511384Y159763D01*
X511432Y159871D01*
X511456Y159931D01*
X511468Y159956D01*
X511564Y160136D01*
X511684Y160292D01*
X511792Y160436D01*
X511900Y160544D01*
X511996Y160628D01*
X512068Y160700D01*
X512117Y160736D01*
X512141Y160748D01*
X512297Y160844D01*
X512477Y160929D01*
X512645Y161001D01*
X512801Y161061D01*
X512946Y161097D01*
X513054Y161121D01*
X513138Y161145D01*
X513162D01*
X513342Y161169D01*
X513546Y161193D01*
X513763Y161205D01*
X513967Y161217D01*
X514147Y161229D01*
X517559D01*
Y152915D01*
D02*
G37*
G36*
X319236Y249172D02*
X316497D01*
Y241843D01*
X315392D01*
Y249172D01*
X312652D01*
Y250157D01*
X319236D01*
Y249172D01*
D02*
G37*
G36*
X311511Y241843D02*
X310406D01*
Y245219D01*
X308279D01*
X307967Y245231D01*
X307666Y245255D01*
X307402Y245291D01*
X307162Y245339D01*
X306933Y245387D01*
X306741Y245447D01*
X306561Y245519D01*
X306405Y245592D01*
X306273Y245652D01*
X306153Y245724D01*
X306056Y245784D01*
X305984Y245844D01*
X305924Y245880D01*
X305888Y245916D01*
X305864Y245940D01*
X305852Y245952D01*
X305732Y246096D01*
X305624Y246240D01*
X305540Y246384D01*
X305456Y246541D01*
X305384Y246697D01*
X305336Y246841D01*
X305252Y247117D01*
X305228Y247250D01*
X305203Y247370D01*
X305191Y247478D01*
X305180Y247562D01*
X305168Y247646D01*
Y247694D01*
Y247730D01*
Y247742D01*
X305180Y247970D01*
X305203Y248187D01*
X305252Y248379D01*
X305288Y248547D01*
X305336Y248691D01*
X305384Y248799D01*
X305408Y248859D01*
X305420Y248883D01*
X305516Y249064D01*
X305636Y249220D01*
X305744Y249364D01*
X305852Y249472D01*
X305948Y249556D01*
X306021Y249628D01*
X306068Y249664D01*
X306093Y249676D01*
X306249Y249772D01*
X306429Y249856D01*
X306597Y249929D01*
X306753Y249989D01*
X306898Y250025D01*
X307006Y250049D01*
X307090Y250073D01*
X307114D01*
X307294Y250097D01*
X307498Y250121D01*
X307715Y250133D01*
X307919Y250145D01*
X308099Y250157D01*
X311511D01*
Y241843D01*
D02*
G37*
G36*
X304531Y244774D02*
Y243837D01*
X300914D01*
Y241843D01*
X299893D01*
Y243837D01*
X298764D01*
Y244774D01*
X299893D01*
Y250157D01*
X300722D01*
X304531Y244774D01*
D02*
G37*
G36*
X301942Y220223D02*
X302266Y220163D01*
X302542Y220067D01*
X302783Y219971D01*
X302891Y219911D01*
X302975Y219863D01*
X303059Y219814D01*
X303119Y219767D01*
X303167Y219730D01*
X303203Y219706D01*
X303227Y219694D01*
X303239Y219682D01*
X303467Y219454D01*
X303648Y219202D01*
X303792Y218937D01*
X303912Y218673D01*
X303984Y218445D01*
X304020Y218349D01*
X304044Y218265D01*
X304056Y218193D01*
X304068Y218144D01*
X304080Y218109D01*
Y218097D01*
X303059Y217916D01*
X303011Y218181D01*
X302939Y218409D01*
X302855Y218601D01*
X302771Y218757D01*
X302687Y218877D01*
X302614Y218962D01*
X302566Y219022D01*
X302554Y219034D01*
X302398Y219154D01*
X302230Y219250D01*
X302074Y219310D01*
X301918Y219358D01*
X301773Y219382D01*
X301665Y219406D01*
X301569D01*
X301353Y219394D01*
X301161Y219346D01*
X300993Y219286D01*
X300848Y219226D01*
X300740Y219154D01*
X300656Y219094D01*
X300596Y219046D01*
X300584Y219034D01*
X300452Y218889D01*
X300356Y218733D01*
X300296Y218577D01*
X300248Y218433D01*
X300224Y218301D01*
X300200Y218205D01*
Y218132D01*
Y218120D01*
Y218109D01*
Y217976D01*
X300224Y217856D01*
X300284Y217652D01*
X300368Y217472D01*
X300464Y217316D01*
X300560Y217207D01*
X300644Y217123D01*
X300704Y217075D01*
X300716Y217063D01*
X300728D01*
X300932Y216955D01*
X301125Y216871D01*
X301329Y216811D01*
X301509Y216775D01*
X301665Y216751D01*
X301798Y216727D01*
X301954D01*
X302002Y216739D01*
X302062D01*
X302182Y215838D01*
X302026Y215874D01*
X301882Y215898D01*
X301761Y215922D01*
X301653Y215934D01*
X301569Y215946D01*
X301461D01*
X301209Y215922D01*
X300980Y215874D01*
X300776Y215802D01*
X300608Y215718D01*
X300476Y215634D01*
X300380Y215562D01*
X300320Y215513D01*
X300296Y215489D01*
X300140Y215309D01*
X300019Y215117D01*
X299935Y214925D01*
X299887Y214732D01*
X299851Y214576D01*
X299839Y214444D01*
X299827Y214396D01*
Y214360D01*
Y214336D01*
Y214324D01*
X299851Y214060D01*
X299911Y213819D01*
X299983Y213615D01*
X300079Y213435D01*
X300175Y213291D01*
X300248Y213183D01*
X300308Y213111D01*
X300332Y213087D01*
X300524Y212918D01*
X300728Y212798D01*
X300932Y212714D01*
X301125Y212654D01*
X301293Y212618D01*
X301425Y212606D01*
X301473Y212594D01*
X301545D01*
X301761Y212606D01*
X301966Y212654D01*
X302146Y212714D01*
X302290Y212786D01*
X302410Y212846D01*
X302506Y212906D01*
X302554Y212954D01*
X302578Y212966D01*
X302723Y213135D01*
X302843Y213327D01*
X302951Y213531D01*
X303035Y213747D01*
X303095Y213928D01*
X303119Y214012D01*
X303131Y214084D01*
X303143Y214144D01*
X303155Y214192D01*
X303167Y214216D01*
Y214228D01*
X304188Y214096D01*
X304164Y213904D01*
X304128Y213723D01*
X304020Y213387D01*
X303888Y213099D01*
X303816Y212978D01*
X303744Y212858D01*
X303672Y212750D01*
X303600Y212666D01*
X303540Y212582D01*
X303479Y212522D01*
X303443Y212474D01*
X303407Y212438D01*
X303383Y212414D01*
X303371Y212402D01*
X303227Y212294D01*
X303083Y212185D01*
X302939Y212101D01*
X302783Y212029D01*
X302482Y211909D01*
X302194Y211837D01*
X302062Y211813D01*
X301942Y211789D01*
X301833Y211777D01*
X301737Y211765D01*
X301665Y211753D01*
X301557D01*
X301329Y211765D01*
X301125Y211789D01*
X300920Y211825D01*
X300728Y211873D01*
X300548Y211933D01*
X300392Y211993D01*
X300236Y212065D01*
X300103Y212137D01*
X299971Y212197D01*
X299863Y212270D01*
X299767Y212330D01*
X299695Y212390D01*
X299635Y212438D01*
X299587Y212474D01*
X299563Y212498D01*
X299551Y212510D01*
X299407Y212654D01*
X299286Y212810D01*
X299178Y212966D01*
X299082Y213123D01*
X299010Y213267D01*
X298938Y213423D01*
X298842Y213711D01*
X298818Y213843D01*
X298794Y213964D01*
X298770Y214072D01*
X298758Y214168D01*
X298746Y214240D01*
Y214300D01*
Y214336D01*
Y214348D01*
X298758Y214636D01*
X298806Y214901D01*
X298878Y215129D01*
X298950Y215321D01*
X299022Y215477D01*
X299094Y215597D01*
X299142Y215670D01*
X299154Y215694D01*
X299322Y215874D01*
X299503Y216030D01*
X299695Y216150D01*
X299887Y216246D01*
X300055Y216318D01*
X300188Y216366D01*
X300236Y216378D01*
X300272Y216390D01*
X300296Y216402D01*
X300308D01*
X300103Y216511D01*
X299935Y216619D01*
X299791Y216739D01*
X299671Y216847D01*
X299575Y216943D01*
X299503Y217027D01*
X299467Y217075D01*
X299455Y217099D01*
X299359Y217267D01*
X299286Y217436D01*
X299226Y217604D01*
X299190Y217760D01*
X299166Y217892D01*
X299154Y217988D01*
Y218060D01*
Y218085D01*
X299166Y218289D01*
X299202Y218493D01*
X299251Y218673D01*
X299310Y218829D01*
X299371Y218962D01*
X299419Y219070D01*
X299455Y219130D01*
X299467Y219154D01*
X299587Y219334D01*
X299731Y219490D01*
X299875Y219622D01*
X300019Y219742D01*
X300140Y219827D01*
X300248Y219899D01*
X300320Y219935D01*
X300332Y219947D01*
X300344D01*
X300560Y220043D01*
X300776Y220115D01*
X300993Y220175D01*
X301185Y220211D01*
X301341Y220235D01*
X301473Y220247D01*
X301773D01*
X301942Y220223D01*
D02*
G37*
G36*
X319254Y219226D02*
X316515D01*
Y211897D01*
X315410D01*
Y219226D01*
X312670D01*
Y220211D01*
X319254D01*
Y219226D01*
D02*
G37*
G36*
X311529Y211897D02*
X310424D01*
Y215273D01*
X308297D01*
X307985Y215285D01*
X307684Y215309D01*
X307420Y215345D01*
X307180Y215393D01*
X306952Y215441D01*
X306759Y215501D01*
X306579Y215574D01*
X306423Y215646D01*
X306291Y215706D01*
X306171Y215778D01*
X306075Y215838D01*
X306002Y215898D01*
X305942Y215934D01*
X305906Y215970D01*
X305882Y215994D01*
X305870Y216006D01*
X305750Y216150D01*
X305642Y216294D01*
X305558Y216439D01*
X305474Y216595D01*
X305402Y216751D01*
X305354Y216895D01*
X305270Y217171D01*
X305245Y217304D01*
X305222Y217424D01*
X305210Y217532D01*
X305198Y217616D01*
X305186Y217700D01*
Y217748D01*
Y217784D01*
Y217796D01*
X305198Y218024D01*
X305222Y218241D01*
X305270Y218433D01*
X305306Y218601D01*
X305354Y218745D01*
X305402Y218853D01*
X305426Y218913D01*
X305438Y218937D01*
X305534Y219118D01*
X305654Y219274D01*
X305762Y219418D01*
X305870Y219526D01*
X305966Y219610D01*
X306038Y219682D01*
X306087Y219718D01*
X306111Y219730D01*
X306267Y219827D01*
X306447Y219911D01*
X306615Y219983D01*
X306771Y220043D01*
X306915Y220079D01*
X307024Y220103D01*
X307108Y220127D01*
X307132D01*
X307312Y220151D01*
X307516Y220175D01*
X307733Y220187D01*
X307937Y220199D01*
X308117Y220211D01*
X311529D01*
Y211897D01*
D02*
G37*
G36*
X228623Y165163D02*
X228827Y165151D01*
X229020Y165115D01*
X229200Y165079D01*
X229368Y165031D01*
X229524Y164983D01*
X229669Y164923D01*
X229801Y164863D01*
X229921Y164802D01*
X230017Y164742D01*
X230101Y164694D01*
X230173Y164646D01*
X230233Y164610D01*
X230269Y164574D01*
X230293Y164562D01*
X230305Y164550D01*
X230425Y164430D01*
X230534Y164298D01*
X230642Y164154D01*
X230726Y164010D01*
X230870Y163721D01*
X230966Y163433D01*
X231002Y163301D01*
X231038Y163169D01*
X231062Y163060D01*
X231086Y162964D01*
X231098Y162880D01*
Y162820D01*
X231110Y162784D01*
Y162772D01*
X230065Y162664D01*
X230041Y162940D01*
X229993Y163181D01*
X229921Y163397D01*
X229837Y163565D01*
X229765Y163709D01*
X229693Y163805D01*
X229645Y163865D01*
X229620Y163889D01*
X229440Y164034D01*
X229248Y164142D01*
X229044Y164226D01*
X228864Y164274D01*
X228695Y164310D01*
X228551Y164322D01*
X228503Y164334D01*
X228431D01*
X228179Y164322D01*
X227950Y164274D01*
X227758Y164202D01*
X227590Y164130D01*
X227458Y164046D01*
X227374Y163986D01*
X227314Y163937D01*
X227290Y163913D01*
X227146Y163745D01*
X227037Y163577D01*
X226953Y163409D01*
X226905Y163241D01*
X226869Y163109D01*
X226857Y162988D01*
X226845Y162916D01*
Y162904D01*
Y162892D01*
X226869Y162676D01*
X226917Y162448D01*
X227001Y162243D01*
X227085Y162051D01*
X227182Y161895D01*
X227266Y161763D01*
X227290Y161715D01*
X227314Y161679D01*
X227338Y161667D01*
Y161655D01*
X227434Y161523D01*
X227554Y161390D01*
X227686Y161246D01*
X227830Y161102D01*
X228131Y160814D01*
X228431Y160525D01*
X228587Y160393D01*
X228719Y160273D01*
X228852Y160165D01*
X228960Y160069D01*
X229044Y159997D01*
X229116Y159937D01*
X229164Y159901D01*
X229176Y159889D01*
X229476Y159636D01*
X229753Y159396D01*
X229981Y159180D01*
X230161Y159000D01*
X230317Y158843D01*
X230425Y158735D01*
X230485Y158663D01*
X230509Y158651D01*
Y158639D01*
X230678Y158435D01*
X230810Y158243D01*
X230930Y158050D01*
X231026Y157882D01*
X231098Y157738D01*
X231146Y157630D01*
X231170Y157558D01*
X231182Y157546D01*
Y157534D01*
X231230Y157402D01*
X231254Y157282D01*
X231278Y157162D01*
X231290Y157053D01*
X231303Y156957D01*
Y156885D01*
Y156837D01*
Y156825D01*
X225788D01*
Y157810D01*
X229885D01*
X229741Y158014D01*
X229669Y158099D01*
X229608Y158183D01*
X229548Y158255D01*
X229500Y158303D01*
X229464Y158339D01*
X229452Y158351D01*
X229392Y158411D01*
X229320Y158471D01*
X229152Y158627D01*
X228960Y158807D01*
X228755Y158988D01*
X228563Y159144D01*
X228479Y159216D01*
X228407Y159288D01*
X228347Y159336D01*
X228299Y159372D01*
X228275Y159396D01*
X228263Y159408D01*
X228071Y159576D01*
X227878Y159733D01*
X227710Y159889D01*
X227554Y160021D01*
X227410Y160153D01*
X227290Y160273D01*
X227170Y160381D01*
X227073Y160477D01*
X226977Y160574D01*
X226905Y160646D01*
X226845Y160706D01*
X226785Y160766D01*
X226725Y160838D01*
X226701Y160862D01*
X226533Y161066D01*
X226389Y161246D01*
X226269Y161427D01*
X226172Y161571D01*
X226100Y161703D01*
X226052Y161799D01*
X226028Y161859D01*
X226016Y161883D01*
X225944Y162063D01*
X225896Y162243D01*
X225848Y162412D01*
X225824Y162556D01*
X225812Y162688D01*
X225800Y162784D01*
Y162844D01*
Y162868D01*
X225812Y163048D01*
X225836Y163217D01*
X225860Y163385D01*
X225908Y163529D01*
X226028Y163817D01*
X226148Y164046D01*
X226220Y164154D01*
X226280Y164238D01*
X226341Y164322D01*
X226401Y164382D01*
X226449Y164430D01*
X226473Y164478D01*
X226497Y164490D01*
X226509Y164502D01*
X226641Y164622D01*
X226785Y164730D01*
X226941Y164814D01*
X227097Y164887D01*
X227410Y165007D01*
X227722Y165091D01*
X227854Y165115D01*
X227987Y165139D01*
X228107Y165151D01*
X228203Y165163D01*
X228287Y165175D01*
X228407D01*
X228623Y165163D01*
D02*
G37*
G36*
X246212Y164154D02*
X243473D01*
Y156825D01*
X242367D01*
Y164154D01*
X239628D01*
Y165139D01*
X246212D01*
Y164154D01*
D02*
G37*
G36*
X238487Y156825D02*
X237382D01*
Y160201D01*
X235255D01*
X234943Y160213D01*
X234642Y160237D01*
X234378Y160273D01*
X234138Y160321D01*
X233909Y160369D01*
X233717Y160429D01*
X233537Y160501D01*
X233381Y160574D01*
X233249Y160634D01*
X233129Y160706D01*
X233032Y160766D01*
X232960Y160826D01*
X232900Y160862D01*
X232864Y160898D01*
X232840Y160922D01*
X232828Y160934D01*
X232708Y161078D01*
X232600Y161222D01*
X232516Y161367D01*
X232432Y161523D01*
X232360Y161679D01*
X232312Y161823D01*
X232228Y162099D01*
X232204Y162232D01*
X232180Y162352D01*
X232167Y162460D01*
X232155Y162544D01*
X232143Y162628D01*
Y162676D01*
Y162712D01*
Y162724D01*
X232155Y162952D01*
X232180Y163169D01*
X232228Y163361D01*
X232264Y163529D01*
X232312Y163673D01*
X232360Y163781D01*
X232384Y163841D01*
X232396Y163865D01*
X232492Y164046D01*
X232612Y164202D01*
X232720Y164346D01*
X232828Y164454D01*
X232924Y164538D01*
X232997Y164610D01*
X233044Y164646D01*
X233069Y164658D01*
X233225Y164755D01*
X233405Y164839D01*
X233573Y164911D01*
X233729Y164971D01*
X233874Y165007D01*
X233982Y165031D01*
X234066Y165055D01*
X234090D01*
X234270Y165079D01*
X234474Y165103D01*
X234690Y165115D01*
X234895Y165127D01*
X235075Y165139D01*
X238487D01*
Y156825D01*
D02*
G37*
G36*
X172332Y165971D02*
X172464Y165779D01*
X172620Y165586D01*
X172764Y165418D01*
X172908Y165274D01*
X173016Y165154D01*
X173065Y165118D01*
X173101Y165082D01*
X173113Y165070D01*
X173125Y165058D01*
X173377Y164853D01*
X173629Y164661D01*
X173870Y164493D01*
X174110Y164361D01*
X174314Y164241D01*
X174398Y164193D01*
X174470Y164157D01*
X174530Y164121D01*
X174578Y164109D01*
X174602Y164084D01*
X174614D01*
Y163099D01*
X174434Y163171D01*
X174254Y163256D01*
X174074Y163340D01*
X173906Y163424D01*
X173761Y163496D01*
X173641Y163556D01*
X173569Y163604D01*
X173557Y163616D01*
X173545D01*
X173329Y163748D01*
X173137Y163880D01*
X172969Y164000D01*
X172836Y164109D01*
X172716Y164193D01*
X172644Y164265D01*
X172584Y164313D01*
X172572Y164325D01*
Y157825D01*
X171551D01*
Y166175D01*
X172212D01*
X172332Y165971D01*
D02*
G37*
G36*
X190449Y165154D02*
X187710D01*
Y157825D01*
X186605D01*
Y165154D01*
X183865D01*
Y166139D01*
X190449D01*
Y165154D01*
D02*
G37*
G36*
X182724Y157825D02*
X181619D01*
Y161201D01*
X179492D01*
X179180Y161213D01*
X178880Y161237D01*
X178615Y161273D01*
X178375Y161321D01*
X178147Y161369D01*
X177954Y161429D01*
X177774Y161501D01*
X177618Y161574D01*
X177486Y161634D01*
X177366Y161706D01*
X177270Y161766D01*
X177197Y161826D01*
X177137Y161862D01*
X177101Y161898D01*
X177077Y161922D01*
X177065Y161934D01*
X176945Y162078D01*
X176837Y162222D01*
X176753Y162367D01*
X176669Y162523D01*
X176597Y162679D01*
X176549Y162823D01*
X176465Y163099D01*
X176441Y163232D01*
X176417Y163352D01*
X176404Y163460D01*
X176392Y163544D01*
X176381Y163628D01*
Y163676D01*
Y163712D01*
Y163724D01*
X176392Y163952D01*
X176417Y164169D01*
X176465Y164361D01*
X176501Y164529D01*
X176549Y164673D01*
X176597Y164781D01*
X176621Y164841D01*
X176633Y164865D01*
X176729Y165046D01*
X176849Y165202D01*
X176957Y165346D01*
X177065Y165454D01*
X177161Y165538D01*
X177234Y165610D01*
X177282Y165646D01*
X177306Y165658D01*
X177462Y165755D01*
X177642Y165839D01*
X177810Y165911D01*
X177966Y165971D01*
X178111Y166007D01*
X178219Y166031D01*
X178303Y166055D01*
X178327D01*
X178507Y166079D01*
X178711Y166103D01*
X178927Y166115D01*
X179132Y166127D01*
X179312Y166139D01*
X182724D01*
Y157825D01*
D02*
G37*
G36*
X175646Y344181D02*
X175850Y344169D01*
X176043Y344133D01*
X176223Y344097D01*
X176391Y344049D01*
X176547Y344001D01*
X176691Y343941D01*
X176824Y343881D01*
X176944Y343820D01*
X177040Y343760D01*
X177124Y343712D01*
X177196Y343664D01*
X177256Y343628D01*
X177292Y343592D01*
X177316Y343580D01*
X177328Y343568D01*
X177448Y343448D01*
X177556Y343316D01*
X177665Y343172D01*
X177749Y343028D01*
X177893Y342739D01*
X177989Y342451D01*
X178025Y342319D01*
X178061Y342187D01*
X178085Y342079D01*
X178109Y341982D01*
X178121Y341898D01*
Y341838D01*
X178133Y341802D01*
Y341790D01*
X177088Y341682D01*
X177064Y341958D01*
X177016Y342199D01*
X176944Y342415D01*
X176860Y342583D01*
X176788Y342727D01*
X176716Y342823D01*
X176667Y342883D01*
X176643Y342907D01*
X176463Y343052D01*
X176271Y343160D01*
X176067Y343244D01*
X175886Y343292D01*
X175718Y343328D01*
X175574Y343340D01*
X175526Y343352D01*
X175454D01*
X175202Y343340D01*
X174973Y343292D01*
X174781Y343220D01*
X174613Y343148D01*
X174481Y343064D01*
X174397Y343004D01*
X174337Y342956D01*
X174313Y342932D01*
X174168Y342763D01*
X174060Y342595D01*
X173976Y342427D01*
X173928Y342259D01*
X173892Y342127D01*
X173880Y342006D01*
X173868Y341934D01*
Y341922D01*
Y341910D01*
X173892Y341694D01*
X173940Y341466D01*
X174024Y341261D01*
X174108Y341069D01*
X174205Y340913D01*
X174289Y340781D01*
X174313Y340733D01*
X174337Y340697D01*
X174361Y340685D01*
Y340673D01*
X174457Y340541D01*
X174577Y340409D01*
X174709Y340264D01*
X174853Y340120D01*
X175154Y339832D01*
X175454Y339543D01*
X175610Y339411D01*
X175742Y339291D01*
X175875Y339183D01*
X175983Y339087D01*
X176067Y339015D01*
X176139Y338955D01*
X176187Y338919D01*
X176199Y338907D01*
X176499Y338654D01*
X176775Y338414D01*
X177004Y338198D01*
X177184Y338018D01*
X177340Y337862D01*
X177448Y337753D01*
X177508Y337681D01*
X177532Y337669D01*
Y337657D01*
X177701Y337453D01*
X177833Y337261D01*
X177953Y337068D01*
X178049Y336900D01*
X178121Y336756D01*
X178169Y336648D01*
X178193Y336576D01*
X178205Y336564D01*
Y336552D01*
X178253Y336420D01*
X178277Y336300D01*
X178301Y336180D01*
X178313Y336071D01*
X178325Y335975D01*
Y335903D01*
Y335855D01*
Y335843D01*
X172811D01*
Y336828D01*
X176908D01*
X176763Y337033D01*
X176691Y337117D01*
X176631Y337201D01*
X176571Y337273D01*
X176523Y337321D01*
X176487Y337357D01*
X176475Y337369D01*
X176415Y337429D01*
X176343Y337489D01*
X176175Y337645D01*
X175983Y337825D01*
X175778Y338006D01*
X175586Y338162D01*
X175502Y338234D01*
X175430Y338306D01*
X175370Y338354D01*
X175322Y338390D01*
X175298Y338414D01*
X175286Y338426D01*
X175094Y338594D01*
X174901Y338750D01*
X174733Y338907D01*
X174577Y339039D01*
X174433Y339171D01*
X174313Y339291D01*
X174193Y339399D01*
X174096Y339495D01*
X174000Y339591D01*
X173928Y339664D01*
X173868Y339724D01*
X173808Y339784D01*
X173748Y339856D01*
X173724Y339880D01*
X173556Y340084D01*
X173412Y340264D01*
X173291Y340444D01*
X173195Y340589D01*
X173123Y340721D01*
X173075Y340817D01*
X173051Y340877D01*
X173039Y340901D01*
X172967Y341081D01*
X172919Y341261D01*
X172871Y341430D01*
X172847Y341574D01*
X172835Y341706D01*
X172823Y341802D01*
Y341862D01*
Y341886D01*
X172835Y342066D01*
X172859Y342235D01*
X172883Y342403D01*
X172931Y342547D01*
X173051Y342835D01*
X173171Y343064D01*
X173243Y343172D01*
X173303Y343256D01*
X173363Y343340D01*
X173424Y343400D01*
X173472Y343448D01*
X173496Y343496D01*
X173520Y343508D01*
X173532Y343520D01*
X173664Y343640D01*
X173808Y343748D01*
X173964Y343833D01*
X174120Y343905D01*
X174433Y344025D01*
X174745Y344109D01*
X174877Y344133D01*
X175009Y344157D01*
X175130Y344169D01*
X175226Y344181D01*
X175310Y344193D01*
X175430D01*
X175646Y344181D01*
D02*
G37*
G36*
X187480Y335843D02*
X186423D01*
Y342920D01*
X184020Y335843D01*
X183035D01*
X180608Y342799D01*
Y335843D01*
X179551D01*
Y344157D01*
X181029D01*
X183023Y338366D01*
X183131Y338054D01*
X183215Y337789D01*
X183299Y337561D01*
X183359Y337369D01*
X183407Y337225D01*
X183443Y337117D01*
X183455Y337057D01*
X183468Y337033D01*
X183515Y337201D01*
X183576Y337393D01*
X183648Y337597D01*
X183708Y337801D01*
X183768Y337982D01*
X183816Y338126D01*
X183840Y338186D01*
X183852Y338222D01*
X183864Y338246D01*
Y338258D01*
X185834Y344157D01*
X187480D01*
Y335843D01*
D02*
G37*
G36*
X201669Y344277D02*
X202053Y344217D01*
X202390Y344145D01*
X202546Y344097D01*
X202690Y344049D01*
X202822Y344001D01*
X202943Y343953D01*
X203039Y343917D01*
X203135Y343881D01*
X203195Y343844D01*
X203243Y343820D01*
X203279Y343809D01*
X203291Y343797D01*
X203615Y343592D01*
X203892Y343352D01*
X204132Y343112D01*
X204336Y342871D01*
X204492Y342655D01*
X204552Y342559D01*
X204600Y342475D01*
X204648Y342415D01*
X204673Y342367D01*
X204685Y342331D01*
X204697Y342319D01*
X204865Y341946D01*
X204985Y341562D01*
X205069Y341177D01*
X205129Y340829D01*
X205153Y340673D01*
X205165Y340517D01*
X205177Y340396D01*
Y340276D01*
X205189Y340192D01*
Y340120D01*
Y340072D01*
Y340060D01*
X205165Y339628D01*
X205117Y339207D01*
X205057Y338835D01*
X205009Y338654D01*
X204973Y338498D01*
X204937Y338354D01*
X204889Y338222D01*
X204853Y338102D01*
X204829Y338006D01*
X204793Y337934D01*
X204781Y337873D01*
X204757Y337837D01*
Y337825D01*
X204576Y337465D01*
X204372Y337141D01*
X204156Y336864D01*
X204048Y336756D01*
X203952Y336648D01*
X203855Y336552D01*
X203759Y336468D01*
X203675Y336396D01*
X203603Y336348D01*
X203555Y336300D01*
X203507Y336264D01*
X203483Y336252D01*
X203471Y336240D01*
X203303Y336143D01*
X203135Y336059D01*
X202774Y335927D01*
X202414Y335831D01*
X202065Y335771D01*
X201897Y335747D01*
X201753Y335723D01*
X201621Y335711D01*
X201513D01*
X201417Y335699D01*
X201285D01*
X201044Y335711D01*
X200816Y335735D01*
X200600Y335759D01*
X200396Y335807D01*
X200203Y335867D01*
X200023Y335927D01*
X199855Y335987D01*
X199699Y336059D01*
X199566Y336119D01*
X199434Y336180D01*
X199338Y336240D01*
X199242Y336300D01*
X199182Y336348D01*
X199122Y336372D01*
X199098Y336396D01*
X199086Y336408D01*
X198918Y336552D01*
X198773Y336696D01*
X198641Y336864D01*
X198509Y337033D01*
X198293Y337369D01*
X198125Y337705D01*
X198053Y337862D01*
X197993Y338006D01*
X197945Y338138D01*
X197908Y338246D01*
X197873Y338342D01*
X197848Y338414D01*
X197836Y338462D01*
Y338474D01*
X198942Y338750D01*
X198990Y338558D01*
X199050Y338378D01*
X199110Y338210D01*
X199170Y338054D01*
X199242Y337910D01*
X199314Y337789D01*
X199398Y337669D01*
X199470Y337561D01*
X199530Y337465D01*
X199603Y337393D01*
X199663Y337321D01*
X199711Y337261D01*
X199759Y337225D01*
X199795Y337189D01*
X199807Y337177D01*
X199819Y337165D01*
X199939Y337068D01*
X200071Y336996D01*
X200335Y336864D01*
X200588Y336768D01*
X200840Y336708D01*
X201056Y336660D01*
X201140Y336648D01*
X201224D01*
X201297Y336636D01*
X201381D01*
X201657Y336648D01*
X201921Y336696D01*
X202162Y336756D01*
X202378Y336828D01*
X202546Y336900D01*
X202618Y336936D01*
X202678Y336960D01*
X202726Y336984D01*
X202762Y337009D01*
X202786Y337020D01*
X202798D01*
X203027Y337189D01*
X203219Y337369D01*
X203387Y337573D01*
X203519Y337765D01*
X203627Y337934D01*
X203699Y338078D01*
X203723Y338138D01*
X203747Y338174D01*
X203759Y338198D01*
Y338210D01*
X203855Y338522D01*
X203928Y338835D01*
X203988Y339147D01*
X204024Y339435D01*
X204036Y339567D01*
X204048Y339688D01*
Y339796D01*
X204060Y339880D01*
Y339952D01*
Y340012D01*
Y340048D01*
Y340060D01*
X204048Y340372D01*
X204024Y340661D01*
X203976Y340925D01*
X203928Y341165D01*
X203892Y341370D01*
X203868Y341454D01*
X203843Y341526D01*
X203832Y341586D01*
X203820Y341622D01*
X203808Y341646D01*
Y341658D01*
X203687Y341934D01*
X203555Y342187D01*
X203411Y342391D01*
X203255Y342571D01*
X203123Y342715D01*
X203015Y342811D01*
X202931Y342871D01*
X202918Y342895D01*
X202906D01*
X202654Y343052D01*
X202378Y343172D01*
X202113Y343256D01*
X201861Y343304D01*
X201633Y343340D01*
X201537Y343352D01*
X201453D01*
X201393Y343364D01*
X201297D01*
X200996Y343352D01*
X200720Y343304D01*
X200492Y343232D01*
X200287Y343160D01*
X200131Y343076D01*
X200011Y343016D01*
X199939Y342967D01*
X199915Y342943D01*
X199723Y342763D01*
X199543Y342559D01*
X199398Y342343D01*
X199278Y342127D01*
X199182Y341934D01*
X199146Y341838D01*
X199122Y341766D01*
X199098Y341706D01*
X199074Y341658D01*
X199062Y341634D01*
Y341622D01*
X197981Y341874D01*
X198053Y342090D01*
X198125Y342283D01*
X198221Y342463D01*
X198305Y342643D01*
X198401Y342799D01*
X198509Y342943D01*
X198605Y343088D01*
X198701Y343208D01*
X198798Y343304D01*
X198882Y343400D01*
X198966Y343484D01*
X199026Y343544D01*
X199086Y343604D01*
X199134Y343640D01*
X199158Y343652D01*
X199170Y343664D01*
X199338Y343773D01*
X199506Y343881D01*
X199675Y343965D01*
X199855Y344037D01*
X200215Y344145D01*
X200540Y344217D01*
X200696Y344253D01*
X200828Y344265D01*
X200960Y344277D01*
X201068Y344289D01*
X201152Y344301D01*
X201273D01*
X201669Y344277D01*
D02*
G37*
G36*
X193163Y344289D02*
X193463Y344253D01*
X193752Y344193D01*
X194028Y344121D01*
X194280Y344025D01*
X194520Y343929D01*
X194737Y343820D01*
X194929Y343712D01*
X195109Y343604D01*
X195265Y343496D01*
X195398Y343400D01*
X195506Y343304D01*
X195590Y343232D01*
X195662Y343172D01*
X195698Y343136D01*
X195710Y343124D01*
X195902Y342895D01*
X196070Y342655D01*
X196227Y342391D01*
X196347Y342127D01*
X196455Y341850D01*
X196551Y341586D01*
X196623Y341322D01*
X196671Y341069D01*
X196719Y340829D01*
X196755Y340601D01*
X196779Y340396D01*
X196803Y340228D01*
Y340084D01*
X196815Y339976D01*
Y339904D01*
Y339892D01*
Y339880D01*
X196791Y339471D01*
X196743Y339099D01*
X196671Y338739D01*
X196623Y338582D01*
X196575Y338426D01*
X196539Y338294D01*
X196491Y338174D01*
X196455Y338066D01*
X196419Y337970D01*
X196395Y337897D01*
X196371Y337850D01*
X196347Y337813D01*
Y337801D01*
X196142Y337453D01*
X195926Y337153D01*
X195686Y336888D01*
X195458Y336672D01*
X195253Y336492D01*
X195169Y336420D01*
X195097Y336372D01*
X195025Y336324D01*
X194977Y336288D01*
X194953Y336276D01*
X194941Y336264D01*
X194761Y336167D01*
X194581Y336083D01*
X194220Y335939D01*
X193872Y335843D01*
X193547Y335771D01*
X193391Y335747D01*
X193259Y335735D01*
X193139Y335711D01*
X193031D01*
X192959Y335699D01*
X192838D01*
X192442Y335723D01*
X192070Y335783D01*
X191721Y335855D01*
X191565Y335903D01*
X191421Y335951D01*
X191289Y335999D01*
X191169Y336047D01*
X191072Y336083D01*
X190988Y336119D01*
X190916Y336156D01*
X190856Y336180D01*
X190832Y336203D01*
X190820D01*
X190484Y336420D01*
X190195Y336660D01*
X189955Y336912D01*
X189751Y337153D01*
X189583Y337381D01*
X189523Y337465D01*
X189475Y337549D01*
X189426Y337621D01*
X189403Y337669D01*
X189378Y337705D01*
Y337717D01*
X189282Y337910D01*
X189210Y338102D01*
X189078Y338486D01*
X188982Y338871D01*
X188922Y339219D01*
X188910Y339375D01*
X188886Y339519D01*
X188874Y339652D01*
Y339760D01*
X188862Y339856D01*
Y339916D01*
Y339964D01*
Y339976D01*
X188886Y340433D01*
X188934Y340853D01*
X188970Y341045D01*
X189018Y341237D01*
X189066Y341406D01*
X189102Y341562D01*
X189150Y341706D01*
X189198Y341838D01*
X189234Y341946D01*
X189282Y342042D01*
X189306Y342114D01*
X189330Y342163D01*
X189354Y342199D01*
Y342211D01*
X189547Y342559D01*
X189775Y342871D01*
X190015Y343136D01*
X190231Y343352D01*
X190436Y343520D01*
X190532Y343592D01*
X190604Y343652D01*
X190676Y343688D01*
X190724Y343724D01*
X190748Y343736D01*
X190760Y343748D01*
X190940Y343844D01*
X191120Y343929D01*
X191469Y344073D01*
X191829Y344169D01*
X192142Y344229D01*
X192286Y344253D01*
X192430Y344277D01*
X192538Y344289D01*
X192646D01*
X192730Y344301D01*
X192838D01*
X193163Y344289D01*
D02*
G37*
G36*
X78969Y344181D02*
X79173Y344169D01*
X79365Y344133D01*
X79545Y344097D01*
X79713Y344049D01*
X79870Y344001D01*
X80014Y343941D01*
X80146Y343881D01*
X80266Y343820D01*
X80362Y343760D01*
X80446Y343712D01*
X80518Y343664D01*
X80578Y343628D01*
X80614Y343592D01*
X80639Y343580D01*
X80651Y343568D01*
X80771Y343448D01*
X80879Y343316D01*
X80987Y343172D01*
X81071Y343028D01*
X81215Y342739D01*
X81311Y342451D01*
X81347Y342319D01*
X81383Y342187D01*
X81407Y342079D01*
X81431Y341982D01*
X81443Y341898D01*
Y341838D01*
X81455Y341802D01*
Y341790D01*
X80410Y341682D01*
X80386Y341958D01*
X80338Y342199D01*
X80266Y342415D01*
X80182Y342583D01*
X80110Y342727D01*
X80038Y342823D01*
X79990Y342883D01*
X79966Y342907D01*
X79785Y343052D01*
X79593Y343160D01*
X79389Y343244D01*
X79209Y343292D01*
X79041Y343328D01*
X78896Y343340D01*
X78848Y343352D01*
X78776D01*
X78524Y343340D01*
X78296Y343292D01*
X78103Y343220D01*
X77935Y343148D01*
X77803Y343064D01*
X77719Y343004D01*
X77659Y342956D01*
X77635Y342932D01*
X77491Y342763D01*
X77383Y342595D01*
X77298Y342427D01*
X77250Y342259D01*
X77214Y342127D01*
X77202Y342006D01*
X77190Y341934D01*
Y341922D01*
Y341910D01*
X77214Y341694D01*
X77263Y341466D01*
X77347Y341261D01*
X77431Y341069D01*
X77527Y340913D01*
X77611Y340781D01*
X77635Y340733D01*
X77659Y340697D01*
X77683Y340685D01*
Y340673D01*
X77779Y340541D01*
X77899Y340409D01*
X78031Y340264D01*
X78176Y340120D01*
X78476Y339832D01*
X78776Y339543D01*
X78932Y339411D01*
X79065Y339291D01*
X79197Y339183D01*
X79305Y339087D01*
X79389Y339015D01*
X79461Y338955D01*
X79509Y338919D01*
X79521Y338907D01*
X79822Y338654D01*
X80098Y338414D01*
X80326Y338198D01*
X80506Y338018D01*
X80662Y337862D01*
X80771Y337753D01*
X80831Y337681D01*
X80855Y337669D01*
Y337657D01*
X81023Y337453D01*
X81155Y337261D01*
X81275Y337068D01*
X81371Y336900D01*
X81443Y336756D01*
X81491Y336648D01*
X81516Y336576D01*
X81528Y336564D01*
Y336552D01*
X81576Y336420D01*
X81600Y336300D01*
X81624Y336180D01*
X81636Y336071D01*
X81648Y335975D01*
Y335903D01*
Y335855D01*
Y335843D01*
X76133D01*
Y336828D01*
X80230D01*
X80086Y337033D01*
X80014Y337117D01*
X79954Y337201D01*
X79894Y337273D01*
X79845Y337321D01*
X79809Y337357D01*
X79798Y337369D01*
X79737Y337429D01*
X79665Y337489D01*
X79497Y337645D01*
X79305Y337825D01*
X79101Y338006D01*
X78908Y338162D01*
X78824Y338234D01*
X78752Y338306D01*
X78692Y338354D01*
X78644Y338390D01*
X78620Y338414D01*
X78608Y338426D01*
X78416Y338594D01*
X78224Y338750D01*
X78055Y338907D01*
X77899Y339039D01*
X77755Y339171D01*
X77635Y339291D01*
X77515Y339399D01*
X77419Y339495D01*
X77323Y339591D01*
X77250Y339664D01*
X77190Y339724D01*
X77130Y339784D01*
X77070Y339856D01*
X77046Y339880D01*
X76878Y340084D01*
X76734Y340264D01*
X76614Y340444D01*
X76518Y340589D01*
X76445Y340721D01*
X76398Y340817D01*
X76373Y340877D01*
X76361Y340901D01*
X76289Y341081D01*
X76241Y341261D01*
X76193Y341430D01*
X76169Y341574D01*
X76157Y341706D01*
X76145Y341802D01*
Y341862D01*
Y341886D01*
X76157Y342066D01*
X76181Y342235D01*
X76205Y342403D01*
X76253Y342547D01*
X76373Y342835D01*
X76494Y343064D01*
X76566Y343172D01*
X76626Y343256D01*
X76686Y343340D01*
X76746Y343400D01*
X76794Y343448D01*
X76818Y343496D01*
X76842Y343508D01*
X76854Y343520D01*
X76986Y343640D01*
X77130Y343748D01*
X77287Y343833D01*
X77443Y343905D01*
X77755Y344025D01*
X78067Y344109D01*
X78200Y344133D01*
X78332Y344157D01*
X78452Y344169D01*
X78548Y344181D01*
X78632Y344193D01*
X78752D01*
X78969Y344181D01*
D02*
G37*
G36*
X97867Y335843D02*
X96810D01*
Y342367D01*
X92460Y335843D01*
X91319D01*
Y344157D01*
X92376D01*
Y337621D01*
X96737Y344157D01*
X97867D01*
Y335843D01*
D02*
G37*
G36*
X86273Y344277D02*
X86658Y344217D01*
X86994Y344145D01*
X87150Y344097D01*
X87294Y344049D01*
X87427Y344001D01*
X87547Y343953D01*
X87643Y343917D01*
X87739Y343881D01*
X87799Y343844D01*
X87847Y343820D01*
X87883Y343809D01*
X87895Y343797D01*
X88219Y343592D01*
X88496Y343352D01*
X88736Y343112D01*
X88940Y342871D01*
X89096Y342655D01*
X89157Y342559D01*
X89205Y342475D01*
X89253Y342415D01*
X89277Y342367D01*
X89289Y342331D01*
X89301Y342319D01*
X89469Y341946D01*
X89589Y341562D01*
X89673Y341177D01*
X89733Y340829D01*
X89757Y340673D01*
X89769Y340517D01*
X89781Y340396D01*
Y340276D01*
X89793Y340192D01*
Y340120D01*
Y340072D01*
Y340060D01*
X89769Y339628D01*
X89721Y339207D01*
X89661Y338835D01*
X89613Y338654D01*
X89577Y338498D01*
X89541Y338354D01*
X89493Y338222D01*
X89457Y338102D01*
X89433Y338006D01*
X89397Y337934D01*
X89385Y337873D01*
X89361Y337837D01*
Y337825D01*
X89181Y337465D01*
X88976Y337141D01*
X88760Y336864D01*
X88652Y336756D01*
X88556Y336648D01*
X88460Y336552D01*
X88364Y336468D01*
X88279Y336396D01*
X88207Y336348D01*
X88159Y336300D01*
X88111Y336264D01*
X88087Y336252D01*
X88075Y336240D01*
X87907Y336143D01*
X87739Y336059D01*
X87378Y335927D01*
X87018Y335831D01*
X86670Y335771D01*
X86501Y335747D01*
X86357Y335723D01*
X86225Y335711D01*
X86117D01*
X86021Y335699D01*
X85889D01*
X85648Y335711D01*
X85420Y335735D01*
X85204Y335759D01*
X85000Y335807D01*
X84807Y335867D01*
X84627Y335927D01*
X84459Y335987D01*
X84303Y336059D01*
X84171Y336119D01*
X84038Y336180D01*
X83942Y336240D01*
X83846Y336300D01*
X83786Y336348D01*
X83726Y336372D01*
X83702Y336396D01*
X83690Y336408D01*
X83522Y336552D01*
X83378Y336696D01*
X83246Y336864D01*
X83113Y337033D01*
X82897Y337369D01*
X82729Y337705D01*
X82657Y337862D01*
X82597Y338006D01*
X82549Y338138D01*
X82513Y338246D01*
X82477Y338342D01*
X82453Y338414D01*
X82441Y338462D01*
Y338474D01*
X83546Y338750D01*
X83594Y338558D01*
X83654Y338378D01*
X83714Y338210D01*
X83774Y338054D01*
X83846Y337910D01*
X83918Y337789D01*
X84002Y337669D01*
X84074Y337561D01*
X84135Y337465D01*
X84207Y337393D01*
X84267Y337321D01*
X84315Y337261D01*
X84363Y337225D01*
X84399Y337189D01*
X84411Y337177D01*
X84423Y337165D01*
X84543Y337068D01*
X84675Y336996D01*
X84940Y336864D01*
X85192Y336768D01*
X85444Y336708D01*
X85660Y336660D01*
X85744Y336648D01*
X85829D01*
X85901Y336636D01*
X85985D01*
X86261Y336648D01*
X86525Y336696D01*
X86766Y336756D01*
X86982Y336828D01*
X87150Y336900D01*
X87222Y336936D01*
X87282Y336960D01*
X87330Y336984D01*
X87366Y337009D01*
X87390Y337020D01*
X87402D01*
X87631Y337189D01*
X87823Y337369D01*
X87991Y337573D01*
X88123Y337765D01*
X88231Y337934D01*
X88303Y338078D01*
X88328Y338138D01*
X88352Y338174D01*
X88364Y338198D01*
Y338210D01*
X88460Y338522D01*
X88532Y338835D01*
X88592Y339147D01*
X88628Y339435D01*
X88640Y339567D01*
X88652Y339688D01*
Y339796D01*
X88664Y339880D01*
Y339952D01*
Y340012D01*
Y340048D01*
Y340060D01*
X88652Y340372D01*
X88628Y340661D01*
X88580Y340925D01*
X88532Y341165D01*
X88496Y341370D01*
X88472Y341454D01*
X88448Y341526D01*
X88436Y341586D01*
X88424Y341622D01*
X88412Y341646D01*
Y341658D01*
X88292Y341934D01*
X88159Y342187D01*
X88015Y342391D01*
X87859Y342571D01*
X87727Y342715D01*
X87619Y342811D01*
X87535Y342871D01*
X87523Y342895D01*
X87511D01*
X87258Y343052D01*
X86982Y343172D01*
X86718Y343256D01*
X86465Y343304D01*
X86237Y343340D01*
X86141Y343352D01*
X86057D01*
X85997Y343364D01*
X85901D01*
X85600Y343352D01*
X85324Y343304D01*
X85096Y343232D01*
X84892Y343160D01*
X84735Y343076D01*
X84615Y343016D01*
X84543Y342967D01*
X84519Y342943D01*
X84327Y342763D01*
X84147Y342559D01*
X84002Y342343D01*
X83882Y342127D01*
X83786Y341934D01*
X83750Y341838D01*
X83726Y341766D01*
X83702Y341706D01*
X83678Y341658D01*
X83666Y341634D01*
Y341622D01*
X82585Y341874D01*
X82657Y342090D01*
X82729Y342283D01*
X82825Y342463D01*
X82909Y342643D01*
X83005Y342799D01*
X83113Y342943D01*
X83209Y343088D01*
X83306Y343208D01*
X83402Y343304D01*
X83486Y343400D01*
X83570Y343484D01*
X83630Y343544D01*
X83690Y343604D01*
X83738Y343640D01*
X83762Y343652D01*
X83774Y343664D01*
X83942Y343773D01*
X84111Y343881D01*
X84279Y343965D01*
X84459Y344037D01*
X84819Y344145D01*
X85144Y344217D01*
X85300Y344253D01*
X85432Y344265D01*
X85564Y344277D01*
X85672Y344289D01*
X85757Y344301D01*
X85877D01*
X86273Y344277D01*
D02*
G37*
G36*
X130644Y344181D02*
X130848Y344169D01*
X131041Y344133D01*
X131221Y344097D01*
X131389Y344049D01*
X131545Y344001D01*
X131689Y343941D01*
X131821Y343881D01*
X131942Y343820D01*
X132038Y343760D01*
X132122Y343712D01*
X132194Y343664D01*
X132254Y343628D01*
X132290Y343592D01*
X132314Y343580D01*
X132326Y343568D01*
X132446Y343448D01*
X132554Y343316D01*
X132662Y343172D01*
X132747Y343028D01*
X132891Y342739D01*
X132987Y342451D01*
X133023Y342319D01*
X133059Y342187D01*
X133083Y342079D01*
X133107Y341982D01*
X133119Y341898D01*
Y341838D01*
X133131Y341802D01*
Y341790D01*
X132086Y341682D01*
X132062Y341958D01*
X132014Y342199D01*
X131942Y342415D01*
X131858Y342583D01*
X131785Y342727D01*
X131713Y342823D01*
X131665Y342883D01*
X131641Y342907D01*
X131461Y343052D01*
X131269Y343160D01*
X131065Y343244D01*
X130884Y343292D01*
X130716Y343328D01*
X130572Y343340D01*
X130524Y343352D01*
X130452D01*
X130200Y343340D01*
X129971Y343292D01*
X129779Y343220D01*
X129611Y343148D01*
X129479Y343064D01*
X129395Y343004D01*
X129335Y342956D01*
X129311Y342932D01*
X129166Y342763D01*
X129058Y342595D01*
X128974Y342427D01*
X128926Y342259D01*
X128890Y342127D01*
X128878Y342006D01*
X128866Y341934D01*
Y341922D01*
Y341910D01*
X128890Y341694D01*
X128938Y341466D01*
X129022Y341261D01*
X129106Y341069D01*
X129202Y340913D01*
X129286Y340781D01*
X129311Y340733D01*
X129335Y340697D01*
X129359Y340685D01*
Y340673D01*
X129455Y340541D01*
X129575Y340409D01*
X129707Y340264D01*
X129851Y340120D01*
X130152Y339832D01*
X130452Y339543D01*
X130608Y339411D01*
X130740Y339291D01*
X130872Y339183D01*
X130981Y339087D01*
X131065Y339015D01*
X131137Y338955D01*
X131185Y338919D01*
X131197Y338907D01*
X131497Y338654D01*
X131773Y338414D01*
X132002Y338198D01*
X132182Y338018D01*
X132338Y337862D01*
X132446Y337753D01*
X132506Y337681D01*
X132530Y337669D01*
Y337657D01*
X132698Y337453D01*
X132831Y337261D01*
X132951Y337068D01*
X133047Y336900D01*
X133119Y336756D01*
X133167Y336648D01*
X133191Y336576D01*
X133203Y336564D01*
Y336552D01*
X133251Y336420D01*
X133275Y336300D01*
X133299Y336180D01*
X133311Y336071D01*
X133323Y335975D01*
Y335903D01*
Y335855D01*
Y335843D01*
X127809D01*
Y336828D01*
X131906D01*
X131761Y337033D01*
X131689Y337117D01*
X131629Y337201D01*
X131569Y337273D01*
X131521Y337321D01*
X131485Y337357D01*
X131473Y337369D01*
X131413Y337429D01*
X131341Y337489D01*
X131173Y337645D01*
X130981Y337825D01*
X130776Y338006D01*
X130584Y338162D01*
X130500Y338234D01*
X130428Y338306D01*
X130368Y338354D01*
X130320Y338390D01*
X130296Y338414D01*
X130284Y338426D01*
X130091Y338594D01*
X129899Y338750D01*
X129731Y338907D01*
X129575Y339039D01*
X129431Y339171D01*
X129311Y339291D01*
X129190Y339399D01*
X129094Y339495D01*
X128998Y339591D01*
X128926Y339664D01*
X128866Y339724D01*
X128806Y339784D01*
X128746Y339856D01*
X128722Y339880D01*
X128554Y340084D01*
X128410Y340264D01*
X128289Y340444D01*
X128193Y340589D01*
X128121Y340721D01*
X128073Y340817D01*
X128049Y340877D01*
X128037Y340901D01*
X127965Y341081D01*
X127917Y341261D01*
X127869Y341430D01*
X127845Y341574D01*
X127833Y341706D01*
X127821Y341802D01*
Y341862D01*
Y341886D01*
X127833Y342066D01*
X127857Y342235D01*
X127881Y342403D01*
X127929Y342547D01*
X128049Y342835D01*
X128169Y343064D01*
X128241Y343172D01*
X128301Y343256D01*
X128361Y343340D01*
X128421Y343400D01*
X128469Y343448D01*
X128494Y343496D01*
X128518Y343508D01*
X128530Y343520D01*
X128662Y343640D01*
X128806Y343748D01*
X128962Y343833D01*
X129118Y343905D01*
X129431Y344025D01*
X129743Y344109D01*
X129875Y344133D01*
X130007Y344157D01*
X130127Y344169D01*
X130224Y344181D01*
X130308Y344193D01*
X130428D01*
X130644Y344181D01*
D02*
G37*
G36*
X150191Y335843D02*
X149134D01*
Y342367D01*
X144785Y335843D01*
X143644D01*
Y344157D01*
X144701D01*
Y337621D01*
X149062Y344157D01*
X150191D01*
Y335843D01*
D02*
G37*
G36*
X138477Y344289D02*
X138778Y344253D01*
X139066Y344193D01*
X139342Y344121D01*
X139595Y344025D01*
X139835Y343929D01*
X140051Y343820D01*
X140244Y343712D01*
X140424Y343604D01*
X140580Y343496D01*
X140712Y343400D01*
X140820Y343304D01*
X140904Y343232D01*
X140976Y343172D01*
X141012Y343136D01*
X141024Y343124D01*
X141217Y342895D01*
X141385Y342655D01*
X141541Y342391D01*
X141661Y342127D01*
X141769Y341850D01*
X141865Y341586D01*
X141938Y341322D01*
X141986Y341069D01*
X142034Y340829D01*
X142070Y340601D01*
X142094Y340396D01*
X142118Y340228D01*
Y340084D01*
X142130Y339976D01*
Y339904D01*
Y339892D01*
Y339880D01*
X142106Y339471D01*
X142058Y339099D01*
X141986Y338739D01*
X141938Y338582D01*
X141889Y338426D01*
X141853Y338294D01*
X141805Y338174D01*
X141769Y338066D01*
X141733Y337970D01*
X141709Y337897D01*
X141685Y337850D01*
X141661Y337813D01*
Y337801D01*
X141457Y337453D01*
X141241Y337153D01*
X141000Y336888D01*
X140772Y336672D01*
X140568Y336492D01*
X140484Y336420D01*
X140412Y336372D01*
X140340Y336324D01*
X140292Y336288D01*
X140267Y336276D01*
X140255Y336264D01*
X140075Y336167D01*
X139895Y336083D01*
X139535Y335939D01*
X139186Y335843D01*
X138862Y335771D01*
X138706Y335747D01*
X138574Y335735D01*
X138453Y335711D01*
X138345D01*
X138273Y335699D01*
X138153D01*
X137757Y335723D01*
X137384Y335783D01*
X137036Y335855D01*
X136880Y335903D01*
X136735Y335951D01*
X136603Y335999D01*
X136483Y336047D01*
X136387Y336083D01*
X136303Y336119D01*
X136231Y336156D01*
X136171Y336180D01*
X136147Y336203D01*
X136135D01*
X135798Y336420D01*
X135510Y336660D01*
X135270Y336912D01*
X135065Y337153D01*
X134897Y337381D01*
X134837Y337465D01*
X134789Y337549D01*
X134741Y337621D01*
X134717Y337669D01*
X134693Y337705D01*
Y337717D01*
X134597Y337910D01*
X134525Y338102D01*
X134392Y338486D01*
X134296Y338871D01*
X134236Y339219D01*
X134224Y339375D01*
X134200Y339519D01*
X134188Y339652D01*
Y339760D01*
X134176Y339856D01*
Y339916D01*
Y339964D01*
Y339976D01*
X134200Y340433D01*
X134248Y340853D01*
X134284Y341045D01*
X134333Y341237D01*
X134381Y341406D01*
X134417Y341562D01*
X134465Y341706D01*
X134513Y341838D01*
X134549Y341946D01*
X134597Y342042D01*
X134621Y342114D01*
X134645Y342163D01*
X134669Y342199D01*
Y342211D01*
X134861Y342559D01*
X135089Y342871D01*
X135330Y343136D01*
X135546Y343352D01*
X135750Y343520D01*
X135846Y343592D01*
X135918Y343652D01*
X135990Y343688D01*
X136039Y343724D01*
X136062Y343736D01*
X136074Y343748D01*
X136255Y343844D01*
X136435Y343929D01*
X136783Y344073D01*
X137144Y344169D01*
X137456Y344229D01*
X137600Y344253D01*
X137745Y344277D01*
X137853Y344289D01*
X137961D01*
X138045Y344301D01*
X138153D01*
X138477Y344289D01*
D02*
G37*
G36*
X236831Y75969D02*
X237155Y75909D01*
X237431Y75813D01*
X237672Y75717D01*
X237780Y75657D01*
X237864Y75609D01*
X237948Y75560D01*
X238008Y75512D01*
X238056Y75476D01*
X238092Y75452D01*
X238116Y75440D01*
X238128Y75428D01*
X238356Y75200D01*
X238537Y74948D01*
X238681Y74683D01*
X238801Y74419D01*
X238873Y74191D01*
X238909Y74095D01*
X238933Y74011D01*
X238945Y73938D01*
X238957Y73891D01*
X238969Y73854D01*
Y73842D01*
X237948Y73662D01*
X237900Y73927D01*
X237828Y74155D01*
X237744Y74347D01*
X237660Y74503D01*
X237576Y74623D01*
X237504Y74707D01*
X237456Y74767D01*
X237443Y74780D01*
X237287Y74900D01*
X237119Y74996D01*
X236963Y75056D01*
X236807Y75104D01*
X236663Y75128D01*
X236554Y75152D01*
X236458D01*
X236242Y75140D01*
X236050Y75092D01*
X235882Y75032D01*
X235737Y74972D01*
X235629Y74900D01*
X235545Y74840D01*
X235485Y74791D01*
X235473Y74780D01*
X235341Y74635D01*
X235245Y74479D01*
X235185Y74323D01*
X235137Y74179D01*
X235113Y74047D01*
X235089Y73951D01*
Y73878D01*
Y73867D01*
Y73854D01*
Y73722D01*
X235113Y73602D01*
X235173Y73398D01*
X235257Y73218D01*
X235353Y73061D01*
X235449Y72953D01*
X235533Y72869D01*
X235593Y72821D01*
X235605Y72809D01*
X235617D01*
X235821Y72701D01*
X236014Y72617D01*
X236218Y72557D01*
X236398Y72521D01*
X236554Y72497D01*
X236686Y72473D01*
X236843D01*
X236891Y72485D01*
X236951D01*
X237071Y71584D01*
X236915Y71620D01*
X236771Y71644D01*
X236651Y71668D01*
X236542Y71680D01*
X236458Y71692D01*
X236350D01*
X236098Y71668D01*
X235870Y71620D01*
X235665Y71548D01*
X235497Y71464D01*
X235365Y71379D01*
X235269Y71307D01*
X235209Y71259D01*
X235185Y71235D01*
X235029Y71055D01*
X234908Y70863D01*
X234824Y70671D01*
X234776Y70478D01*
X234740Y70322D01*
X234728Y70190D01*
X234716Y70142D01*
Y70106D01*
Y70082D01*
Y70070D01*
X234740Y69806D01*
X234800Y69565D01*
X234872Y69361D01*
X234968Y69181D01*
X235065Y69037D01*
X235137Y68929D01*
X235197Y68857D01*
X235221Y68833D01*
X235413Y68664D01*
X235617Y68544D01*
X235821Y68460D01*
X236014Y68400D01*
X236182Y68364D01*
X236314Y68352D01*
X236362Y68340D01*
X236434D01*
X236651Y68352D01*
X236855Y68400D01*
X237035Y68460D01*
X237179Y68532D01*
X237299Y68592D01*
X237395Y68652D01*
X237443Y68700D01*
X237467Y68712D01*
X237612Y68881D01*
X237732Y69073D01*
X237840Y69277D01*
X237924Y69493D01*
X237984Y69674D01*
X238008Y69758D01*
X238020Y69830D01*
X238032Y69890D01*
X238044Y69938D01*
X238056Y69962D01*
Y69974D01*
X239077Y69842D01*
X239053Y69650D01*
X239017Y69469D01*
X238909Y69133D01*
X238777Y68844D01*
X238705Y68724D01*
X238633Y68604D01*
X238561Y68496D01*
X238489Y68412D01*
X238429Y68328D01*
X238368Y68268D01*
X238333Y68220D01*
X238296Y68184D01*
X238272Y68160D01*
X238260Y68148D01*
X238116Y68040D01*
X237972Y67931D01*
X237828Y67847D01*
X237672Y67775D01*
X237371Y67655D01*
X237083Y67583D01*
X236951Y67559D01*
X236831Y67535D01*
X236723Y67523D01*
X236626Y67511D01*
X236554Y67499D01*
X236446D01*
X236218Y67511D01*
X236014Y67535D01*
X235809Y67571D01*
X235617Y67619D01*
X235437Y67679D01*
X235281Y67739D01*
X235125Y67811D01*
X234993Y67883D01*
X234860Y67944D01*
X234752Y68015D01*
X234656Y68076D01*
X234584Y68136D01*
X234524Y68184D01*
X234476Y68220D01*
X234452Y68244D01*
X234440Y68256D01*
X234296Y68400D01*
X234176Y68556D01*
X234067Y68712D01*
X233971Y68868D01*
X233899Y69013D01*
X233827Y69169D01*
X233731Y69457D01*
X233707Y69589D01*
X233683Y69710D01*
X233659Y69818D01*
X233647Y69914D01*
X233635Y69986D01*
Y70046D01*
Y70082D01*
Y70094D01*
X233647Y70382D01*
X233695Y70647D01*
X233767Y70875D01*
X233839Y71067D01*
X233911Y71223D01*
X233983Y71343D01*
X234031Y71416D01*
X234043Y71440D01*
X234212Y71620D01*
X234392Y71776D01*
X234584Y71896D01*
X234776Y71992D01*
X234944Y72064D01*
X235077Y72112D01*
X235125Y72124D01*
X235161Y72136D01*
X235185Y72148D01*
X235197D01*
X234993Y72256D01*
X234824Y72365D01*
X234680Y72485D01*
X234560Y72593D01*
X234464Y72689D01*
X234392Y72773D01*
X234356Y72821D01*
X234344Y72845D01*
X234248Y73013D01*
X234176Y73182D01*
X234116Y73350D01*
X234079Y73506D01*
X234055Y73638D01*
X234043Y73734D01*
Y73806D01*
Y73830D01*
X234055Y74035D01*
X234091Y74239D01*
X234139Y74419D01*
X234200Y74575D01*
X234260Y74707D01*
X234308Y74816D01*
X234344Y74876D01*
X234356Y74900D01*
X234476Y75080D01*
X234620Y75236D01*
X234764Y75368D01*
X234908Y75488D01*
X235029Y75573D01*
X235137Y75645D01*
X235209Y75681D01*
X235221Y75693D01*
X235233D01*
X235449Y75789D01*
X235665Y75861D01*
X235882Y75921D01*
X236074Y75957D01*
X236230Y75981D01*
X236362Y75993D01*
X236663D01*
X236831Y75969D01*
D02*
G37*
G36*
X247067Y67643D02*
X246010D01*
Y74167D01*
X241660Y67643D01*
X240519D01*
Y75957D01*
X241576D01*
Y69421D01*
X245938Y75957D01*
X247067D01*
Y67643D01*
D02*
G37*
G36*
X252245Y76077D02*
X252629Y76017D01*
X252966Y75945D01*
X253122Y75897D01*
X253266Y75849D01*
X253398Y75801D01*
X253518Y75753D01*
X253615Y75717D01*
X253711Y75681D01*
X253771Y75645D01*
X253819Y75620D01*
X253855Y75609D01*
X253867Y75596D01*
X254191Y75392D01*
X254468Y75152D01*
X254708Y74912D01*
X254912Y74671D01*
X255068Y74455D01*
X255128Y74359D01*
X255176Y74275D01*
X255224Y74215D01*
X255249Y74167D01*
X255261Y74131D01*
X255273Y74119D01*
X255441Y73746D01*
X255561Y73362D01*
X255645Y72977D01*
X255705Y72629D01*
X255729Y72473D01*
X255741Y72317D01*
X255753Y72196D01*
Y72076D01*
X255765Y71992D01*
Y71920D01*
Y71872D01*
Y71860D01*
X255741Y71428D01*
X255693Y71007D01*
X255633Y70635D01*
X255585Y70454D01*
X255549Y70298D01*
X255513Y70154D01*
X255465Y70022D01*
X255429Y69902D01*
X255405Y69806D01*
X255369Y69734D01*
X255357Y69674D01*
X255333Y69637D01*
Y69625D01*
X255152Y69265D01*
X254948Y68941D01*
X254732Y68664D01*
X254624Y68556D01*
X254528Y68448D01*
X254431Y68352D01*
X254335Y68268D01*
X254251Y68196D01*
X254179Y68148D01*
X254131Y68100D01*
X254083Y68064D01*
X254059Y68052D01*
X254047Y68040D01*
X253879Y67944D01*
X253711Y67859D01*
X253350Y67727D01*
X252990Y67631D01*
X252641Y67571D01*
X252473Y67547D01*
X252329Y67523D01*
X252197Y67511D01*
X252089D01*
X251993Y67499D01*
X251861D01*
X251620Y67511D01*
X251392Y67535D01*
X251176Y67559D01*
X250971Y67607D01*
X250779Y67667D01*
X250599Y67727D01*
X250431Y67787D01*
X250275Y67859D01*
X250142Y67919D01*
X250010Y67979D01*
X249914Y68040D01*
X249818Y68100D01*
X249758Y68148D01*
X249698Y68172D01*
X249674Y68196D01*
X249662Y68208D01*
X249494Y68352D01*
X249349Y68496D01*
X249217Y68664D01*
X249085Y68833D01*
X248869Y69169D01*
X248701Y69505D01*
X248629Y69661D01*
X248569Y69806D01*
X248521Y69938D01*
X248484Y70046D01*
X248448Y70142D01*
X248424Y70214D01*
X248412Y70262D01*
Y70274D01*
X249518Y70550D01*
X249566Y70358D01*
X249626Y70178D01*
X249686Y70010D01*
X249746Y69854D01*
X249818Y69710D01*
X249890Y69589D01*
X249974Y69469D01*
X250046Y69361D01*
X250106Y69265D01*
X250179Y69193D01*
X250239Y69121D01*
X250287Y69061D01*
X250335Y69025D01*
X250371Y68989D01*
X250383Y68977D01*
X250395Y68965D01*
X250515Y68868D01*
X250647Y68797D01*
X250911Y68664D01*
X251164Y68568D01*
X251416Y68508D01*
X251632Y68460D01*
X251716Y68448D01*
X251800D01*
X251873Y68436D01*
X251957D01*
X252233Y68448D01*
X252497Y68496D01*
X252738Y68556D01*
X252954Y68628D01*
X253122Y68700D01*
X253194Y68736D01*
X253254Y68760D01*
X253302Y68784D01*
X253338Y68808D01*
X253362Y68821D01*
X253374D01*
X253603Y68989D01*
X253795Y69169D01*
X253963Y69373D01*
X254095Y69565D01*
X254203Y69734D01*
X254275Y69878D01*
X254299Y69938D01*
X254323Y69974D01*
X254335Y69998D01*
Y70010D01*
X254431Y70322D01*
X254504Y70635D01*
X254564Y70947D01*
X254600Y71235D01*
X254612Y71368D01*
X254624Y71488D01*
Y71596D01*
X254636Y71680D01*
Y71752D01*
Y71812D01*
Y71848D01*
Y71860D01*
X254624Y72172D01*
X254600Y72461D01*
X254552Y72725D01*
X254504Y72965D01*
X254468Y73170D01*
X254443Y73254D01*
X254419Y73326D01*
X254408Y73386D01*
X254396Y73422D01*
X254384Y73446D01*
Y73458D01*
X254263Y73734D01*
X254131Y73987D01*
X253987Y74191D01*
X253831Y74371D01*
X253699Y74515D01*
X253591Y74611D01*
X253506Y74671D01*
X253494Y74695D01*
X253482D01*
X253230Y74852D01*
X252954Y74972D01*
X252689Y75056D01*
X252437Y75104D01*
X252209Y75140D01*
X252113Y75152D01*
X252029D01*
X251969Y75164D01*
X251873D01*
X251572Y75152D01*
X251296Y75104D01*
X251068Y75032D01*
X250863Y74960D01*
X250707Y74876D01*
X250587Y74816D01*
X250515Y74767D01*
X250491Y74743D01*
X250299Y74563D01*
X250118Y74359D01*
X249974Y74143D01*
X249854Y73927D01*
X249758Y73734D01*
X249722Y73638D01*
X249698Y73566D01*
X249674Y73506D01*
X249650Y73458D01*
X249638Y73434D01*
Y73422D01*
X248557Y73674D01*
X248629Y73891D01*
X248701Y74083D01*
X248797Y74263D01*
X248881Y74443D01*
X248977Y74599D01*
X249085Y74743D01*
X249181Y74888D01*
X249277Y75008D01*
X249373Y75104D01*
X249458Y75200D01*
X249542Y75284D01*
X249602Y75344D01*
X249662Y75404D01*
X249710Y75440D01*
X249734Y75452D01*
X249746Y75464D01*
X249914Y75573D01*
X250082Y75681D01*
X250251Y75765D01*
X250431Y75837D01*
X250791Y75945D01*
X251116Y76017D01*
X251272Y76053D01*
X251404Y76065D01*
X251536Y76077D01*
X251644Y76089D01*
X251728Y76101D01*
X251849D01*
X252245Y76077D01*
D02*
G37*
%LPC*%
G36*
X234430Y377726D02*
X232051D01*
X231835Y377714D01*
X231654Y377702D01*
X231510Y377690D01*
X231414Y377666D01*
X231342Y377654D01*
X231294Y377642D01*
X231282D01*
X231126Y377582D01*
X230994Y377509D01*
X230874Y377437D01*
X230765Y377353D01*
X230693Y377269D01*
X230633Y377209D01*
X230597Y377161D01*
X230585Y377149D01*
X230501Y377005D01*
X230429Y376861D01*
X230381Y376705D01*
X230357Y376572D01*
X230333Y376452D01*
X230321Y376344D01*
Y376284D01*
Y376272D01*
Y376260D01*
X230345Y376008D01*
X230393Y375792D01*
X230465Y375599D01*
X230549Y375443D01*
X230633Y375323D01*
X230705Y375227D01*
X230753Y375179D01*
X230777Y375155D01*
X230861Y375083D01*
X230970Y375023D01*
X231198Y374926D01*
X231450Y374854D01*
X231702Y374806D01*
X231931Y374782D01*
X232027Y374770D01*
X232111D01*
X232195Y374758D01*
X234430D01*
Y377726D01*
D02*
G37*
G36*
X225575Y377906D02*
X225479D01*
X225275Y377894D01*
X225083Y377846D01*
X224926Y377786D01*
X224782Y377714D01*
X224674Y377642D01*
X224590Y377582D01*
X224530Y377534D01*
X224518Y377522D01*
X224386Y377365D01*
X224290Y377209D01*
X224218Y377053D01*
X224170Y376909D01*
X224146Y376777D01*
X224121Y376669D01*
Y376596D01*
Y376584D01*
Y376572D01*
X224133Y376380D01*
X224182Y376200D01*
X224242Y376044D01*
X224314Y375912D01*
X224386Y375803D01*
X224446Y375731D01*
X224494Y375671D01*
X224506Y375659D01*
X224650Y375539D01*
X224818Y375443D01*
X224974Y375383D01*
X225131Y375335D01*
X225275Y375311D01*
X225383Y375299D01*
X225455Y375287D01*
X225479D01*
X225695Y375299D01*
X225888Y375347D01*
X226056Y375407D01*
X226200Y375479D01*
X226308Y375539D01*
X226392Y375599D01*
X226452Y375647D01*
X226464Y375659D01*
X226584Y375803D01*
X226681Y375972D01*
X226741Y376128D01*
X226789Y376284D01*
X226813Y376416D01*
X226825Y376524D01*
X226837Y376596D01*
Y376609D01*
Y376620D01*
X226825Y376813D01*
X226777Y376981D01*
X226717Y377137D01*
X226644Y377269D01*
X226584Y377377D01*
X226524Y377462D01*
X226476Y377509D01*
X226464Y377522D01*
X226308Y377654D01*
X226152Y377750D01*
X225984Y377810D01*
X225828Y377858D01*
X225683Y377882D01*
X225575Y377906D01*
D02*
G37*
G36*
X225587Y374458D02*
X225515D01*
X225251Y374434D01*
X225011Y374386D01*
X224794Y374302D01*
X224614Y374218D01*
X224470Y374122D01*
X224362Y374037D01*
X224302Y373989D01*
X224278Y373965D01*
X224109Y373773D01*
X223989Y373569D01*
X223905Y373365D01*
X223845Y373184D01*
X223809Y373004D01*
X223797Y372872D01*
X223785Y372824D01*
Y372788D01*
Y372764D01*
Y372752D01*
X223809Y372500D01*
X223857Y372259D01*
X223941Y372055D01*
X224025Y371887D01*
X224109Y371755D01*
X224194Y371647D01*
X224242Y371586D01*
X224266Y371562D01*
X224458Y371406D01*
X224650Y371286D01*
X224854Y371214D01*
X225047Y371154D01*
X225215Y371118D01*
X225359Y371106D01*
X225407Y371094D01*
X225479D01*
X225647Y371106D01*
X225816Y371130D01*
X225972Y371166D01*
X226104Y371202D01*
X226212Y371238D01*
X226296Y371274D01*
X226344Y371298D01*
X226368Y371310D01*
X226512Y371406D01*
X226632Y371502D01*
X226741Y371611D01*
X226825Y371719D01*
X226897Y371803D01*
X226945Y371875D01*
X226969Y371935D01*
X226981Y371947D01*
X227041Y372103D01*
X227089Y372247D01*
X227125Y372392D01*
X227149Y372524D01*
X227161Y372632D01*
X227173Y372716D01*
Y372764D01*
Y372788D01*
X227149Y373040D01*
X227101Y373269D01*
X227029Y373473D01*
X226933Y373653D01*
X226849Y373785D01*
X226777Y373893D01*
X226729Y373953D01*
X226705Y373977D01*
X226524Y374133D01*
X226320Y374254D01*
X226128Y374338D01*
X225936Y374398D01*
X225767Y374434D01*
X225635Y374446D01*
X225587Y374458D01*
D02*
G37*
G36*
X218174Y310922D02*
X215795D01*
X215579Y310910D01*
X215398Y310898D01*
X215254Y310886D01*
X215158Y310862D01*
X215086Y310850D01*
X215038Y310838D01*
X215026D01*
X214870Y310778D01*
X214738Y310706D01*
X214618Y310633D01*
X214509Y310549D01*
X214437Y310465D01*
X214377Y310405D01*
X214341Y310357D01*
X214329Y310345D01*
X214245Y310201D01*
X214173Y310057D01*
X214125Y309900D01*
X214101Y309768D01*
X214077Y309648D01*
X214065Y309540D01*
Y309480D01*
Y309468D01*
Y309456D01*
X214089Y309204D01*
X214137Y308988D01*
X214209Y308795D01*
X214293Y308639D01*
X214377Y308519D01*
X214449Y308423D01*
X214497Y308375D01*
X214521Y308351D01*
X214606Y308279D01*
X214714Y308219D01*
X214942Y308122D01*
X215194Y308050D01*
X215446Y308002D01*
X215675Y307978D01*
X215771Y307966D01*
X215855D01*
X215939Y307954D01*
X218174D01*
Y310922D01*
D02*
G37*
G36*
X542985Y87390D02*
X542913D01*
X542661Y87366D01*
X542432Y87306D01*
X542240Y87234D01*
X542072Y87138D01*
X541940Y87042D01*
X541844Y86970D01*
X541784Y86910D01*
X541760Y86886D01*
X541604Y86682D01*
X541483Y86465D01*
X541399Y86237D01*
X541351Y86021D01*
X541315Y85829D01*
X541303Y85744D01*
Y85672D01*
X541291Y85612D01*
Y85564D01*
Y85540D01*
Y85528D01*
X541315Y85204D01*
X541363Y84928D01*
X541435Y84687D01*
X541519Y84483D01*
X541615Y84327D01*
X541688Y84207D01*
X541736Y84135D01*
X541760Y84123D01*
Y84111D01*
X541844Y84015D01*
X541940Y83942D01*
X542132Y83810D01*
X542324Y83726D01*
X542492Y83654D01*
X542649Y83618D01*
X542769Y83606D01*
X542817Y83594D01*
X542877D01*
X543045Y83606D01*
X543201Y83630D01*
X543345Y83678D01*
X543466Y83726D01*
X543574Y83762D01*
X543658Y83810D01*
X543706Y83834D01*
X543730Y83846D01*
X543874Y83954D01*
X543994Y84062D01*
X544102Y84195D01*
X544187Y84303D01*
X544259Y84411D01*
X544307Y84495D01*
X544343Y84555D01*
X544355Y84579D01*
X544427Y84759D01*
X544475Y84940D01*
X544523Y85108D01*
X544547Y85264D01*
X544559Y85396D01*
X544571Y85504D01*
Y85564D01*
Y85588D01*
X544547Y85877D01*
X544499Y86129D01*
X544415Y86357D01*
X544331Y86538D01*
X544247Y86694D01*
X544162Y86802D01*
X544114Y86862D01*
X544090Y86886D01*
X543898Y87054D01*
X543706Y87174D01*
X543502Y87270D01*
X543321Y87330D01*
X543153Y87366D01*
X543033Y87379D01*
X542985Y87390D01*
D02*
G37*
G36*
X551924Y90226D02*
X549545D01*
X549329Y90214D01*
X549148Y90202D01*
X549004Y90190D01*
X548908Y90166D01*
X548836Y90154D01*
X548788Y90142D01*
X548776D01*
X548620Y90082D01*
X548488Y90010D01*
X548368Y89937D01*
X548259Y89853D01*
X548187Y89769D01*
X548127Y89709D01*
X548091Y89661D01*
X548079Y89649D01*
X547995Y89505D01*
X547923Y89361D01*
X547875Y89205D01*
X547851Y89073D01*
X547827Y88952D01*
X547815Y88844D01*
Y88784D01*
Y88772D01*
Y88760D01*
X547839Y88508D01*
X547887Y88292D01*
X547959Y88099D01*
X548043Y87943D01*
X548127Y87823D01*
X548199Y87727D01*
X548247Y87679D01*
X548271Y87655D01*
X548355Y87583D01*
X548464Y87523D01*
X548692Y87427D01*
X548944Y87354D01*
X549196Y87306D01*
X549425Y87282D01*
X549521Y87270D01*
X549605D01*
X549689Y87258D01*
X551924D01*
Y90226D01*
D02*
G37*
G36*
X516454Y160244D02*
X514075D01*
X513859Y160232D01*
X513678Y160220D01*
X513534Y160208D01*
X513438Y160184D01*
X513366Y160172D01*
X513318Y160160D01*
X513306D01*
X513150Y160100D01*
X513018Y160028D01*
X512897Y159956D01*
X512789Y159871D01*
X512717Y159787D01*
X512657Y159727D01*
X512621Y159679D01*
X512609Y159667D01*
X512525Y159523D01*
X512453Y159379D01*
X512405Y159223D01*
X512381Y159090D01*
X512357Y158970D01*
X512345Y158862D01*
Y158802D01*
Y158790D01*
Y158778D01*
X512369Y158526D01*
X512417Y158309D01*
X512489Y158117D01*
X512573Y157961D01*
X512657Y157841D01*
X512729Y157745D01*
X512777Y157697D01*
X512801Y157673D01*
X512886Y157601D01*
X512994Y157541D01*
X513222Y157444D01*
X513474Y157372D01*
X513727Y157324D01*
X513955Y157300D01*
X514051Y157288D01*
X514135D01*
X514219Y157276D01*
X516454D01*
Y160244D01*
D02*
G37*
G36*
X310406Y249172D02*
X308027D01*
X307811Y249160D01*
X307630Y249148D01*
X307486Y249136D01*
X307390Y249112D01*
X307318Y249100D01*
X307270Y249088D01*
X307258D01*
X307102Y249028D01*
X306970Y248955D01*
X306849Y248883D01*
X306741Y248799D01*
X306669Y248715D01*
X306609Y248655D01*
X306573Y248607D01*
X306561Y248595D01*
X306477Y248451D01*
X306405Y248307D01*
X306357Y248151D01*
X306333Y248018D01*
X306309Y247898D01*
X306297Y247790D01*
Y247730D01*
Y247718D01*
Y247706D01*
X306321Y247454D01*
X306369Y247237D01*
X306441Y247045D01*
X306525Y246889D01*
X306609Y246769D01*
X306681Y246673D01*
X306729Y246625D01*
X306753Y246601D01*
X306837Y246529D01*
X306946Y246469D01*
X307174Y246372D01*
X307426Y246300D01*
X307678Y246252D01*
X307907Y246228D01*
X308003Y246216D01*
X308087D01*
X308171Y246204D01*
X310406D01*
Y249172D01*
D02*
G37*
G36*
X300914Y248499D02*
Y244774D01*
X303533D01*
X300914Y248499D01*
D02*
G37*
G36*
X310424Y219226D02*
X308045D01*
X307829Y219214D01*
X307648Y219202D01*
X307504Y219190D01*
X307408Y219166D01*
X307336Y219154D01*
X307288Y219142D01*
X307276D01*
X307120Y219082D01*
X306988Y219010D01*
X306868Y218937D01*
X306759Y218853D01*
X306687Y218769D01*
X306627Y218709D01*
X306591Y218661D01*
X306579Y218649D01*
X306495Y218505D01*
X306423Y218361D01*
X306375Y218205D01*
X306351Y218072D01*
X306327Y217952D01*
X306315Y217844D01*
Y217784D01*
Y217772D01*
Y217760D01*
X306339Y217508D01*
X306387Y217292D01*
X306459Y217099D01*
X306543Y216943D01*
X306627Y216823D01*
X306699Y216727D01*
X306747Y216679D01*
X306771Y216655D01*
X306855Y216583D01*
X306964Y216523D01*
X307192Y216427D01*
X307444Y216354D01*
X307696Y216306D01*
X307925Y216282D01*
X308021Y216270D01*
X308105D01*
X308189Y216258D01*
X310424D01*
Y219226D01*
D02*
G37*
G36*
X237382Y164154D02*
X235003D01*
X234787Y164142D01*
X234606Y164130D01*
X234462Y164118D01*
X234366Y164094D01*
X234294Y164082D01*
X234246Y164070D01*
X234234D01*
X234078Y164010D01*
X233946Y163937D01*
X233825Y163865D01*
X233717Y163781D01*
X233645Y163697D01*
X233585Y163637D01*
X233549Y163589D01*
X233537Y163577D01*
X233453Y163433D01*
X233381Y163289D01*
X233333Y163132D01*
X233309Y163000D01*
X233285Y162880D01*
X233273Y162772D01*
Y162712D01*
Y162700D01*
Y162688D01*
X233297Y162436D01*
X233345Y162220D01*
X233417Y162027D01*
X233501Y161871D01*
X233585Y161751D01*
X233657Y161655D01*
X233705Y161607D01*
X233729Y161583D01*
X233813Y161511D01*
X233922Y161451D01*
X234150Y161354D01*
X234402Y161282D01*
X234654Y161234D01*
X234883Y161210D01*
X234979Y161198D01*
X235063D01*
X235147Y161186D01*
X237382D01*
Y164154D01*
D02*
G37*
G36*
X181619Y165154D02*
X179240D01*
X179024Y165142D01*
X178843Y165130D01*
X178699Y165118D01*
X178603Y165094D01*
X178531Y165082D01*
X178483Y165070D01*
X178471D01*
X178315Y165010D01*
X178183Y164937D01*
X178062Y164865D01*
X177954Y164781D01*
X177882Y164697D01*
X177822Y164637D01*
X177786Y164589D01*
X177774Y164577D01*
X177690Y164433D01*
X177618Y164289D01*
X177570Y164132D01*
X177546Y164000D01*
X177522Y163880D01*
X177510Y163772D01*
Y163712D01*
Y163700D01*
Y163688D01*
X177534Y163436D01*
X177582Y163220D01*
X177654Y163027D01*
X177738Y162871D01*
X177822Y162751D01*
X177894Y162655D01*
X177942Y162607D01*
X177966Y162583D01*
X178050Y162511D01*
X178159Y162451D01*
X178387Y162354D01*
X178639Y162282D01*
X178892Y162234D01*
X179120Y162210D01*
X179216Y162198D01*
X179300D01*
X179384Y162186D01*
X181619D01*
Y165154D01*
D02*
G37*
G36*
X192947Y343352D02*
X192838D01*
X192538Y343340D01*
X192250Y343292D01*
X191998Y343220D01*
X191781Y343148D01*
X191601Y343064D01*
X191529Y343028D01*
X191469Y343004D01*
X191409Y342967D01*
X191373Y342956D01*
X191361Y342932D01*
X191349D01*
X191120Y342763D01*
X190916Y342571D01*
X190736Y342379D01*
X190592Y342187D01*
X190484Y342018D01*
X190400Y341874D01*
X190376Y341826D01*
X190352Y341790D01*
X190340Y341766D01*
Y341754D01*
X190219Y341466D01*
X190135Y341153D01*
X190075Y340865D01*
X190039Y340589D01*
X190015Y340457D01*
X190003Y340348D01*
Y340240D01*
X189991Y340156D01*
Y340084D01*
Y340036D01*
Y340000D01*
Y339988D01*
X190003Y339700D01*
X190027Y339423D01*
X190063Y339159D01*
X190111Y338919D01*
X190183Y338703D01*
X190243Y338498D01*
X190315Y338306D01*
X190388Y338138D01*
X190472Y337994D01*
X190544Y337862D01*
X190604Y337753D01*
X190664Y337669D01*
X190724Y337597D01*
X190760Y337537D01*
X190784Y337513D01*
X190796Y337501D01*
X190952Y337345D01*
X191120Y337213D01*
X191289Y337105D01*
X191457Y336996D01*
X191625Y336912D01*
X191805Y336852D01*
X191961Y336792D01*
X192130Y336744D01*
X192274Y336708D01*
X192418Y336684D01*
X192538Y336660D01*
X192646Y336648D01*
X192730D01*
X192791Y336636D01*
X192850D01*
X193079Y336648D01*
X193295Y336672D01*
X193487Y336720D01*
X193680Y336768D01*
X193860Y336840D01*
X194028Y336912D01*
X194184Y336984D01*
X194328Y337068D01*
X194448Y337153D01*
X194557Y337225D01*
X194653Y337297D01*
X194737Y337369D01*
X194797Y337417D01*
X194845Y337465D01*
X194869Y337489D01*
X194881Y337501D01*
X195025Y337669D01*
X195145Y337850D01*
X195253Y338042D01*
X195350Y338234D01*
X195422Y338438D01*
X195494Y338630D01*
X195590Y339015D01*
X195614Y339183D01*
X195638Y339351D01*
X195662Y339495D01*
X195674Y339616D01*
X195686Y339724D01*
Y339808D01*
Y339856D01*
Y339868D01*
X195674Y340204D01*
X195650Y340517D01*
X195614Y340817D01*
X195554Y341081D01*
X195494Y341322D01*
X195422Y341538D01*
X195338Y341742D01*
X195265Y341910D01*
X195181Y342066D01*
X195109Y342199D01*
X195037Y342307D01*
X194977Y342391D01*
X194917Y342463D01*
X194881Y342511D01*
X194857Y342535D01*
X194845Y342547D01*
X194689Y342691D01*
X194520Y342811D01*
X194352Y342920D01*
X194172Y343016D01*
X194004Y343088D01*
X193836Y343160D01*
X193523Y343256D01*
X193379Y343280D01*
X193247Y343304D01*
X193139Y343328D01*
X193031Y343340D01*
X192947Y343352D01*
D02*
G37*
G36*
X138261D02*
X138153D01*
X137853Y343340D01*
X137564Y343292D01*
X137312Y343220D01*
X137096Y343148D01*
X136916Y343064D01*
X136843Y343028D01*
X136783Y343004D01*
X136723Y342967D01*
X136687Y342956D01*
X136675Y342932D01*
X136663D01*
X136435Y342763D01*
X136231Y342571D01*
X136051Y342379D01*
X135906Y342187D01*
X135798Y342018D01*
X135714Y341874D01*
X135690Y341826D01*
X135666Y341790D01*
X135654Y341766D01*
Y341754D01*
X135534Y341466D01*
X135450Y341153D01*
X135390Y340865D01*
X135354Y340589D01*
X135330Y340457D01*
X135318Y340348D01*
Y340240D01*
X135306Y340156D01*
Y340084D01*
Y340036D01*
Y340000D01*
Y339988D01*
X135318Y339700D01*
X135342Y339423D01*
X135378Y339159D01*
X135426Y338919D01*
X135498Y338703D01*
X135558Y338498D01*
X135630Y338306D01*
X135702Y338138D01*
X135786Y337994D01*
X135858Y337862D01*
X135918Y337753D01*
X135978Y337669D01*
X136039Y337597D01*
X136074Y337537D01*
X136099Y337513D01*
X136111Y337501D01*
X136267Y337345D01*
X136435Y337213D01*
X136603Y337105D01*
X136771Y336996D01*
X136940Y336912D01*
X137120Y336852D01*
X137276Y336792D01*
X137444Y336744D01*
X137588Y336708D01*
X137732Y336684D01*
X137853Y336660D01*
X137961Y336648D01*
X138045D01*
X138105Y336636D01*
X138165D01*
X138393Y336648D01*
X138610Y336672D01*
X138802Y336720D01*
X138994Y336768D01*
X139174Y336840D01*
X139342Y336912D01*
X139499Y336984D01*
X139643Y337068D01*
X139763Y337153D01*
X139871Y337225D01*
X139967Y337297D01*
X140051Y337369D01*
X140111Y337417D01*
X140159Y337465D01*
X140183Y337489D01*
X140195Y337501D01*
X140340Y337669D01*
X140460Y337850D01*
X140568Y338042D01*
X140664Y338234D01*
X140736Y338438D01*
X140808Y338630D01*
X140904Y339015D01*
X140928Y339183D01*
X140952Y339351D01*
X140976Y339495D01*
X140988Y339616D01*
X141000Y339724D01*
Y339808D01*
Y339856D01*
Y339868D01*
X140988Y340204D01*
X140964Y340517D01*
X140928Y340817D01*
X140868Y341081D01*
X140808Y341322D01*
X140736Y341538D01*
X140652Y341742D01*
X140580Y341910D01*
X140496Y342066D01*
X140424Y342199D01*
X140352Y342307D01*
X140292Y342391D01*
X140231Y342463D01*
X140195Y342511D01*
X140171Y342535D01*
X140159Y342547D01*
X140003Y342691D01*
X139835Y342811D01*
X139667Y342920D01*
X139487Y343016D01*
X139318Y343088D01*
X139150Y343160D01*
X138838Y343256D01*
X138694Y343280D01*
X138561Y343304D01*
X138453Y343328D01*
X138345Y343340D01*
X138261Y343352D01*
D02*
G37*
%LPD*%
D11*
X523562Y141000D02*
G03*
X523562Y141000I-8062J0D01*
G01*
X559062Y71000D02*
G03*
X559062Y71000I-8062J0D01*
G01*
X189062Y146000D02*
G03*
X189062Y146000I-8062J0D01*
G01*
X244062Y145250D02*
G03*
X244062Y145250I-8062J0D01*
G01*
X317062Y231000D02*
G03*
X317062Y231000I-8062J0D01*
G01*
Y201000D02*
G03*
X317062Y201000I-8062J0D01*
G01*
X241062Y359000D02*
G03*
X241062Y359000I-8062J0D01*
G01*
X224062Y323500D02*
G03*
X224062Y323500I-8062J0D01*
G01*
D14*
X93000Y34000D02*
Y64000D01*
Y34000D02*
X127000Y34000D01*
X93000Y64000D02*
X101000Y64000D01*
X122000D02*
X152000Y64000D01*
X147000Y34000D02*
X177000D01*
X173000Y64000D02*
X203000D01*
X198000Y34000D02*
X228000Y34000D01*
X257000Y34000D02*
Y64000D01*
X223000Y64000D02*
X257000Y64000D01*
X249000Y34000D02*
X257000Y34000D01*
M02*
