G04*
G04 #@! TF.GenerationSoftware,Altium Limited,Altium Designer,25.4.2 (15)*
G04*
G04 Layer_Physical_Order=2*
G04 Layer_Color=16711680*
%FSLAX44Y44*%
%MOMM*%
G71*
G04*
G04 #@! TF.SameCoordinates,58BEE836-9102-4636-8553-DC709D7D42DE*
G04*
G04*
G04 #@! TF.FilePolarity,Positive*
G04*
G01*
G75*
%ADD10C,0.3000*%
%ADD11C,0.2000*%
%ADD78C,0.5000*%
%ADD80C,0.4000*%
%ADD82C,4.0000*%
%ADD83C,2.2352*%
%ADD84C,1.5000*%
%ADD85C,1.5240*%
%ADD86C,0.6000*%
%ADD87O,1.1000X3.0000*%
%ADD88C,1.0000*%
G36*
X479461Y304000D02*
X479616Y303220D01*
X480058Y302558D01*
X480720Y302116D01*
X481500Y301961D01*
X592940D01*
Y7060D01*
X7060D01*
Y392940D01*
X479461D01*
Y304000D01*
D02*
G37*
%LPC*%
G36*
X90167Y390000D02*
X85833D01*
X81583Y389155D01*
X77579Y387496D01*
X73976Y385089D01*
X70911Y382024D01*
X68504Y378421D01*
X66845Y374417D01*
X66000Y370167D01*
Y365833D01*
X66845Y361583D01*
X68504Y357579D01*
X70911Y353976D01*
X73976Y350911D01*
X77579Y348504D01*
X81583Y346846D01*
X85833Y346000D01*
X90167D01*
X94417Y346846D01*
X98421Y348504D01*
X102024Y350911D01*
X105089Y353976D01*
X107496Y357579D01*
X109155Y361583D01*
X110000Y365833D01*
Y370167D01*
X109155Y374417D01*
X107496Y378421D01*
X105089Y382024D01*
X102024Y385089D01*
X98421Y387496D01*
X94417Y389155D01*
X90167Y390000D01*
D02*
G37*
G36*
X190167D02*
X185833D01*
X181583Y389155D01*
X177579Y387496D01*
X173976Y385089D01*
X170912Y382024D01*
X168504Y378421D01*
X166845Y374417D01*
X166000Y370167D01*
Y365833D01*
X166845Y361583D01*
X167048Y361095D01*
X151522Y345569D01*
X146561D01*
X146163Y347569D01*
X148421Y348504D01*
X152024Y350911D01*
X155089Y353976D01*
X157496Y357579D01*
X159155Y361583D01*
X160000Y365833D01*
Y370167D01*
X159155Y374417D01*
X157496Y378421D01*
X155089Y382024D01*
X152024Y385089D01*
X148421Y387496D01*
X144417Y389155D01*
X140167Y390000D01*
X135833D01*
X131583Y389155D01*
X127579Y387496D01*
X123976Y385089D01*
X120912Y382024D01*
X118504Y378421D01*
X116846Y374417D01*
X116000Y370167D01*
Y365833D01*
X116846Y361583D01*
X118504Y357579D01*
X120912Y353976D01*
X123976Y350911D01*
X127579Y348504D01*
X129837Y347569D01*
X129439Y345569D01*
X122253D01*
X121332Y346489D01*
X119495Y347250D01*
X117505D01*
X115668Y346489D01*
X114261Y345082D01*
X113500Y343245D01*
Y341255D01*
X114261Y339418D01*
X115668Y338011D01*
X117505Y337250D01*
X119495D01*
X121332Y338011D01*
X121753Y338431D01*
X153000D01*
X154366Y338703D01*
X155523Y339477D01*
X158397Y342350D01*
X160092Y341217D01*
X160000Y340995D01*
Y339005D01*
X160761Y337168D01*
X162168Y335761D01*
X164005Y335000D01*
X165995D01*
X167832Y335761D01*
X169012Y336941D01*
X193000D01*
X193000Y336941D01*
X194171Y337174D01*
X195163Y337837D01*
X212767Y355441D01*
X226972D01*
X227399Y354702D01*
X228702Y353399D01*
X229941Y352683D01*
Y337500D01*
X229941Y337500D01*
X230174Y336329D01*
X230837Y335337D01*
X231268Y334907D01*
X230502Y333059D01*
X223000D01*
X223000Y333059D01*
X221829Y332826D01*
X220837Y332163D01*
X218698Y330024D01*
X216922Y330500D01*
X215078D01*
X213298Y330023D01*
X211702Y329101D01*
X210399Y327798D01*
X209477Y326202D01*
X209000Y324422D01*
Y322579D01*
X209370Y321196D01*
X206233Y318059D01*
X184267D01*
X181000Y321326D01*
Y322995D01*
X180239Y324832D01*
X178832Y326239D01*
X176995Y327000D01*
X175005D01*
X173168Y326239D01*
X171761Y324832D01*
X171000Y322995D01*
Y321005D01*
X171761Y319168D01*
X173168Y317761D01*
X175005Y317000D01*
X176674D01*
X179596Y314078D01*
X178767Y312078D01*
X117112D01*
X89807Y339384D01*
X88484Y340268D01*
X86923Y340578D01*
X86923Y340578D01*
X76493D01*
X76332Y340739D01*
X74495Y341500D01*
X72505D01*
X70668Y340739D01*
X69261Y339332D01*
X68500Y337495D01*
Y335505D01*
X69261Y333668D01*
X70668Y332261D01*
X72505Y331500D01*
X74495D01*
X76332Y332261D01*
X76493Y332422D01*
X85234D01*
X112539Y305116D01*
X112539Y305116D01*
X112240Y303148D01*
X112106Y303000D01*
X109749D01*
X107333Y302353D01*
X105167Y301102D01*
X103398Y299333D01*
X102148Y297167D01*
X101500Y294751D01*
Y292249D01*
X102148Y289833D01*
X103398Y287667D01*
X105167Y285898D01*
X107333Y284648D01*
X109749Y284000D01*
X112251D01*
X114667Y284648D01*
X116833Y285898D01*
X118602Y287667D01*
X119853Y289833D01*
X120500Y292249D01*
Y294751D01*
X119853Y297167D01*
X118602Y299333D01*
X116833Y301102D01*
X115388Y301936D01*
X115949Y303922D01*
X169051D01*
X169545Y302076D01*
X176000Y295621D01*
X182455Y302076D01*
X182949Y303922D01*
X214173D01*
X214173Y303922D01*
X215734Y304232D01*
X217057Y305116D01*
X221247Y309306D01*
X223095Y308541D01*
Y291399D01*
X223095Y291399D01*
X223095Y291399D01*
Y274106D01*
X220585D01*
X217307Y277384D01*
X215984Y278268D01*
X214423Y278578D01*
X214423Y278578D01*
X201423D01*
X199862Y278268D01*
X198539Y277384D01*
X198539Y277384D01*
X196155Y275000D01*
X196005D01*
X194168Y274239D01*
X192761Y272832D01*
X192000Y270995D01*
Y269006D01*
X190642Y267059D01*
X93000D01*
X91830Y266826D01*
X90837Y266163D01*
X84174Y259500D01*
X82505D01*
X80668Y258739D01*
X79261Y257332D01*
X78500Y255495D01*
Y253505D01*
X79261Y251668D01*
X80668Y250261D01*
X82505Y249500D01*
X84495D01*
X86332Y250261D01*
X87739Y251668D01*
X88500Y253505D01*
Y255174D01*
X94267Y260941D01*
X174476D01*
X174618Y259000D01*
X171947Y258284D01*
X169658Y256963D01*
X176000Y250621D01*
X182342Y256963D01*
X180053Y258284D01*
X177382Y259000D01*
X177524Y260941D01*
X197792D01*
X198761Y259082D01*
X198000Y257245D01*
Y256658D01*
X192837Y251495D01*
X192174Y250503D01*
X191941Y249332D01*
X191941Y249332D01*
Y234108D01*
X189995Y232750D01*
X188005D01*
X186168Y231989D01*
X184761Y230582D01*
X184000Y228745D01*
Y226755D01*
X184761Y224918D01*
X185941Y223738D01*
Y153539D01*
X183941Y152385D01*
X183702Y152523D01*
X181922Y153000D01*
X180079D01*
X178298Y152523D01*
X176702Y151601D01*
X175399Y150298D01*
X175388Y150279D01*
X171027D01*
X170495Y150500D01*
X168505D01*
X166668Y149739D01*
X165261Y148332D01*
X164500Y146495D01*
Y144505D01*
X165261Y142668D01*
X166668Y141261D01*
X168505Y140500D01*
X170495D01*
X171951Y141103D01*
X175997D01*
X176702Y140399D01*
X178298Y139477D01*
X180079Y139000D01*
X181922D01*
X183702Y139477D01*
X183941Y139615D01*
X185941Y138461D01*
Y100667D01*
X164981Y79707D01*
X164258Y80007D01*
X162300Y80265D01*
X160342Y80007D01*
X158518Y79251D01*
X156951Y78049D01*
X155749Y76482D01*
X154993Y74658D01*
X154735Y72700D01*
Y53700D01*
X154993Y51742D01*
X155749Y49918D01*
X156951Y48351D01*
X158518Y47149D01*
X160342Y46393D01*
X162300Y46135D01*
X164258Y46393D01*
X166082Y47149D01*
X167649Y48351D01*
X168851Y49918D01*
X169607Y51742D01*
X169865Y53700D01*
Y72700D01*
X169607Y74658D01*
X169307Y75381D01*
X189941Y96016D01*
X191941Y95187D01*
Y90800D01*
X191941Y90800D01*
X192174Y89629D01*
X192837Y88637D01*
X206093Y75381D01*
X205793Y74658D01*
X205535Y72700D01*
Y53700D01*
X205793Y51742D01*
X206549Y49918D01*
X207751Y48351D01*
X209318Y47149D01*
X211142Y46393D01*
X213100Y46135D01*
X215058Y46393D01*
X216882Y47149D01*
X218449Y48351D01*
X219651Y49918D01*
X220407Y51742D01*
X220665Y53700D01*
Y72700D01*
X220407Y74658D01*
X219651Y76482D01*
X218449Y78049D01*
X216882Y79251D01*
X215058Y80007D01*
X213100Y80265D01*
X211142Y80007D01*
X210418Y79707D01*
X198059Y92067D01*
Y129961D01*
X205492D01*
X234931Y100522D01*
Y50940D01*
X234718Y50851D01*
X233151Y49649D01*
X231949Y48082D01*
X231193Y46258D01*
X230935Y44300D01*
Y25300D01*
X231193Y23342D01*
X231949Y21518D01*
X233151Y19951D01*
X234718Y18749D01*
X236542Y17993D01*
X238500Y17735D01*
X240458Y17993D01*
X242282Y18749D01*
X243849Y19951D01*
X245051Y21518D01*
X245807Y23342D01*
X246065Y25300D01*
Y44300D01*
X245807Y46258D01*
X245051Y48082D01*
X243849Y49649D01*
X242282Y50851D01*
X242069Y50940D01*
Y102000D01*
X241797Y103366D01*
X241023Y104523D01*
X214661Y130886D01*
X214884Y131220D01*
X215039Y132000D01*
Y141681D01*
X229977D01*
X230399Y140952D01*
X231702Y139649D01*
X233298Y138727D01*
X235078Y138250D01*
X236922D01*
X238702Y138727D01*
X240298Y139649D01*
X241601Y140952D01*
X242523Y142548D01*
X243000Y144328D01*
Y146172D01*
X242523Y147952D01*
X241601Y149548D01*
X240298Y150851D01*
X238702Y151773D01*
X236922Y152250D01*
X235078D01*
X233298Y151773D01*
X231702Y150851D01*
X230399Y149548D01*
X229977Y148819D01*
X215039D01*
Y167961D01*
X255000D01*
X255780Y168116D01*
X256442Y168558D01*
X256884Y169220D01*
X257039Y170000D01*
Y180393D01*
X256884Y181173D01*
X256647Y181745D01*
Y182923D01*
X256884Y183495D01*
X257039Y184275D01*
Y208098D01*
X256963Y208482D01*
X256889Y208867D01*
X256885Y208872D01*
X256884Y208878D01*
X256666Y209204D01*
X256451Y209531D01*
X256474Y209702D01*
X256777Y211246D01*
X256941Y211615D01*
X269526Y224201D01*
X271526Y223372D01*
Y223032D01*
X272288Y221194D01*
X273694Y219788D01*
X275532Y219026D01*
X277148D01*
X285596Y210578D01*
X285596Y210578D01*
X286589Y209915D01*
X287759Y209682D01*
X295992D01*
X302370Y203304D01*
X302000Y201922D01*
Y200078D01*
X302477Y198298D01*
X303399Y196702D01*
X304702Y195399D01*
X306298Y194477D01*
X308078Y194000D01*
X309922D01*
X311702Y194477D01*
X313298Y195399D01*
X314601Y196702D01*
X315317Y197941D01*
X403076D01*
X454180Y146837D01*
X454180Y146837D01*
X455173Y146174D01*
X456343Y145941D01*
X487733D01*
X504941Y128733D01*
Y126221D01*
X502914Y125678D01*
X499910Y123943D01*
X497457Y121490D01*
X495722Y118486D01*
X494824Y115135D01*
Y111665D01*
X495722Y108314D01*
X497457Y105310D01*
X499910Y102857D01*
X501645Y101855D01*
Y99545D01*
X499910Y98543D01*
X497457Y96090D01*
X495722Y93086D01*
X494824Y89735D01*
Y86265D01*
X495722Y82914D01*
X497457Y79910D01*
X499910Y77457D01*
X500645Y77032D01*
Y74723D01*
X499296Y73944D01*
X499037Y73685D01*
X508000Y64721D01*
X516963Y73685D01*
X516704Y73944D01*
X515355Y74723D01*
Y77032D01*
X516090Y77457D01*
X518543Y79910D01*
X520278Y82914D01*
X521176Y86265D01*
Y89735D01*
X520303Y92995D01*
X526163Y98855D01*
X526163Y98855D01*
X526826Y99847D01*
X527059Y101018D01*
Y120735D01*
X527059Y120735D01*
X526826Y121906D01*
X526163Y122898D01*
X516981Y132079D01*
X517579Y134310D01*
X518202Y134477D01*
X519798Y135399D01*
X521101Y136702D01*
X521523Y137431D01*
X526497D01*
X527168Y136761D01*
X529005Y136000D01*
X530994D01*
X532941Y134642D01*
Y79267D01*
X529674Y76000D01*
X528005D01*
X526168Y75239D01*
X524761Y73832D01*
X524000Y71995D01*
Y70005D01*
X524761Y68168D01*
X526168Y66761D01*
X528005Y66000D01*
X529995D01*
X531832Y66761D01*
X533012Y67941D01*
X544683D01*
X545399Y66702D01*
X546702Y65399D01*
X548298Y64477D01*
X550078Y64000D01*
X551922D01*
X553702Y64477D01*
X555298Y65399D01*
X556601Y66702D01*
X557523Y68298D01*
X558000Y70078D01*
Y71922D01*
X557523Y73702D01*
X556601Y75298D01*
X555298Y76601D01*
X553702Y77523D01*
X551922Y78000D01*
X550078D01*
X548298Y77523D01*
X546702Y76601D01*
X545399Y75298D01*
X544683Y74059D01*
X538899D01*
X538708Y74521D01*
X538311Y76059D01*
X538826Y76830D01*
X539059Y78000D01*
Y143485D01*
X539059Y143485D01*
X538826Y144656D01*
X538163Y145648D01*
X472648Y211163D01*
X471656Y211826D01*
X470485Y212059D01*
X470485Y212059D01*
X415581D01*
X381477Y246163D01*
X380484Y246826D01*
X379314Y247059D01*
X379314Y247059D01*
X279000D01*
X277829Y246826D01*
X276837Y246163D01*
X256368Y225694D01*
X254028Y226182D01*
X253759Y226832D01*
X253059Y227533D01*
Y238485D01*
X253059Y238485D01*
X252826Y239656D01*
X252163Y240648D01*
X252163Y240648D01*
X228862Y263949D01*
X229690Y265949D01*
X286500D01*
X286660Y265788D01*
X288498Y265027D01*
X290487D01*
X292325Y265788D01*
X293731Y267195D01*
X294492Y269033D01*
Y271022D01*
X293731Y272860D01*
X292325Y274266D01*
X290487Y275027D01*
X288498D01*
X286660Y274266D01*
X286500Y274106D01*
X231251D01*
Y287922D01*
X289007D01*
X289168Y287761D01*
X291005Y287000D01*
X292995D01*
X294832Y287761D01*
X296239Y289168D01*
X297000Y291005D01*
Y291309D01*
X307612Y301922D01*
X339007D01*
X339168Y301761D01*
X341005Y301000D01*
X342995D01*
X344832Y301761D01*
X346239Y303168D01*
X347000Y305005D01*
Y306995D01*
X346239Y308832D01*
X344832Y310239D01*
X342995Y311000D01*
X341005D01*
X339168Y310239D01*
X339007Y310078D01*
X305923D01*
X305923Y310078D01*
X304362Y309768D01*
X303039Y308884D01*
X303039Y308884D01*
X291155Y297000D01*
X291005D01*
X289168Y296239D01*
X289007Y296078D01*
X231251D01*
Y317930D01*
X231489Y318168D01*
X232250Y320005D01*
Y321995D01*
X231489Y323832D01*
X230380Y324941D01*
X230676Y326349D01*
X230993Y326941D01*
X233233D01*
X250539Y309636D01*
X250401Y309305D01*
Y307316D01*
X251163Y305478D01*
X252569Y304072D01*
X254407Y303310D01*
X256396D01*
X258234Y304072D01*
X259640Y305478D01*
X260401Y307316D01*
Y307750D01*
X262006Y309250D01*
X263995D01*
X265832Y310011D01*
X267239Y311418D01*
X268000Y313255D01*
Y315245D01*
X267239Y317082D01*
X265832Y318489D01*
X263995Y319250D01*
X262005D01*
X260168Y318489D01*
X258988Y317309D01*
X257517D01*
X236059Y338767D01*
Y352683D01*
X237298Y353399D01*
X238601Y354702D01*
X239523Y356298D01*
X240000Y358078D01*
Y359922D01*
X239523Y361702D01*
X238601Y363298D01*
X237298Y364601D01*
X235702Y365523D01*
X233922Y366000D01*
X232078D01*
X230298Y365523D01*
X228702Y364601D01*
X227399Y363298D01*
X226477Y361702D01*
X226439Y361559D01*
X211500D01*
X211176Y361494D01*
X209538Y362851D01*
X209443Y363034D01*
X210000Y365833D01*
Y370167D01*
X209154Y374417D01*
X207496Y378421D01*
X205089Y382024D01*
X202024Y385089D01*
X198421Y387496D01*
X194417Y389155D01*
X190167Y390000D01*
D02*
G37*
G36*
X34167Y383000D02*
X29833D01*
X25583Y382155D01*
X21579Y380496D01*
X17976Y378088D01*
X14912Y375024D01*
X12504Y371421D01*
X10846Y367417D01*
X10000Y363167D01*
Y358833D01*
X10846Y354583D01*
X12504Y350579D01*
X14912Y346976D01*
X17976Y343912D01*
X21579Y341504D01*
X25583Y339846D01*
X29833Y339000D01*
X34167D01*
X38417Y339846D01*
X42421Y341504D01*
X46024Y343912D01*
X49089Y346976D01*
X51496Y350579D01*
X53155Y354583D01*
X54000Y358833D01*
Y363167D01*
X53155Y367417D01*
X51496Y371421D01*
X49089Y375024D01*
X46024Y378088D01*
X42421Y380496D01*
X38417Y382155D01*
X34167Y383000D01*
D02*
G37*
G36*
Y333000D02*
X29833D01*
X25583Y332155D01*
X21579Y330496D01*
X17976Y328088D01*
X14912Y325024D01*
X12504Y321421D01*
X10846Y317417D01*
X10000Y313167D01*
Y308833D01*
X10846Y304583D01*
X12504Y300579D01*
X14912Y296976D01*
X17976Y293911D01*
X21579Y291504D01*
X25583Y289846D01*
X29833Y289000D01*
X34167D01*
X38417Y289846D01*
X42421Y291504D01*
X46024Y293911D01*
X49089Y296976D01*
X51496Y300579D01*
X53155Y304583D01*
X53771Y307681D01*
X82000D01*
X83366Y307953D01*
X84082Y308431D01*
X87498D01*
X88168Y307761D01*
X90005Y307000D01*
X91995D01*
X93832Y307761D01*
X95239Y309168D01*
X96000Y311005D01*
Y312995D01*
X95239Y314832D01*
X93832Y316239D01*
X91995Y317000D01*
X90005D01*
X88168Y316239D01*
X87498Y315569D01*
X82750D01*
X81384Y315297D01*
X80668Y314819D01*
X53671D01*
X53155Y317417D01*
X51496Y321421D01*
X49089Y325024D01*
X46024Y328088D01*
X42421Y330496D01*
X38417Y332155D01*
X34167Y333000D01*
D02*
G37*
G36*
X184463Y299842D02*
X178121Y293500D01*
X184463Y287158D01*
X185784Y289447D01*
X186500Y292118D01*
Y294882D01*
X185784Y297553D01*
X184463Y299842D01*
D02*
G37*
G36*
X167537Y299842D02*
X166216Y297553D01*
X165500Y294882D01*
Y292118D01*
X166216Y289447D01*
X167537Y287158D01*
X173879Y293500D01*
X167537Y299842D01*
D02*
G37*
G36*
X176000Y291379D02*
X169658Y285037D01*
X171947Y283716D01*
X174618Y283000D01*
X177382D01*
X180053Y283716D01*
X182342Y285037D01*
X176000Y291379D01*
D02*
G37*
G36*
X184463Y254842D02*
X178121Y248500D01*
X184463Y242158D01*
X185784Y244447D01*
X186500Y247118D01*
Y249882D01*
X185784Y252553D01*
X184463Y254842D01*
D02*
G37*
G36*
X167537Y254842D02*
X166216Y252553D01*
X165500Y249882D01*
Y247118D01*
X166216Y244447D01*
X167537Y242158D01*
X173879Y248500D01*
X167537Y254842D01*
D02*
G37*
G36*
X112251Y258000D02*
X109749D01*
X107333Y257353D01*
X105167Y256102D01*
X103398Y254333D01*
X102148Y252167D01*
X101500Y249751D01*
Y247249D01*
X102148Y244833D01*
X102198Y244745D01*
X94772Y237319D01*
X45757D01*
X44392Y237047D01*
X43234Y236273D01*
X17477Y210516D01*
X16703Y209358D01*
X16431Y207993D01*
Y132472D01*
X16703Y131107D01*
X17477Y129949D01*
X36774Y110651D01*
X35831Y108887D01*
X35265Y109000D01*
X30735D01*
X26291Y108116D01*
X22105Y106382D01*
X18338Y103865D01*
X17797Y103324D01*
X34061Y87061D01*
X50324Y70797D01*
X50865Y71338D01*
X53382Y75105D01*
X55116Y79291D01*
X56000Y83735D01*
Y88265D01*
X55887Y88831D01*
X57651Y89774D01*
X115149Y32277D01*
X116306Y31503D01*
X117672Y31231D01*
X129335D01*
Y25300D01*
X129593Y23342D01*
X130349Y21518D01*
X131551Y19951D01*
X133118Y18749D01*
X134942Y17993D01*
X136900Y17735D01*
X138858Y17993D01*
X140682Y18749D01*
X142249Y19951D01*
X143451Y21518D01*
X144207Y23342D01*
X144465Y25300D01*
Y44300D01*
X144207Y46258D01*
X143451Y48082D01*
X142249Y49649D01*
X140682Y50851D01*
X138858Y51607D01*
X136900Y51865D01*
X134942Y51607D01*
X133118Y50851D01*
X131551Y49649D01*
X130349Y48082D01*
X129593Y46258D01*
X129335Y44300D01*
Y38369D01*
X119150D01*
X113180Y44339D01*
X113319Y45370D01*
X113809Y46538D01*
X115282Y47149D01*
X116849Y48351D01*
X118051Y49918D01*
X118807Y51742D01*
X119065Y53700D01*
Y72700D01*
X118807Y74658D01*
X118051Y76482D01*
X116849Y78049D01*
X115282Y79251D01*
X113458Y80007D01*
X111500Y80265D01*
X109542Y80007D01*
X107718Y79251D01*
X106151Y78049D01*
X104949Y76482D01*
X104193Y74658D01*
X103935Y72700D01*
Y56412D01*
X101935Y55584D01*
X23569Y133950D01*
Y206514D01*
X47235Y230181D01*
X96250D01*
X97616Y230453D01*
X98773Y231227D01*
X107245Y239698D01*
X107333Y239648D01*
X109749Y239000D01*
X112251D01*
X114667Y239648D01*
X116833Y240898D01*
X118602Y242667D01*
X119853Y244833D01*
X120500Y247249D01*
Y249751D01*
X119853Y252167D01*
X118602Y254333D01*
X116833Y256102D01*
X114667Y257353D01*
X112251Y258000D01*
D02*
G37*
G36*
X34167Y283000D02*
X29833D01*
X25583Y282155D01*
X21579Y280496D01*
X17976Y278088D01*
X14912Y275024D01*
X12504Y271421D01*
X10846Y267417D01*
X10000Y263167D01*
Y258833D01*
X10846Y254583D01*
X12504Y250579D01*
X14912Y246976D01*
X17976Y243911D01*
X21579Y241504D01*
X25583Y239846D01*
X29833Y239000D01*
X34167D01*
X38417Y239846D01*
X42421Y241504D01*
X46024Y243911D01*
X49089Y246976D01*
X51496Y250579D01*
X53155Y254583D01*
X54000Y258833D01*
Y263167D01*
X53155Y267417D01*
X51496Y271421D01*
X49089Y275024D01*
X46024Y278088D01*
X42421Y280496D01*
X38417Y282155D01*
X34167Y283000D01*
D02*
G37*
G36*
X176000Y246379D02*
X169658Y240037D01*
X171947Y238716D01*
X174618Y238000D01*
X177382D01*
X180053Y238716D01*
X182342Y240037D01*
X176000Y246379D01*
D02*
G37*
G36*
X127995Y228000D02*
X126005D01*
X124168Y227239D01*
X122761Y225832D01*
X122689Y225657D01*
X93598D01*
X92428Y225424D01*
X91435Y224761D01*
X91435Y224761D01*
X63620Y196946D01*
X61620Y197774D01*
Y198398D01*
X60896Y201099D01*
X59551Y203430D01*
X52061Y195939D01*
X44570Y188449D01*
X46901Y187104D01*
X49602Y186380D01*
X50226D01*
X51054Y184380D01*
X50087Y183413D01*
X49424Y182421D01*
X49191Y181250D01*
X49191Y181250D01*
Y171512D01*
X48011Y170332D01*
X47250Y168495D01*
Y166505D01*
X47789Y165205D01*
X47113Y162953D01*
X46901Y162896D01*
X44570Y161551D01*
X51000Y155121D01*
X57429Y161551D01*
X56650Y162001D01*
X56321Y164500D01*
X56489Y164668D01*
X57250Y166505D01*
Y168495D01*
X56489Y170332D01*
X55309Y171512D01*
Y179983D01*
X94865Y219540D01*
X123389D01*
X124168Y218761D01*
X126005Y218000D01*
X127995D01*
X129832Y218761D01*
X131239Y220168D01*
X132000Y222005D01*
Y223995D01*
X131239Y225832D01*
X129832Y227239D01*
X127995Y228000D01*
D02*
G37*
G36*
X52398Y207620D02*
X49602D01*
X46901Y206896D01*
X44570Y205551D01*
X51000Y199121D01*
X57429Y205551D01*
X55099Y206896D01*
X52398Y207620D01*
D02*
G37*
G36*
X42449Y203430D02*
X41104Y201099D01*
X40380Y198398D01*
Y195602D01*
X41104Y192901D01*
X42449Y190571D01*
X48879Y197000D01*
X42449Y203430D01*
D02*
G37*
G36*
X59551Y159430D02*
X53121Y153000D01*
X59551Y146571D01*
X60896Y148901D01*
X61620Y151602D01*
Y154398D01*
X60896Y157099D01*
X59551Y159430D01*
D02*
G37*
G36*
X42449Y159430D02*
X41104Y157099D01*
X40380Y154398D01*
Y151602D01*
X41104Y148901D01*
X42449Y146571D01*
X48879Y153000D01*
X42449Y159430D01*
D02*
G37*
G36*
X51000Y150879D02*
X44570Y144449D01*
X46901Y143104D01*
X49602Y142380D01*
X52398D01*
X55099Y143104D01*
X57429Y144449D01*
X51000Y150879D01*
D02*
G37*
G36*
X469882Y120000D02*
X467118D01*
X464447Y119284D01*
X462158Y117963D01*
X468500Y111621D01*
X474842Y117963D01*
X472553Y119284D01*
X469882Y120000D01*
D02*
G37*
G36*
X368882D02*
X366118D01*
X363447Y119284D01*
X361158Y117963D01*
X367500Y111621D01*
X373842Y117963D01*
X371553Y119284D01*
X368882Y120000D01*
D02*
G37*
G36*
X476963Y115842D02*
X470621Y109500D01*
X476963Y103158D01*
X478284Y105447D01*
X479000Y108118D01*
Y110882D01*
X478284Y113553D01*
X476963Y115842D01*
D02*
G37*
G36*
X375963D02*
X369621Y109500D01*
X375963Y103158D01*
X377284Y105447D01*
X378000Y108118D01*
Y110882D01*
X377284Y113553D01*
X375963Y115842D01*
D02*
G37*
G36*
X460037Y115842D02*
X458716Y113553D01*
X458000Y110882D01*
Y108118D01*
X458716Y105447D01*
X460037Y103158D01*
X466379Y109500D01*
X460037Y115842D01*
D02*
G37*
G36*
X359037D02*
X357716Y113553D01*
X357000Y110882D01*
Y108118D01*
X357716Y105447D01*
X359037Y103158D01*
X365379Y109500D01*
X359037Y115842D01*
D02*
G37*
G36*
X404751Y119000D02*
X402249D01*
X399833Y118353D01*
X397667Y117102D01*
X395898Y115333D01*
X394647Y113167D01*
X394000Y110751D01*
Y108249D01*
X394647Y105833D01*
X395898Y103667D01*
X397667Y101898D01*
X399833Y100647D01*
X402249Y100000D01*
X404751D01*
X407167Y100647D01*
X409333Y101898D01*
X411102Y103667D01*
X412353Y105833D01*
X413000Y108249D01*
Y110751D01*
X412353Y113167D01*
X411102Y115333D01*
X409333Y117102D01*
X407167Y118353D01*
X404751Y119000D01*
D02*
G37*
G36*
X303751D02*
X301249D01*
X298833Y118353D01*
X296667Y117102D01*
X294898Y115333D01*
X293647Y113167D01*
X293000Y110751D01*
Y108249D01*
X293647Y105833D01*
X294898Y103667D01*
X296667Y101898D01*
X298833Y100647D01*
X301249Y100000D01*
X303751D01*
X306167Y100647D01*
X308333Y101898D01*
X310102Y103667D01*
X311353Y105833D01*
X312000Y108249D01*
Y110751D01*
X311353Y113167D01*
X310102Y115333D01*
X308333Y117102D01*
X306167Y118353D01*
X303751Y119000D01*
D02*
G37*
G36*
X468500Y107379D02*
X462158Y101037D01*
X464447Y99716D01*
X467118Y99000D01*
X469882D01*
X472553Y99716D01*
X474842Y101037D01*
X468500Y107379D01*
D02*
G37*
G36*
X367500D02*
X361158Y101037D01*
X363447Y99716D01*
X366118Y99000D01*
X368882D01*
X371553Y99716D01*
X373842Y101037D01*
X367500Y107379D01*
D02*
G37*
G36*
X15676Y101203D02*
X15135Y100662D01*
X12618Y96895D01*
X10884Y92709D01*
X10000Y88265D01*
Y83735D01*
X10884Y79291D01*
X12618Y75105D01*
X15135Y71338D01*
X15676Y70797D01*
X30879Y86000D01*
X15676Y101203D01*
D02*
G37*
G36*
X368882Y75000D02*
X366118D01*
X363447Y74284D01*
X361158Y72963D01*
X367500Y66621D01*
X373842Y72963D01*
X371553Y74284D01*
X368882Y75000D01*
D02*
G37*
G36*
X469882D02*
X467118D01*
X464447Y74284D01*
X462158Y72963D01*
X468500Y66621D01*
X474842Y72963D01*
X472553Y74284D01*
X469882Y75000D01*
D02*
G37*
G36*
X33000Y83879D02*
X17797Y68676D01*
X18338Y68135D01*
X22105Y65618D01*
X26291Y63884D01*
X30735Y63000D01*
X35265D01*
X39709Y63884D01*
X43895Y65618D01*
X47662Y68135D01*
X48203Y68676D01*
X33000Y83879D01*
D02*
G37*
G36*
X476963Y70842D02*
X470621Y64500D01*
X476963Y58158D01*
X478284Y60447D01*
X479000Y63118D01*
Y65882D01*
X478284Y68553D01*
X476963Y70842D01*
D02*
G37*
G36*
X375963D02*
X369621Y64500D01*
X375963Y58158D01*
X377284Y60447D01*
X378000Y63118D01*
Y65882D01*
X377284Y68553D01*
X375963Y70842D01*
D02*
G37*
G36*
X460037Y70842D02*
X458716Y68553D01*
X458000Y65882D01*
Y63118D01*
X458716Y60447D01*
X460037Y58158D01*
X466379Y64500D01*
X460037Y70842D01*
D02*
G37*
G36*
X359037D02*
X357716Y68553D01*
X357000Y65882D01*
Y63118D01*
X357716Y60447D01*
X359037Y58158D01*
X365379Y64500D01*
X359037Y70842D01*
D02*
G37*
G36*
X404751Y74000D02*
X402249D01*
X399833Y73353D01*
X397667Y72102D01*
X395898Y70333D01*
X394647Y68167D01*
X394000Y65751D01*
Y63249D01*
X394647Y60833D01*
X395898Y58667D01*
X397667Y56898D01*
X399833Y55647D01*
X402249Y55000D01*
X404751D01*
X407167Y55647D01*
X409333Y56898D01*
X411102Y58667D01*
X412353Y60833D01*
X413000Y63249D01*
Y65751D01*
X412353Y68167D01*
X411102Y70333D01*
X409333Y72102D01*
X407167Y73353D01*
X404751Y74000D01*
D02*
G37*
G36*
X303751D02*
X301249D01*
X298833Y73353D01*
X296667Y72102D01*
X294898Y70333D01*
X293647Y68167D01*
X293000Y65751D01*
Y63249D01*
X293647Y60833D01*
X294898Y58667D01*
X296667Y56898D01*
X298833Y55647D01*
X301249Y55000D01*
X303751D01*
X306167Y55647D01*
X308333Y56898D01*
X310102Y58667D01*
X311353Y60833D01*
X312000Y63249D01*
Y65751D01*
X311353Y68167D01*
X310102Y70333D01*
X308333Y72102D01*
X306167Y73353D01*
X303751Y74000D01*
D02*
G37*
G36*
X468500Y62379D02*
X462158Y56037D01*
X464447Y54716D01*
X467118Y54000D01*
X469882D01*
X472553Y54716D01*
X474842Y56037D01*
X468500Y62379D01*
D02*
G37*
G36*
X367500D02*
X361158Y56037D01*
X363447Y54716D01*
X366118Y54000D01*
X368882D01*
X371553Y54716D01*
X373842Y56037D01*
X367500Y62379D01*
D02*
G37*
G36*
X519085Y71563D02*
X510121Y62600D01*
X519085Y53637D01*
X519344Y53896D01*
X521210Y57128D01*
X522176Y60734D01*
Y64466D01*
X521210Y68072D01*
X519344Y71304D01*
X519085Y71563D01*
D02*
G37*
G36*
X496915Y71563D02*
X496656Y71304D01*
X494790Y68072D01*
X493824Y64466D01*
Y60734D01*
X494790Y57128D01*
X496656Y53896D01*
X496915Y53637D01*
X505879Y62600D01*
X496915Y71563D01*
D02*
G37*
G36*
X508000Y60479D02*
X499037Y51515D01*
X499296Y51256D01*
X502528Y49390D01*
X506134Y48424D01*
X509866D01*
X513472Y49390D01*
X516704Y51256D01*
X516963Y51515D01*
X508000Y60479D01*
D02*
G37*
G36*
X189200Y51667D02*
Y36300D01*
X195265D01*
Y44300D01*
X195007Y46258D01*
X194251Y48082D01*
X193049Y49649D01*
X191482Y50851D01*
X189658Y51607D01*
X189200Y51667D01*
D02*
G37*
G36*
X186200D02*
X185742Y51607D01*
X183918Y50851D01*
X182351Y49649D01*
X181149Y48082D01*
X180393Y46258D01*
X180135Y44300D01*
Y36300D01*
X186200D01*
Y51667D01*
D02*
G37*
G36*
X468135Y38176D02*
X464665D01*
X461314Y37278D01*
X458310Y35543D01*
X455857Y33090D01*
X454855Y31355D01*
X452545D01*
X451543Y33090D01*
X449090Y35543D01*
X446086Y37278D01*
X442735Y38176D01*
X439265D01*
X435914Y37278D01*
X432910Y35543D01*
X430457Y33090D01*
X429455Y31355D01*
X427145D01*
X426143Y33090D01*
X423690Y35543D01*
X420686Y37278D01*
X417335Y38176D01*
X413865D01*
X410514Y37278D01*
X407510Y35543D01*
X405057Y33090D01*
X404055Y31355D01*
X401745D01*
X400743Y33090D01*
X398290Y35543D01*
X395286Y37278D01*
X391935Y38176D01*
X388465D01*
X385114Y37278D01*
X382110Y35543D01*
X379657Y33090D01*
X378655Y31355D01*
X376345D01*
X375343Y33090D01*
X372890Y35543D01*
X369886Y37278D01*
X366535Y38176D01*
X363065D01*
X359714Y37278D01*
X356710Y35543D01*
X354257Y33090D01*
X352522Y30086D01*
X351624Y26735D01*
Y23265D01*
X352522Y19914D01*
X354257Y16910D01*
X356710Y14457D01*
X359714Y12722D01*
X363065Y11824D01*
X366535D01*
X369886Y12722D01*
X372890Y14457D01*
X375343Y16910D01*
X376345Y18645D01*
X378655D01*
X379657Y16910D01*
X382110Y14457D01*
X385114Y12722D01*
X388465Y11824D01*
X391935D01*
X395286Y12722D01*
X398290Y14457D01*
X400743Y16910D01*
X401745Y18645D01*
X404055D01*
X405057Y16910D01*
X407510Y14457D01*
X410514Y12722D01*
X413865Y11824D01*
X417335D01*
X420686Y12722D01*
X423690Y14457D01*
X426143Y16910D01*
X427145Y18645D01*
X429455D01*
X430457Y16910D01*
X432910Y14457D01*
X435914Y12722D01*
X439265Y11824D01*
X442735D01*
X446086Y12722D01*
X449090Y14457D01*
X451543Y16910D01*
X452545Y18645D01*
X454855D01*
X455857Y16910D01*
X458310Y14457D01*
X461314Y12722D01*
X464665Y11824D01*
X468135D01*
X471486Y12722D01*
X474490Y14457D01*
X476943Y16910D01*
X477368Y17645D01*
X479677D01*
X480456Y16296D01*
X480715Y16037D01*
X489679Y25000D01*
X480715Y33963D01*
X480456Y33704D01*
X479677Y32355D01*
X477368D01*
X476943Y33090D01*
X474490Y35543D01*
X471486Y37278D01*
X468135Y38176D01*
D02*
G37*
G36*
X493666Y39176D02*
X489934D01*
X486328Y38210D01*
X483096Y36344D01*
X482837Y36085D01*
X491800Y27121D01*
X500763Y36085D01*
X500504Y36344D01*
X497272Y38210D01*
X493666Y39176D01*
D02*
G37*
G36*
X195265Y33300D02*
X189200D01*
Y17933D01*
X189658Y17993D01*
X191482Y18749D01*
X193049Y19951D01*
X194251Y21518D01*
X195007Y23342D01*
X195265Y25300D01*
Y33300D01*
D02*
G37*
G36*
X186200D02*
X180135D01*
Y25300D01*
X180393Y23342D01*
X181149Y21518D01*
X182351Y19951D01*
X183918Y18749D01*
X185742Y17993D01*
X186200Y17933D01*
Y33300D01*
D02*
G37*
G36*
X502885Y33963D02*
X493921Y25000D01*
X502885Y16037D01*
X503144Y16296D01*
X505010Y19528D01*
X505976Y23134D01*
Y26866D01*
X505010Y30472D01*
X503144Y33704D01*
X502885Y33963D01*
D02*
G37*
G36*
X35167Y55000D02*
X30833D01*
X26583Y54155D01*
X22579Y52496D01*
X18976Y50089D01*
X15912Y47024D01*
X13504Y43421D01*
X11846Y39417D01*
X11000Y35167D01*
Y30833D01*
X11846Y26583D01*
X13504Y22579D01*
X15912Y18976D01*
X18976Y15912D01*
X22579Y13504D01*
X26583Y11846D01*
X30833Y11000D01*
X35167D01*
X39417Y11846D01*
X43421Y13504D01*
X47024Y15912D01*
X50089Y18976D01*
X52496Y22579D01*
X54155Y26583D01*
X55000Y30833D01*
Y35167D01*
X54155Y39417D01*
X52496Y43421D01*
X50089Y47024D01*
X47024Y50089D01*
X43421Y52496D01*
X39417Y54155D01*
X35167Y55000D01*
D02*
G37*
G36*
X491800Y22879D02*
X482837Y13915D01*
X483096Y13656D01*
X486328Y11790D01*
X489934Y10824D01*
X493666D01*
X497272Y11790D01*
X500504Y13656D01*
X500763Y13915D01*
X491800Y22879D01*
D02*
G37*
%LPD*%
G36*
X246941Y237218D02*
Y228344D01*
X246688Y228239D01*
X245282Y226832D01*
X244520Y224995D01*
Y224971D01*
X244378Y224558D01*
X244302Y224472D01*
X243223Y224426D01*
X242000Y224995D01*
X241239Y226832D01*
X239832Y228239D01*
X237995Y229000D01*
X236005D01*
X234168Y228239D01*
X232761Y226832D01*
X232000Y224995D01*
Y223005D01*
X232761Y221168D01*
X233941Y219988D01*
Y216515D01*
X233941Y216515D01*
X234174Y215344D01*
X234837Y214352D01*
X239352Y209837D01*
X239352Y209837D01*
X240344Y209174D01*
X240604Y209123D01*
X241754Y208061D01*
X242059Y206941D01*
X242066Y206908D01*
X242061Y206874D01*
X242143Y206518D01*
X242215Y206161D01*
X242612Y205201D01*
Y204023D01*
X242116Y202825D01*
X241961Y202045D01*
Y183039D01*
X224303D01*
X223934Y182966D01*
X222328D01*
X221960Y183039D01*
X206078D01*
Y242007D01*
X206239Y242168D01*
X207000Y244005D01*
Y245995D01*
X206239Y247832D01*
X204832Y249239D01*
X204438Y249402D01*
X204599Y251500D01*
X205832Y252011D01*
X207239Y253418D01*
X208000Y255255D01*
Y257245D01*
X207239Y259082D01*
X208208Y260941D01*
X223218D01*
X246941Y237218D01*
D02*
G37*
G36*
X403424Y209907D02*
X402659Y208059D01*
X336267D01*
X315630Y228696D01*
X316000Y230078D01*
Y231922D01*
X315523Y233702D01*
X314807Y234941D01*
X315230Y236169D01*
X315787Y236941D01*
X376390D01*
X403424Y209907D01*
D02*
G37*
G36*
X253000Y208941D02*
X255000Y208098D01*
Y184275D01*
X254608Y183329D01*
Y181339D01*
X255000Y180393D01*
Y170000D01*
X213000D01*
Y132000D01*
X198059D01*
Y170000D01*
Y181000D01*
X221960D01*
X222137Y180927D01*
X224126D01*
X224303Y181000D01*
X244000D01*
Y202045D01*
X244651Y203617D01*
Y205607D01*
X244099Y206941D01*
X244851Y208941D01*
X253000D01*
X253000Y208941D01*
D02*
G37*
G36*
X516765Y149909D02*
X516700Y149544D01*
X515846Y148000D01*
X514578D01*
X512798Y147523D01*
X511202Y146601D01*
X509899Y145298D01*
X508977Y143702D01*
X508810Y143079D01*
X506580Y142481D01*
X491648Y157413D01*
X490656Y158076D01*
X489485Y158309D01*
X489485Y158309D01*
X458017D01*
X418232Y198093D01*
X418998Y199941D01*
X466733D01*
X516765Y149909D01*
D02*
G37*
D10*
X118500Y342250D02*
X118750Y342000D01*
X153000D01*
X179000Y368000D02*
X188000D01*
X153000Y342000D02*
X179000Y368000D01*
X82750Y312000D02*
X91000D01*
X82000Y311250D02*
X82750Y312000D01*
X26250Y311250D02*
X82000D01*
X515500Y141000D02*
X530000D01*
X20000Y207993D02*
X45757Y233750D01*
X96250D02*
X111000Y248500D01*
X45757Y233750D02*
X96250D01*
X20000Y132472D02*
Y207993D01*
Y132472D02*
X117672Y34800D01*
X136900D01*
X205750Y134750D02*
X238500Y102000D01*
Y34800D02*
Y102000D01*
X205000Y144000D02*
X205812D01*
X207062Y145250D01*
X236000D01*
D11*
X234500Y330000D02*
X255401Y309098D01*
X233000Y337500D02*
X256250Y314250D01*
X263000Y314250D01*
X233000Y337500D02*
Y358500D01*
X255401Y308310D02*
Y309098D01*
X195000Y249332D02*
X201918Y256250D01*
X203000D01*
X183000Y315000D02*
X207500D01*
X217531Y325031D02*
X218031D01*
X176000Y322000D02*
X183000Y315000D01*
X207500D02*
X217531Y325031D01*
X250000Y224480D02*
Y238485D01*
X249520Y224000D02*
X250000Y224480D01*
X224485Y264000D02*
X250000Y238485D01*
X241515Y212000D02*
X253000D01*
X468000Y203000D02*
X530000Y141000D01*
X237000Y216515D02*
X241515Y212000D01*
X244000Y218000D02*
X253000D01*
Y212000D02*
X281000Y240000D01*
X253000Y218000D02*
X279000Y244000D01*
X276526Y223974D02*
Y224026D01*
X165000Y340000D02*
X193000D01*
X211500Y358500D01*
X52250Y181250D02*
X93598Y222598D01*
X52250Y167500D02*
Y181250D01*
X93598Y222598D02*
X126598D01*
X211500Y358500D02*
X233000D01*
X404343Y201000D02*
X456343Y149000D01*
X489000D01*
X309000Y201000D02*
X404343D01*
X414314Y209000D02*
X470485D01*
X536000Y143485D01*
X379314Y244000D02*
X414314Y209000D01*
X414657Y203000D02*
X468000D01*
X377657Y240000D02*
X414657Y203000D01*
X279000Y244000D02*
X379314D01*
X281000Y240000D02*
X377657D01*
X309000Y231000D02*
X335000Y205000D01*
X407000D02*
X456750Y155250D01*
X335000Y205000D02*
X407000D01*
X489000Y149000D02*
X508000Y130000D01*
X456750Y155250D02*
X489485D01*
X524000Y120735D01*
X508000Y113400D02*
Y130000D01*
X510982Y88000D02*
X524000Y101018D01*
Y120735D01*
X508000Y88000D02*
X510982D01*
X536000Y78000D02*
Y143485D01*
X529000Y71000D02*
X551000D01*
X195000Y90800D02*
Y249332D01*
X83500Y254500D02*
X93000Y264000D01*
X224485D01*
X126598Y222598D02*
X127000Y223000D01*
X189000Y99400D02*
Y227750D01*
X213100Y63200D02*
Y72700D01*
X195000Y90800D02*
X213100Y72700D01*
X162300D02*
X189000Y99400D01*
X162300Y63200D02*
Y72700D01*
X223000Y330000D02*
X234500D01*
X218236Y325236D02*
X223000Y330000D01*
X276526Y223974D02*
X287759Y212741D01*
X285500Y224000D02*
X302000D01*
X287759Y212741D02*
X297259D01*
X302000Y224000D02*
X309000Y231000D01*
X297259Y212741D02*
X309000Y201000D01*
X529000Y71000D02*
X536000Y78000D01*
X237000Y216515D02*
Y224000D01*
D78*
X169500Y145500D02*
X169691Y145691D01*
X180691D01*
X181000Y146000D01*
D80*
X73500Y336500D02*
X86923D01*
X227774Y292000D02*
X292000D01*
X86923Y336500D02*
X115423Y308000D01*
X214173D02*
X227173Y321000D01*
X292000Y292077D02*
X305923Y306000D01*
X115423Y308000D02*
X214173D01*
X305923Y306000D02*
X342000D01*
X197000Y270077D02*
X201423Y274500D01*
X227111Y270027D02*
X227173Y270089D01*
X214423Y274500D02*
X218895Y270027D01*
X227111D02*
X289492D01*
X227173Y291399D02*
X227774Y292000D01*
X201423Y274500D02*
X214423D01*
X227173Y270089D02*
Y291399D01*
X218895Y270027D02*
X227111D01*
X227173Y291399D02*
Y320923D01*
X201250Y179491D02*
X202000Y180241D01*
Y245000D01*
D82*
X88000Y368000D02*
D03*
X188000D02*
D03*
X33000Y33000D02*
D03*
X32000Y261000D02*
D03*
Y311000D02*
D03*
Y361000D02*
D03*
X138000Y368000D02*
D03*
X33000Y86000D02*
D03*
D83*
X508000Y62600D02*
D03*
Y88000D02*
D03*
Y113400D02*
D03*
X364800Y25000D02*
D03*
X390200D02*
D03*
X415600D02*
D03*
X441000D02*
D03*
X466400D02*
D03*
X491800D02*
D03*
D84*
X468500Y64500D02*
D03*
Y109500D02*
D03*
X403500Y64500D02*
D03*
Y109500D02*
D03*
X302500D02*
D03*
Y64500D02*
D03*
X367500Y109500D02*
D03*
Y64500D02*
D03*
X111000Y293500D02*
D03*
Y248500D02*
D03*
X176000Y293500D02*
D03*
Y248500D02*
D03*
D85*
X51000Y197000D02*
D03*
Y153000D02*
D03*
D86*
X312250Y333500D02*
D03*
X305250Y340500D02*
D03*
X296500D02*
D03*
X286500D02*
D03*
X276750D02*
D03*
X270250Y321000D02*
D03*
X118500Y342250D02*
D03*
X255401Y308310D02*
D03*
X256993Y321993D02*
D03*
X256000Y336000D02*
D03*
X203000Y256250D02*
D03*
X249520Y224000D02*
D03*
X244000Y218000D02*
D03*
X276526Y224026D02*
D03*
X275750Y208000D02*
D03*
X95000Y70000D02*
D03*
X515000Y12000D02*
D03*
X537000D02*
D03*
X588000D02*
D03*
X589000Y117000D02*
D03*
X338000Y12000D02*
D03*
X318000D02*
D03*
X295000D02*
D03*
X11000Y66000D02*
D03*
Y109000D02*
D03*
Y152000D02*
D03*
Y176000D02*
D03*
X11250Y200250D02*
D03*
X11500Y240000D02*
D03*
X11250Y286250D02*
D03*
X12000Y336500D02*
D03*
X12250Y388250D02*
D03*
X58750Y388500D02*
D03*
X208868Y347382D02*
D03*
X397000Y50000D02*
D03*
X457000Y89250D02*
D03*
Y169250D02*
D03*
Y129250D02*
D03*
X467000Y143000D02*
D03*
X486515D02*
D03*
X507000Y149250D02*
D03*
X467000Y309250D02*
D03*
X447000D02*
D03*
X587000Y269250D02*
D03*
Y229250D02*
D03*
Y189250D02*
D03*
X577000Y249250D02*
D03*
Y209250D02*
D03*
X567000Y189250D02*
D03*
X577000Y49250D02*
D03*
X547000Y189250D02*
D03*
X557000Y169250D02*
D03*
X547000Y149250D02*
D03*
Y109250D02*
D03*
X557000Y89250D02*
D03*
Y49250D02*
D03*
X547000Y29250D02*
D03*
X527000Y189250D02*
D03*
X537000Y169250D02*
D03*
Y49250D02*
D03*
X527000Y29250D02*
D03*
X507000Y189250D02*
D03*
X497000Y209250D02*
D03*
X487000Y109250D02*
D03*
Y69250D02*
D03*
X467000Y389250D02*
D03*
Y269250D02*
D03*
Y189250D02*
D03*
X477000Y169250D02*
D03*
Y129250D02*
D03*
Y89250D02*
D03*
Y49250D02*
D03*
X447000Y389250D02*
D03*
X457000Y369250D02*
D03*
Y289250D02*
D03*
X447000Y269250D02*
D03*
X427000Y389250D02*
D03*
X437000Y369250D02*
D03*
Y289250D02*
D03*
X407000Y389250D02*
D03*
X417000Y369250D02*
D03*
Y89250D02*
D03*
X387000Y389250D02*
D03*
X397000Y369250D02*
D03*
X387000Y349250D02*
D03*
X367000Y389250D02*
D03*
X377000Y369250D02*
D03*
X367000Y349250D02*
D03*
X377000Y329250D02*
D03*
X367000Y309250D02*
D03*
X377000Y89250D02*
D03*
Y49250D02*
D03*
X347000Y389250D02*
D03*
X357000Y369250D02*
D03*
X347000Y349250D02*
D03*
X357000Y329250D02*
D03*
X347000Y109250D02*
D03*
X357000Y89250D02*
D03*
X347000Y69250D02*
D03*
X357000Y49250D02*
D03*
X347000Y29250D02*
D03*
X327000Y389250D02*
D03*
X337000Y369250D02*
D03*
X327000Y349250D02*
D03*
Y109250D02*
D03*
X337000Y89250D02*
D03*
X327000Y69250D02*
D03*
X337000Y49250D02*
D03*
X327000Y29250D02*
D03*
X307000Y389250D02*
D03*
X317000Y369250D02*
D03*
X307000Y349250D02*
D03*
X317000Y89250D02*
D03*
Y49250D02*
D03*
X307000Y29250D02*
D03*
X287000Y389250D02*
D03*
X297000Y369250D02*
D03*
X287000Y349250D02*
D03*
Y309250D02*
D03*
X297000Y49250D02*
D03*
X287000Y29250D02*
D03*
X267000Y389250D02*
D03*
X277000Y129250D02*
D03*
X267000Y109250D02*
D03*
X247000Y389250D02*
D03*
Y349250D02*
D03*
X257000Y129250D02*
D03*
X207000Y389250D02*
D03*
X167000Y229250D02*
D03*
X177000Y209250D02*
D03*
X167000Y189250D02*
D03*
X177000Y169250D02*
D03*
X157000Y289250D02*
D03*
Y169250D02*
D03*
X137000Y249250D02*
D03*
Y169250D02*
D03*
X127000Y109250D02*
D03*
X137000Y89250D02*
D03*
X127000Y69250D02*
D03*
X107000Y229250D02*
D03*
X117000Y129250D02*
D03*
X107000Y109250D02*
D03*
X117000Y89250D02*
D03*
X97000Y209250D02*
D03*
Y129250D02*
D03*
X87000Y109250D02*
D03*
X97000Y89250D02*
D03*
X67000Y269250D02*
D03*
Y109250D02*
D03*
X77000Y89250D02*
D03*
X67000Y69250D02*
D03*
X57000Y249250D02*
D03*
X37000Y209250D02*
D03*
X27000Y189250D02*
D03*
X37000Y129250D02*
D03*
X95000Y159000D02*
D03*
X198500Y336000D02*
D03*
X91000Y312000D02*
D03*
X151000Y329000D02*
D03*
X405000Y165000D02*
D03*
Y175000D02*
D03*
X388257Y193257D02*
D03*
X379000Y194000D02*
D03*
X405000Y185000D02*
D03*
X398429Y193429D02*
D03*
X325000Y232500D02*
D03*
X340000D02*
D03*
X355000D02*
D03*
X370000D02*
D03*
X400846Y240539D02*
D03*
X485000Y280000D02*
D03*
X565000D02*
D03*
X545000D02*
D03*
X525000D02*
D03*
X505000D02*
D03*
X112500Y388750D02*
D03*
X162500D02*
D03*
X279000Y360500D02*
D03*
X202000Y245000D02*
D03*
X230000Y250000D02*
D03*
X52250Y167500D02*
D03*
X189000Y227750D02*
D03*
X242250Y284500D02*
D03*
Y277250D02*
D03*
X271000Y284750D02*
D03*
X271250Y277250D02*
D03*
X305476Y293911D02*
D03*
X270632Y330368D02*
D03*
X264000Y341000D02*
D03*
X263000Y314250D02*
D03*
X285500Y224000D02*
D03*
X333563Y133510D02*
D03*
X323596Y134251D02*
D03*
X343525Y134301D02*
D03*
X345473Y192384D02*
D03*
X68500Y243500D02*
D03*
X73500Y336500D02*
D03*
X197000Y270000D02*
D03*
X227250Y321000D02*
D03*
X127000Y223000D02*
D03*
X289492Y270027D02*
D03*
X83500Y254500D02*
D03*
X216349Y223716D02*
D03*
X165000Y340000D02*
D03*
X176000Y322000D02*
D03*
X237000Y224000D02*
D03*
X398063Y334318D02*
D03*
X529000Y71000D02*
D03*
X530000Y141000D02*
D03*
X198500Y321000D02*
D03*
X279000Y376000D02*
D03*
X240227Y307500D02*
D03*
X250000Y203000D02*
D03*
X205000Y144000D02*
D03*
Y161000D02*
D03*
X403000Y135000D02*
D03*
X405000Y145000D02*
D03*
Y155000D02*
D03*
X393000Y135000D02*
D03*
X383000D02*
D03*
X358000Y192000D02*
D03*
X373000Y135000D02*
D03*
X369000Y193000D02*
D03*
X318410Y187572D02*
D03*
X325716Y194400D02*
D03*
X335715Y194569D02*
D03*
X287504Y146929D02*
D03*
X267799D02*
D03*
X269538Y181151D02*
D03*
X276000Y196000D02*
D03*
X289369Y181955D02*
D03*
X306670Y142931D02*
D03*
X296670D02*
D03*
X299143Y184069D02*
D03*
X309140Y183820D02*
D03*
X268500Y250000D02*
D03*
X248250D02*
D03*
X298000Y309000D02*
D03*
X342000Y306000D02*
D03*
X292000Y292000D02*
D03*
X587000Y298000D02*
D03*
X577000D02*
D03*
X567000D02*
D03*
X557000D02*
D03*
X547000D02*
D03*
X537000D02*
D03*
X527000D02*
D03*
X517000D02*
D03*
X507000D02*
D03*
X497000D02*
D03*
X487000D02*
D03*
X476000Y310000D02*
D03*
Y320000D02*
D03*
X476229Y365003D02*
D03*
X476000Y375000D02*
D03*
Y385000D02*
D03*
X524000Y266000D02*
D03*
X534000D02*
D03*
X544000D02*
D03*
X555000D02*
D03*
X562000Y254000D02*
D03*
Y240000D02*
D03*
Y225000D02*
D03*
X555000Y215000D02*
D03*
X544000D02*
D03*
X534000D02*
D03*
X524000D02*
D03*
X496000Y221000D02*
D03*
X486000D02*
D03*
X438000Y222000D02*
D03*
X340000Y259000D02*
D03*
X476128Y355571D02*
D03*
X469128Y355571D02*
D03*
X459128D02*
D03*
X449130Y355342D02*
D03*
X439133Y355571D02*
D03*
X429138Y355259D02*
D03*
X419202Y354131D02*
D03*
X410122Y349939D02*
D03*
X402808Y343120D02*
D03*
X396337Y324468D02*
D03*
X396212Y314469D02*
D03*
X390917Y305985D02*
D03*
X383846Y298914D02*
D03*
X375234Y293831D02*
D03*
X365299Y292690D02*
D03*
X355374Y293911D02*
D03*
X345374D02*
D03*
X335374D02*
D03*
X325374D02*
D03*
X315425Y292905D02*
D03*
X309877Y262589D02*
D03*
X319869Y262971D02*
D03*
X329862Y262589D02*
D03*
X349862D02*
D03*
X359847Y263141D02*
D03*
X369835Y262663D02*
D03*
X379808Y261923D02*
D03*
X386704Y254681D02*
D03*
X393775Y247610D02*
D03*
X408240Y233806D02*
D03*
X416940Y228877D02*
D03*
X426569Y226176D02*
D03*
X446562Y225669D02*
D03*
X456562D02*
D03*
X466553Y226085D02*
D03*
X476545Y225669D02*
D03*
X506544D02*
D03*
X516544D02*
D03*
X518253Y256991D02*
D03*
X508253D02*
D03*
X498253D02*
D03*
X488253D02*
D03*
X478253D02*
D03*
X468290Y256131D02*
D03*
X458327Y256991D02*
D03*
X448327D02*
D03*
X438327D02*
D03*
X428388Y258094D02*
D03*
X420928Y264753D02*
D03*
X413857Y271824D02*
D03*
X410456Y281228D02*
D03*
X417433Y288392D02*
D03*
X423060Y296658D02*
D03*
X426521Y306041D02*
D03*
X427661Y315975D02*
D03*
X443278Y324249D02*
D03*
X453263Y324791D02*
D03*
X463248Y324249D02*
D03*
X363000Y135000D02*
D03*
X353000D02*
D03*
X216349Y213716D02*
D03*
Y203716D02*
D03*
X216878Y193730D02*
D03*
X223131Y185927D02*
D03*
X258487Y150571D02*
D03*
X316543Y141340D02*
D03*
X259608Y182334D02*
D03*
X239651Y204612D02*
D03*
X169500Y145500D02*
D03*
X246000Y121000D02*
D03*
X163500Y136000D02*
D03*
X331000Y326000D02*
D03*
X318500D02*
D03*
X181000Y11000D02*
D03*
Y21000D02*
D03*
Y31000D02*
D03*
Y41000D02*
D03*
X156000Y91000D02*
D03*
X151000Y103500D02*
D03*
Y123500D02*
D03*
X246000Y98500D02*
D03*
Y108500D02*
D03*
X251500Y157000D02*
D03*
X246000Y164000D02*
D03*
D87*
X238500Y34800D02*
D03*
X213100Y63200D02*
D03*
X187700Y34800D02*
D03*
X162300Y63200D02*
D03*
X136900Y34800D02*
D03*
X111500Y63200D02*
D03*
D88*
X515500Y141000D02*
D03*
X551000Y71000D02*
D03*
X181000Y146000D02*
D03*
X236000Y145250D02*
D03*
X309000Y231000D02*
D03*
Y201000D02*
D03*
X233000Y359000D02*
D03*
X216000Y323500D02*
D03*
M02*
