G04*
G04 #@! TF.GenerationSoftware,Altium Limited,Altium Designer,24.3.1 (35)*
G04*
G04 Layer_Color=32896*
%FSLAX44Y44*%
%MOMM*%
G71*
G04*
G04 #@! TF.SameCoordinates,38141354-897C-45D8-9E35-29A2EA6338F9*
G04*
G04*
G04 #@! TF.FilePolarity,Positive*
G04*
G01*
G75*
%ADD11C,0.2000*%
%ADD15C,0.2540*%
G36*
X547276Y90970D02*
X547600Y90910D01*
X547877Y90814D01*
X548117Y90718D01*
X548225Y90658D01*
X548309Y90610D01*
X548393Y90562D01*
X548453Y90513D01*
X548501Y90477D01*
X548537Y90453D01*
X548561Y90441D01*
X548573Y90429D01*
X548802Y90201D01*
X548982Y89949D01*
X549126Y89684D01*
X549246Y89420D01*
X549318Y89192D01*
X549354Y89096D01*
X549378Y89012D01*
X549390Y88940D01*
X549402Y88891D01*
X549414Y88855D01*
Y88843D01*
X548393Y88663D01*
X548345Y88928D01*
X548273Y89156D01*
X548189Y89348D01*
X548105Y89504D01*
X548021Y89624D01*
X547949Y89708D01*
X547901Y89769D01*
X547889Y89781D01*
X547733Y89901D01*
X547564Y89997D01*
X547408Y90057D01*
X547252Y90105D01*
X547108Y90129D01*
X547000Y90153D01*
X546903D01*
X546687Y90141D01*
X546495Y90093D01*
X546327Y90033D01*
X546183Y89973D01*
X546074Y89901D01*
X545990Y89841D01*
X545930Y89793D01*
X545918Y89781D01*
X545786Y89636D01*
X545690Y89480D01*
X545630Y89324D01*
X545582Y89180D01*
X545558Y89048D01*
X545534Y88952D01*
Y88879D01*
Y88868D01*
Y88855D01*
Y88723D01*
X545558Y88603D01*
X545618Y88399D01*
X545702Y88219D01*
X545798Y88063D01*
X545894Y87954D01*
X545978Y87870D01*
X546039Y87822D01*
X546050Y87810D01*
X546063D01*
X546267Y87702D01*
X546459Y87618D01*
X546663Y87558D01*
X546843Y87522D01*
X547000Y87498D01*
X547132Y87474D01*
X547288D01*
X547336Y87486D01*
X547396D01*
X547516Y86585D01*
X547360Y86621D01*
X547216Y86645D01*
X547096Y86669D01*
X546988Y86681D01*
X546903Y86693D01*
X546795D01*
X546543Y86669D01*
X546315Y86621D01*
X546110Y86549D01*
X545942Y86465D01*
X545810Y86381D01*
X545714Y86308D01*
X545654Y86260D01*
X545630Y86236D01*
X545474Y86056D01*
X545354Y85864D01*
X545270Y85672D01*
X545221Y85479D01*
X545185Y85323D01*
X545173Y85191D01*
X545161Y85143D01*
Y85107D01*
Y85083D01*
Y85071D01*
X545185Y84807D01*
X545246Y84566D01*
X545318Y84362D01*
X545414Y84182D01*
X545510Y84038D01*
X545582Y83930D01*
X545642Y83858D01*
X545666Y83834D01*
X545858Y83665D01*
X546063Y83545D01*
X546267Y83461D01*
X546459Y83401D01*
X546627Y83365D01*
X546759Y83353D01*
X546807Y83341D01*
X546879D01*
X547096Y83353D01*
X547300Y83401D01*
X547480Y83461D01*
X547624Y83533D01*
X547744Y83593D01*
X547841Y83653D01*
X547889Y83701D01*
X547913Y83713D01*
X548057Y83882D01*
X548177Y84074D01*
X548285Y84278D01*
X548369Y84494D01*
X548429Y84675D01*
X548453Y84759D01*
X548465Y84831D01*
X548477Y84891D01*
X548489Y84939D01*
X548501Y84963D01*
Y84975D01*
X549523Y84843D01*
X549498Y84650D01*
X549463Y84470D01*
X549354Y84134D01*
X549222Y83846D01*
X549150Y83725D01*
X549078Y83605D01*
X549006Y83497D01*
X548934Y83413D01*
X548874Y83329D01*
X548814Y83269D01*
X548778Y83221D01*
X548742Y83185D01*
X548718Y83161D01*
X548706Y83149D01*
X548561Y83041D01*
X548417Y82933D01*
X548273Y82848D01*
X548117Y82776D01*
X547817Y82656D01*
X547528Y82584D01*
X547396Y82560D01*
X547276Y82536D01*
X547168Y82524D01*
X547072Y82512D01*
X547000Y82500D01*
X546892D01*
X546663Y82512D01*
X546459Y82536D01*
X546255Y82572D01*
X546063Y82620D01*
X545882Y82680D01*
X545726Y82740D01*
X545570Y82812D01*
X545438Y82884D01*
X545306Y82944D01*
X545197Y83017D01*
X545101Y83077D01*
X545029Y83137D01*
X544969Y83185D01*
X544921Y83221D01*
X544897Y83245D01*
X544885Y83257D01*
X544741Y83401D01*
X544621Y83557D01*
X544513Y83713D01*
X544417Y83870D01*
X544344Y84014D01*
X544272Y84170D01*
X544176Y84458D01*
X544152Y84591D01*
X544128Y84711D01*
X544104Y84819D01*
X544092Y84915D01*
X544080Y84987D01*
Y85047D01*
Y85083D01*
Y85095D01*
X544092Y85383D01*
X544140Y85648D01*
X544212Y85876D01*
X544284Y86068D01*
X544356Y86224D01*
X544429Y86344D01*
X544477Y86417D01*
X544489Y86441D01*
X544657Y86621D01*
X544837Y86777D01*
X545029Y86897D01*
X545221Y86993D01*
X545390Y87065D01*
X545522Y87113D01*
X545570Y87126D01*
X545606Y87137D01*
X545630Y87149D01*
X545642D01*
X545438Y87258D01*
X545270Y87366D01*
X545125Y87486D01*
X545005Y87594D01*
X544909Y87690D01*
X544837Y87774D01*
X544801Y87822D01*
X544789Y87846D01*
X544693Y88014D01*
X544621Y88183D01*
X544561Y88351D01*
X544525Y88507D01*
X544501Y88639D01*
X544489Y88735D01*
Y88807D01*
Y88832D01*
X544501Y89036D01*
X544537Y89240D01*
X544585Y89420D01*
X544645Y89576D01*
X544705Y89708D01*
X544753Y89817D01*
X544789Y89877D01*
X544801Y89901D01*
X544921Y90081D01*
X545065Y90237D01*
X545210Y90369D01*
X545354Y90489D01*
X545474Y90574D01*
X545582Y90646D01*
X545654Y90682D01*
X545666Y90694D01*
X545678D01*
X545894Y90790D01*
X546110Y90862D01*
X546327Y90922D01*
X546519Y90958D01*
X546675Y90982D01*
X546807Y90994D01*
X547108D01*
X547276Y90970D01*
D02*
G37*
G36*
X557500Y82644D02*
X554509D01*
X554232Y82656D01*
X553980Y82668D01*
X553752Y82692D01*
X553559Y82716D01*
X553391Y82740D01*
X553271Y82752D01*
X553235Y82764D01*
X553199Y82776D01*
X553175D01*
X552959Y82836D01*
X552766Y82908D01*
X552598Y82969D01*
X552454Y83041D01*
X552334Y83101D01*
X552250Y83149D01*
X552202Y83185D01*
X552178Y83197D01*
X552021Y83305D01*
X551889Y83437D01*
X551757Y83557D01*
X551649Y83677D01*
X551553Y83785D01*
X551481Y83870D01*
X551433Y83930D01*
X551421Y83954D01*
X551301Y84146D01*
X551180Y84350D01*
X551084Y84542D01*
X551012Y84735D01*
X550940Y84903D01*
X550892Y85035D01*
X550880Y85083D01*
X550868Y85119D01*
X550856Y85143D01*
Y85155D01*
X550784Y85443D01*
X550724Y85732D01*
X550688Y86008D01*
X550652Y86272D01*
X550640Y86501D01*
Y86597D01*
X550628Y86681D01*
Y86741D01*
Y86801D01*
Y86825D01*
Y86837D01*
X550640Y87246D01*
X550676Y87618D01*
X550736Y87954D01*
X550760Y88111D01*
X550796Y88243D01*
X550832Y88375D01*
X550856Y88483D01*
X550880Y88579D01*
X550916Y88663D01*
X550928Y88735D01*
X550952Y88783D01*
X550964Y88807D01*
Y88820D01*
X551096Y89132D01*
X551253Y89408D01*
X551421Y89648D01*
X551577Y89853D01*
X551721Y90021D01*
X551841Y90141D01*
X551889Y90177D01*
X551925Y90213D01*
X551937Y90225D01*
X551949Y90237D01*
X552142Y90393D01*
X552346Y90513D01*
X552550Y90622D01*
X552742Y90706D01*
X552911Y90766D01*
X553043Y90802D01*
X553091Y90826D01*
X553127D01*
X553151Y90838D01*
X553163D01*
X553367Y90874D01*
X553607Y90910D01*
X553848Y90934D01*
X554088Y90946D01*
X554304Y90958D01*
X557500D01*
Y82644D01*
D02*
G37*
G36*
X511750Y160588D02*
X511954Y160576D01*
X512146Y160540D01*
X512326Y160504D01*
X512495Y160456D01*
X512651Y160408D01*
X512795Y160348D01*
X512927Y160287D01*
X513047Y160227D01*
X513143Y160167D01*
X513227Y160119D01*
X513299Y160071D01*
X513359Y160035D01*
X513396Y159999D01*
X513420Y159987D01*
X513432Y159975D01*
X513552Y159855D01*
X513660Y159723D01*
X513768Y159579D01*
X513852Y159434D01*
X513996Y159146D01*
X514092Y158858D01*
X514128Y158726D01*
X514165Y158594D01*
X514188Y158485D01*
X514212Y158389D01*
X514225Y158305D01*
Y158245D01*
X514236Y158209D01*
Y158197D01*
X513191Y158089D01*
X513167Y158365D01*
X513119Y158605D01*
X513047Y158822D01*
X512963Y158990D01*
X512891Y159134D01*
X512819Y159230D01*
X512771Y159290D01*
X512747Y159314D01*
X512567Y159459D01*
X512374Y159567D01*
X512170Y159651D01*
X511990Y159699D01*
X511822Y159735D01*
X511678Y159747D01*
X511629Y159759D01*
X511557D01*
X511305Y159747D01*
X511077Y159699D01*
X510885Y159627D01*
X510716Y159555D01*
X510584Y159471D01*
X510500Y159410D01*
X510440Y159362D01*
X510416Y159338D01*
X510272Y159170D01*
X510164Y159002D01*
X510080Y158834D01*
X510032Y158666D01*
X509995Y158533D01*
X509983Y158413D01*
X509972Y158341D01*
Y158329D01*
Y158317D01*
X509995Y158101D01*
X510044Y157873D01*
X510128Y157668D01*
X510212Y157476D01*
X510308Y157320D01*
X510392Y157188D01*
X510416Y157140D01*
X510440Y157104D01*
X510464Y157092D01*
Y157080D01*
X510560Y156947D01*
X510680Y156815D01*
X510812Y156671D01*
X510957Y156527D01*
X511257Y156239D01*
X511557Y155950D01*
X511714Y155818D01*
X511846Y155698D01*
X511978Y155590D01*
X512086Y155494D01*
X512170Y155422D01*
X512242Y155362D01*
X512290Y155326D01*
X512302Y155314D01*
X512603Y155061D01*
X512879Y154821D01*
X513107Y154605D01*
X513287Y154425D01*
X513444Y154268D01*
X513552Y154160D01*
X513612Y154088D01*
X513636Y154076D01*
Y154064D01*
X513804Y153860D01*
X513936Y153668D01*
X514056Y153475D01*
X514152Y153307D01*
X514225Y153163D01*
X514273Y153055D01*
X514297Y152983D01*
X514309Y152971D01*
Y152959D01*
X514357Y152827D01*
X514381Y152706D01*
X514405Y152586D01*
X514417Y152478D01*
X514429Y152382D01*
Y152310D01*
Y152262D01*
Y152250D01*
X508914D01*
Y153235D01*
X513011D01*
X512867Y153439D01*
X512795Y153524D01*
X512735Y153608D01*
X512675Y153680D01*
X512627Y153728D01*
X512591Y153764D01*
X512579Y153776D01*
X512519Y153836D01*
X512446Y153896D01*
X512278Y154052D01*
X512086Y154232D01*
X511882Y154412D01*
X511689Y154569D01*
X511605Y154641D01*
X511533Y154713D01*
X511473Y154761D01*
X511425Y154797D01*
X511401Y154821D01*
X511389Y154833D01*
X511197Y155001D01*
X511005Y155157D01*
X510836Y155314D01*
X510680Y155446D01*
X510536Y155578D01*
X510416Y155698D01*
X510296Y155806D01*
X510200Y155902D01*
X510104Y155998D01*
X510032Y156070D01*
X509972Y156131D01*
X509911Y156191D01*
X509851Y156263D01*
X509827Y156287D01*
X509659Y156491D01*
X509515Y156671D01*
X509395Y156851D01*
X509299Y156996D01*
X509227Y157128D01*
X509179Y157224D01*
X509155Y157284D01*
X509142Y157308D01*
X509070Y157488D01*
X509022Y157668D01*
X508974Y157837D01*
X508950Y157981D01*
X508938Y158113D01*
X508926Y158209D01*
Y158269D01*
Y158293D01*
X508938Y158473D01*
X508962Y158642D01*
X508986Y158810D01*
X509034Y158954D01*
X509155Y159242D01*
X509275Y159471D01*
X509347Y159579D01*
X509407Y159663D01*
X509467Y159747D01*
X509527Y159807D01*
X509575Y159855D01*
X509599Y159903D01*
X509623Y159915D01*
X509635Y159927D01*
X509767Y160047D01*
X509911Y160155D01*
X510068Y160239D01*
X510224Y160312D01*
X510536Y160432D01*
X510849Y160516D01*
X510981Y160540D01*
X511113Y160564D01*
X511233Y160576D01*
X511329Y160588D01*
X511413Y160600D01*
X511533D01*
X511750Y160588D01*
D02*
G37*
G36*
X522250Y152250D02*
X519258D01*
X518982Y152262D01*
X518730Y152274D01*
X518502Y152298D01*
X518309Y152322D01*
X518141Y152346D01*
X518021Y152358D01*
X517985Y152370D01*
X517949Y152382D01*
X517925D01*
X517709Y152442D01*
X517516Y152514D01*
X517348Y152574D01*
X517204Y152647D01*
X517084Y152706D01*
X517000Y152755D01*
X516952Y152791D01*
X516928Y152803D01*
X516772Y152911D01*
X516639Y153043D01*
X516507Y153163D01*
X516399Y153283D01*
X516303Y153391D01*
X516231Y153475D01*
X516183Y153535D01*
X516171Y153560D01*
X516051Y153752D01*
X515930Y153956D01*
X515834Y154148D01*
X515762Y154340D01*
X515690Y154509D01*
X515642Y154641D01*
X515630Y154689D01*
X515618Y154725D01*
X515606Y154749D01*
Y154761D01*
X515534Y155049D01*
X515474Y155338D01*
X515438Y155614D01*
X515402Y155878D01*
X515390Y156107D01*
Y156203D01*
X515378Y156287D01*
Y156347D01*
Y156407D01*
Y156431D01*
Y156443D01*
X515390Y156851D01*
X515426Y157224D01*
X515486Y157560D01*
X515510Y157716D01*
X515546Y157849D01*
X515582Y157981D01*
X515606Y158089D01*
X515630Y158185D01*
X515666Y158269D01*
X515678Y158341D01*
X515702Y158389D01*
X515714Y158413D01*
Y158425D01*
X515846Y158738D01*
X516003Y159014D01*
X516171Y159254D01*
X516327Y159459D01*
X516471Y159627D01*
X516591Y159747D01*
X516639Y159783D01*
X516675Y159819D01*
X516687Y159831D01*
X516699Y159843D01*
X516892Y159999D01*
X517096Y160119D01*
X517300Y160227D01*
X517492Y160312D01*
X517661Y160372D01*
X517793Y160408D01*
X517841Y160432D01*
X517877D01*
X517901Y160444D01*
X517913D01*
X518117Y160480D01*
X518357Y160516D01*
X518598Y160540D01*
X518838Y160552D01*
X519054Y160564D01*
X522250D01*
Y152250D01*
D02*
G37*
G36*
X286686Y248858D02*
X289894Y244557D01*
X288573D01*
X286470Y247440D01*
X286422Y247512D01*
X286362Y247596D01*
X286230Y247789D01*
X286170Y247885D01*
X286122Y247957D01*
X286086Y248005D01*
X286074Y248017D01*
X285953Y247837D01*
X285845Y247668D01*
X285797Y247608D01*
X285773Y247560D01*
X285749Y247524D01*
X285737Y247512D01*
X283635Y244557D01*
X282277D01*
X285389Y248906D01*
X282505Y252871D01*
X283707D01*
X285365Y250660D01*
X285509Y250480D01*
X285629Y250312D01*
X285749Y250143D01*
X285845Y250011D01*
X285929Y249891D01*
X285989Y249795D01*
X286026Y249747D01*
X286038Y249723D01*
X286122Y249867D01*
X286218Y250023D01*
X286326Y250191D01*
X286434Y250360D01*
X286542Y250504D01*
X286614Y250624D01*
X286650Y250672D01*
X286674Y250708D01*
X286698Y250720D01*
Y250732D01*
X288212Y252871D01*
X289522D01*
X286686Y248858D01*
D02*
G37*
G36*
X335500Y248065D02*
Y247825D01*
X335488Y247596D01*
X335476Y247380D01*
X335452Y247176D01*
X335428Y246996D01*
X335404Y246827D01*
X335368Y246671D01*
X335344Y246527D01*
X335320Y246395D01*
X335284Y246287D01*
X335260Y246191D01*
X335236Y246119D01*
X335212Y246059D01*
X335200Y246010D01*
X335188Y245986D01*
Y245974D01*
X335056Y245710D01*
X334887Y245470D01*
X334719Y245278D01*
X334539Y245109D01*
X334383Y244977D01*
X334250Y244881D01*
X334202Y244857D01*
X334166Y244833D01*
X334142Y244809D01*
X334130D01*
X333830Y244677D01*
X333518Y244581D01*
X333193Y244509D01*
X332893Y244461D01*
X332761Y244449D01*
X332629Y244437D01*
X332509Y244425D01*
X332412D01*
X332328Y244413D01*
X332220D01*
X331788Y244437D01*
X331595Y244461D01*
X331415Y244485D01*
X331235Y244521D01*
X331079Y244557D01*
X330935Y244593D01*
X330802Y244641D01*
X330682Y244689D01*
X330586Y244725D01*
X330490Y244761D01*
X330418Y244797D01*
X330358Y244833D01*
X330322Y244845D01*
X330298Y244869D01*
X330286D01*
X330022Y245049D01*
X329805Y245254D01*
X329637Y245446D01*
X329493Y245638D01*
X329385Y245806D01*
X329313Y245938D01*
X329289Y245986D01*
X329265Y246022D01*
X329253Y246047D01*
Y246059D01*
X329204Y246203D01*
X329156Y246359D01*
X329084Y246683D01*
X329036Y247020D01*
X329000Y247344D01*
X328988Y247488D01*
X328976Y247632D01*
Y247752D01*
X328964Y247861D01*
Y247945D01*
Y248005D01*
Y248053D01*
Y248065D01*
Y252871D01*
X330070D01*
Y248065D01*
Y247789D01*
X330094Y247524D01*
X330118Y247296D01*
X330154Y247080D01*
X330190Y246887D01*
X330238Y246707D01*
X330274Y246551D01*
X330322Y246419D01*
X330370Y246311D01*
X330418Y246203D01*
X330466Y246131D01*
X330502Y246059D01*
X330538Y246010D01*
X330562Y245974D01*
X330574Y245962D01*
X330586Y245950D01*
X330694Y245854D01*
X330815Y245770D01*
X331079Y245638D01*
X331355Y245542D01*
X331643Y245482D01*
X331908Y245434D01*
X332016Y245422D01*
X332124D01*
X332196Y245410D01*
X332316D01*
X332569Y245422D01*
X332797Y245458D01*
X333013Y245494D01*
X333181Y245554D01*
X333325Y245602D01*
X333433Y245638D01*
X333494Y245674D01*
X333518Y245686D01*
X333686Y245794D01*
X333830Y245926D01*
X333950Y246059D01*
X334034Y246179D01*
X334106Y246299D01*
X334166Y246383D01*
X334190Y246443D01*
X334202Y246467D01*
X334239Y246575D01*
X334263Y246683D01*
X334311Y246936D01*
X334347Y247200D01*
X334371Y247464D01*
X334383Y247692D01*
Y247801D01*
X334395Y247885D01*
Y247957D01*
Y248017D01*
Y248053D01*
Y248065D01*
Y252871D01*
X335500D01*
Y248065D01*
D02*
G37*
G36*
X328039Y244557D02*
X326874D01*
X325973Y247080D01*
X322489D01*
X321516Y244557D01*
X320266D01*
X323666Y252871D01*
X324867D01*
X328039Y244557D01*
D02*
G37*
G36*
X319365D02*
X318260D01*
Y248245D01*
X316842D01*
X316710Y248233D01*
X316614D01*
X316530Y248221D01*
X316469Y248209D01*
X316421D01*
X316397Y248197D01*
X316385D01*
X316193Y248137D01*
X316109Y248101D01*
X316037Y248065D01*
X315965Y248029D01*
X315917Y248005D01*
X315893Y247993D01*
X315881Y247981D01*
X315785Y247909D01*
X315689Y247825D01*
X315508Y247644D01*
X315424Y247560D01*
X315364Y247488D01*
X315328Y247440D01*
X315316Y247428D01*
X315196Y247260D01*
X315064Y247080D01*
X314932Y246887D01*
X314799Y246707D01*
X314691Y246539D01*
X314607Y246407D01*
X314571Y246359D01*
X314547Y246323D01*
X314523Y246299D01*
Y246287D01*
X313430Y244557D01*
X312060D01*
X313490Y246815D01*
X313658Y247056D01*
X313814Y247272D01*
X313971Y247452D01*
X314103Y247620D01*
X314223Y247740D01*
X314319Y247837D01*
X314379Y247897D01*
X314403Y247921D01*
X314499Y247993D01*
X314607Y248077D01*
X314824Y248209D01*
X314920Y248257D01*
X314992Y248305D01*
X315040Y248329D01*
X315064Y248341D01*
X314848Y248377D01*
X314643Y248413D01*
X314463Y248473D01*
X314283Y248521D01*
X314127Y248582D01*
X313983Y248654D01*
X313850Y248714D01*
X313730Y248774D01*
X313634Y248846D01*
X313538Y248906D01*
X313466Y248954D01*
X313406Y249002D01*
X313358Y249038D01*
X313322Y249074D01*
X313310Y249086D01*
X313298Y249098D01*
X313202Y249218D01*
X313106Y249338D01*
X312961Y249591D01*
X312865Y249843D01*
X312793Y250083D01*
X312745Y250287D01*
X312733Y250372D01*
Y250456D01*
X312721Y250516D01*
Y250564D01*
Y250588D01*
Y250600D01*
X312733Y250852D01*
X312769Y251080D01*
X312829Y251297D01*
X312889Y251477D01*
X312961Y251633D01*
X313009Y251753D01*
X313057Y251825D01*
X313069Y251837D01*
Y251849D01*
X313214Y252042D01*
X313358Y252210D01*
X313514Y252354D01*
X313658Y252462D01*
X313790Y252546D01*
X313899Y252594D01*
X313971Y252630D01*
X313983Y252642D01*
X313995D01*
X314103Y252678D01*
X314235Y252714D01*
X314499Y252774D01*
X314788Y252810D01*
X315052Y252847D01*
X315304Y252859D01*
X315412D01*
X315508Y252871D01*
X319365D01*
Y244557D01*
D02*
G37*
G36*
X311616Y251885D02*
X308876D01*
Y244557D01*
X307771D01*
Y251885D01*
X305032D01*
Y252871D01*
X311616D01*
Y251885D01*
D02*
G37*
G36*
X297415Y244557D02*
X296310D01*
Y248245D01*
X294892D01*
X294760Y248233D01*
X294664D01*
X294580Y248221D01*
X294520Y248209D01*
X294471D01*
X294447Y248197D01*
X294436D01*
X294243Y248137D01*
X294159Y248101D01*
X294087Y248065D01*
X294015Y248029D01*
X293967Y248005D01*
X293943Y247993D01*
X293931Y247981D01*
X293835Y247909D01*
X293739Y247825D01*
X293558Y247644D01*
X293474Y247560D01*
X293414Y247488D01*
X293378Y247440D01*
X293366Y247428D01*
X293246Y247260D01*
X293114Y247080D01*
X292982Y246887D01*
X292850Y246707D01*
X292742Y246539D01*
X292657Y246407D01*
X292621Y246359D01*
X292597Y246323D01*
X292573Y246299D01*
Y246287D01*
X291480Y244557D01*
X290110D01*
X291540Y246815D01*
X291708Y247056D01*
X291864Y247272D01*
X292021Y247452D01*
X292153Y247620D01*
X292273Y247740D01*
X292369Y247837D01*
X292429Y247897D01*
X292453Y247921D01*
X292549Y247993D01*
X292657Y248077D01*
X292874Y248209D01*
X292970Y248257D01*
X293042Y248305D01*
X293090Y248329D01*
X293114Y248341D01*
X292898Y248377D01*
X292693Y248413D01*
X292513Y248473D01*
X292333Y248521D01*
X292177Y248582D01*
X292033Y248654D01*
X291901Y248714D01*
X291780Y248774D01*
X291684Y248846D01*
X291588Y248906D01*
X291516Y248954D01*
X291456Y249002D01*
X291408Y249038D01*
X291372Y249074D01*
X291360Y249086D01*
X291348Y249098D01*
X291252Y249218D01*
X291156Y249338D01*
X291011Y249591D01*
X290915Y249843D01*
X290843Y250083D01*
X290795Y250287D01*
X290783Y250372D01*
Y250456D01*
X290771Y250516D01*
Y250564D01*
Y250588D01*
Y250600D01*
X290783Y250852D01*
X290819Y251080D01*
X290879Y251297D01*
X290939Y251477D01*
X291011Y251633D01*
X291059Y251753D01*
X291108Y251825D01*
X291119Y251837D01*
Y251849D01*
X291264Y252042D01*
X291408Y252210D01*
X291564Y252354D01*
X291708Y252462D01*
X291840Y252546D01*
X291949Y252594D01*
X292021Y252630D01*
X292033Y252642D01*
X292045D01*
X292153Y252678D01*
X292285Y252714D01*
X292549Y252774D01*
X292838Y252810D01*
X293102Y252847D01*
X293354Y252859D01*
X293462D01*
X293558Y252871D01*
X297415D01*
Y244557D01*
D02*
G37*
G36*
X304972Y242250D02*
X298208D01*
Y242983D01*
X304972D01*
Y242250D01*
D02*
G37*
G36*
X286972Y184858D02*
X290180Y180557D01*
X288858D01*
X286756Y183440D01*
X286707Y183512D01*
X286647Y183596D01*
X286515Y183789D01*
X286455Y183885D01*
X286407Y183957D01*
X286371Y184005D01*
X286359Y184017D01*
X286239Y183837D01*
X286131Y183668D01*
X286083Y183608D01*
X286059Y183560D01*
X286035Y183524D01*
X286023Y183512D01*
X283920Y180557D01*
X282563D01*
X285674Y184906D01*
X282791Y188871D01*
X283992D01*
X285650Y186660D01*
X285794Y186480D01*
X285915Y186311D01*
X286035Y186143D01*
X286131Y186011D01*
X286215Y185891D01*
X286275Y185795D01*
X286311Y185747D01*
X286323Y185723D01*
X286407Y185867D01*
X286503Y186023D01*
X286611Y186191D01*
X286719Y186360D01*
X286828Y186504D01*
X286900Y186624D01*
X286936Y186672D01*
X286960Y186708D01*
X286984Y186720D01*
Y186732D01*
X288498Y188871D01*
X289807D01*
X286972Y184858D01*
D02*
G37*
G36*
X334500Y184065D02*
Y183825D01*
X334488Y183596D01*
X334476Y183380D01*
X334452Y183176D01*
X334428Y182996D01*
X334404Y182827D01*
X334368Y182671D01*
X334344Y182527D01*
X334320Y182395D01*
X334284Y182287D01*
X334260Y182191D01*
X334236Y182119D01*
X334212Y182059D01*
X334200Y182010D01*
X334188Y181986D01*
Y181974D01*
X334055Y181710D01*
X333887Y181470D01*
X333719Y181278D01*
X333539Y181109D01*
X333383Y180977D01*
X333251Y180881D01*
X333203Y180857D01*
X333166Y180833D01*
X333142Y180809D01*
X333130D01*
X332830Y180677D01*
X332518Y180581D01*
X332193Y180509D01*
X331893Y180461D01*
X331761Y180449D01*
X331629Y180437D01*
X331508Y180425D01*
X331412D01*
X331328Y180413D01*
X331220D01*
X330788Y180437D01*
X330595Y180461D01*
X330415Y180485D01*
X330235Y180521D01*
X330079Y180557D01*
X329935Y180593D01*
X329802Y180641D01*
X329682Y180689D01*
X329586Y180725D01*
X329490Y180761D01*
X329418Y180797D01*
X329358Y180833D01*
X329322Y180845D01*
X329298Y180869D01*
X329286D01*
X329021Y181049D01*
X328805Y181254D01*
X328637Y181446D01*
X328493Y181638D01*
X328385Y181806D01*
X328313Y181938D01*
X328289Y181986D01*
X328265Y182022D01*
X328253Y182047D01*
Y182059D01*
X328205Y182203D01*
X328157Y182359D01*
X328084Y182683D01*
X328036Y183020D01*
X328000Y183344D01*
X327988Y183488D01*
X327976Y183632D01*
Y183752D01*
X327964Y183861D01*
Y183945D01*
Y184005D01*
Y184053D01*
Y184065D01*
Y188871D01*
X329070D01*
Y184065D01*
Y183789D01*
X329094Y183524D01*
X329118Y183296D01*
X329154Y183080D01*
X329190Y182887D01*
X329238Y182707D01*
X329274Y182551D01*
X329322Y182419D01*
X329370Y182311D01*
X329418Y182203D01*
X329466Y182131D01*
X329502Y182059D01*
X329538Y182010D01*
X329562Y181974D01*
X329574Y181962D01*
X329586Y181950D01*
X329694Y181854D01*
X329814Y181770D01*
X330079Y181638D01*
X330355Y181542D01*
X330643Y181482D01*
X330908Y181434D01*
X331016Y181422D01*
X331124D01*
X331196Y181410D01*
X331316D01*
X331568Y181422D01*
X331797Y181458D01*
X332013Y181494D01*
X332181Y181554D01*
X332325Y181602D01*
X332434Y181638D01*
X332494Y181674D01*
X332518Y181686D01*
X332686Y181794D01*
X332830Y181926D01*
X332950Y182059D01*
X333034Y182179D01*
X333106Y182299D01*
X333166Y182383D01*
X333190Y182443D01*
X333203Y182467D01*
X333238Y182575D01*
X333262Y182683D01*
X333311Y182936D01*
X333347Y183200D01*
X333371Y183464D01*
X333383Y183692D01*
Y183801D01*
X333395Y183885D01*
Y183957D01*
Y184017D01*
Y184053D01*
Y184065D01*
Y188871D01*
X334500D01*
Y184065D01*
D02*
G37*
G36*
X327039Y180557D02*
X325874D01*
X324973Y183080D01*
X321489D01*
X320516Y180557D01*
X319266D01*
X322666Y188871D01*
X323867D01*
X327039Y180557D01*
D02*
G37*
G36*
X318365D02*
X317260D01*
Y184245D01*
X315842D01*
X315710Y184233D01*
X315614D01*
X315530Y184221D01*
X315469Y184209D01*
X315421D01*
X315397Y184197D01*
X315385D01*
X315193Y184137D01*
X315109Y184101D01*
X315037Y184065D01*
X314965Y184029D01*
X314917Y184005D01*
X314893Y183993D01*
X314881Y183981D01*
X314785Y183909D01*
X314689Y183825D01*
X314508Y183644D01*
X314424Y183560D01*
X314364Y183488D01*
X314328Y183440D01*
X314316Y183428D01*
X314196Y183260D01*
X314064Y183080D01*
X313932Y182887D01*
X313799Y182707D01*
X313691Y182539D01*
X313607Y182407D01*
X313571Y182359D01*
X313547Y182323D01*
X313523Y182299D01*
Y182287D01*
X312430Y180557D01*
X311060D01*
X312490Y182815D01*
X312658Y183056D01*
X312814Y183272D01*
X312971Y183452D01*
X313103Y183620D01*
X313223Y183741D01*
X313319Y183837D01*
X313379Y183897D01*
X313403Y183921D01*
X313499Y183993D01*
X313607Y184077D01*
X313824Y184209D01*
X313920Y184257D01*
X313992Y184305D01*
X314040Y184329D01*
X314064Y184341D01*
X313848Y184377D01*
X313643Y184413D01*
X313463Y184473D01*
X313283Y184521D01*
X313127Y184582D01*
X312983Y184654D01*
X312850Y184714D01*
X312730Y184774D01*
X312634Y184846D01*
X312538Y184906D01*
X312466Y184954D01*
X312406Y185002D01*
X312358Y185038D01*
X312322Y185074D01*
X312310Y185086D01*
X312298Y185098D01*
X312202Y185218D01*
X312106Y185338D01*
X311961Y185591D01*
X311865Y185843D01*
X311793Y186083D01*
X311745Y186287D01*
X311733Y186372D01*
Y186456D01*
X311721Y186516D01*
Y186564D01*
Y186588D01*
Y186600D01*
X311733Y186852D01*
X311769Y187080D01*
X311829Y187297D01*
X311889Y187477D01*
X311961Y187633D01*
X312009Y187753D01*
X312057Y187825D01*
X312069Y187837D01*
Y187849D01*
X312214Y188042D01*
X312358Y188210D01*
X312514Y188354D01*
X312658Y188462D01*
X312790Y188546D01*
X312899Y188594D01*
X312971Y188630D01*
X312983Y188642D01*
X312995D01*
X313103Y188678D01*
X313235Y188714D01*
X313499Y188775D01*
X313787Y188811D01*
X314052Y188846D01*
X314304Y188859D01*
X314412D01*
X314508Y188871D01*
X318365D01*
Y180557D01*
D02*
G37*
G36*
X310616Y187885D02*
X307876D01*
Y180557D01*
X306771D01*
Y187885D01*
X304032D01*
Y188871D01*
X310616D01*
Y187885D01*
D02*
G37*
G36*
X297052D02*
X294312D01*
Y180557D01*
X293207D01*
Y187885D01*
X290468D01*
Y188871D01*
X297052D01*
Y187885D01*
D02*
G37*
G36*
X303972Y178250D02*
X297208D01*
Y178983D01*
X303972D01*
Y178250D01*
D02*
G37*
G36*
X243253Y164970D02*
X243578Y164910D01*
X243854Y164814D01*
X244094Y164718D01*
X244202Y164658D01*
X244287Y164610D01*
X244371Y164562D01*
X244431Y164513D01*
X244479Y164477D01*
X244515Y164453D01*
X244539Y164441D01*
X244551Y164429D01*
X244779Y164201D01*
X244959Y163949D01*
X245103Y163685D01*
X245224Y163420D01*
X245296Y163192D01*
X245332Y163096D01*
X245356Y163012D01*
X245368Y162940D01*
X245380Y162892D01*
X245392Y162855D01*
Y162843D01*
X244371Y162663D01*
X244323Y162928D01*
X244251Y163156D01*
X244166Y163348D01*
X244082Y163504D01*
X243998Y163624D01*
X243926Y163708D01*
X243878Y163769D01*
X243866Y163781D01*
X243710Y163901D01*
X243542Y163997D01*
X243386Y164057D01*
X243229Y164105D01*
X243085Y164129D01*
X242977Y164153D01*
X242881D01*
X242665Y164141D01*
X242472Y164093D01*
X242304Y164033D01*
X242160Y163973D01*
X242052Y163901D01*
X241968Y163841D01*
X241908Y163793D01*
X241896Y163781D01*
X241764Y163636D01*
X241667Y163480D01*
X241607Y163324D01*
X241559Y163180D01*
X241535Y163048D01*
X241511Y162952D01*
Y162880D01*
Y162868D01*
Y162855D01*
Y162723D01*
X241535Y162603D01*
X241595Y162399D01*
X241679Y162219D01*
X241776Y162063D01*
X241872Y161954D01*
X241956Y161870D01*
X242016Y161822D01*
X242028Y161810D01*
X242040D01*
X242244Y161702D01*
X242436Y161618D01*
X242641Y161558D01*
X242821Y161522D01*
X242977Y161498D01*
X243109Y161474D01*
X243265D01*
X243313Y161486D01*
X243374D01*
X243494Y160585D01*
X243337Y160621D01*
X243193Y160645D01*
X243073Y160669D01*
X242965Y160681D01*
X242881Y160693D01*
X242773D01*
X242521Y160669D01*
X242292Y160621D01*
X242088Y160549D01*
X241920Y160465D01*
X241788Y160381D01*
X241691Y160308D01*
X241631Y160260D01*
X241607Y160236D01*
X241451Y160056D01*
X241331Y159864D01*
X241247Y159672D01*
X241199Y159480D01*
X241163Y159323D01*
X241151Y159191D01*
X241139Y159143D01*
Y159107D01*
Y159083D01*
Y159071D01*
X241163Y158807D01*
X241223Y158566D01*
X241295Y158362D01*
X241391Y158182D01*
X241487Y158038D01*
X241559Y157930D01*
X241619Y157858D01*
X241643Y157834D01*
X241836Y157665D01*
X242040Y157545D01*
X242244Y157461D01*
X242436Y157401D01*
X242605Y157365D01*
X242737Y157353D01*
X242785Y157341D01*
X242857D01*
X243073Y157353D01*
X243277Y157401D01*
X243458Y157461D01*
X243602Y157533D01*
X243722Y157593D01*
X243818Y157653D01*
X243866Y157701D01*
X243890Y157713D01*
X244034Y157882D01*
X244154Y158074D01*
X244263Y158278D01*
X244347Y158494D01*
X244407Y158675D01*
X244431Y158759D01*
X244443Y158831D01*
X244455Y158891D01*
X244467Y158939D01*
X244479Y158963D01*
Y158975D01*
X245500Y158843D01*
X245476Y158651D01*
X245440Y158470D01*
X245332Y158134D01*
X245200Y157846D01*
X245128Y157725D01*
X245056Y157605D01*
X244983Y157497D01*
X244911Y157413D01*
X244851Y157329D01*
X244791Y157269D01*
X244755Y157221D01*
X244719Y157185D01*
X244695Y157161D01*
X244683Y157149D01*
X244539Y157041D01*
X244395Y156932D01*
X244251Y156848D01*
X244094Y156776D01*
X243794Y156656D01*
X243506Y156584D01*
X243374Y156560D01*
X243253Y156536D01*
X243145Y156524D01*
X243049Y156512D01*
X242977Y156500D01*
X242869D01*
X242641Y156512D01*
X242436Y156536D01*
X242232Y156572D01*
X242040Y156620D01*
X241860Y156680D01*
X241703Y156740D01*
X241547Y156812D01*
X241415Y156884D01*
X241283Y156945D01*
X241175Y157017D01*
X241079Y157077D01*
X241007Y157137D01*
X240947Y157185D01*
X240899Y157221D01*
X240875Y157245D01*
X240863Y157257D01*
X240718Y157401D01*
X240598Y157557D01*
X240490Y157713D01*
X240394Y157870D01*
X240322Y158014D01*
X240250Y158170D01*
X240154Y158458D01*
X240130Y158590D01*
X240106Y158711D01*
X240082Y158819D01*
X240070Y158915D01*
X240058Y158987D01*
Y159047D01*
Y159083D01*
Y159095D01*
X240070Y159383D01*
X240118Y159648D01*
X240190Y159876D01*
X240262Y160068D01*
X240334Y160224D01*
X240406Y160345D01*
X240454Y160417D01*
X240466Y160441D01*
X240634Y160621D01*
X240814Y160777D01*
X241007Y160897D01*
X241199Y160993D01*
X241367Y161065D01*
X241499Y161113D01*
X241547Y161126D01*
X241583Y161138D01*
X241607Y161150D01*
X241619D01*
X241415Y161258D01*
X241247Y161366D01*
X241103Y161486D01*
X240983Y161594D01*
X240886Y161690D01*
X240814Y161774D01*
X240778Y161822D01*
X240766Y161846D01*
X240670Y162015D01*
X240598Y162183D01*
X240538Y162351D01*
X240502Y162507D01*
X240478Y162639D01*
X240466Y162735D01*
Y162807D01*
Y162831D01*
X240478Y163036D01*
X240514Y163240D01*
X240562Y163420D01*
X240622Y163576D01*
X240682Y163708D01*
X240730Y163817D01*
X240766Y163877D01*
X240778Y163901D01*
X240899Y164081D01*
X241043Y164237D01*
X241187Y164369D01*
X241331Y164489D01*
X241451Y164573D01*
X241559Y164646D01*
X241631Y164682D01*
X241643Y164694D01*
X241655D01*
X241872Y164790D01*
X242088Y164862D01*
X242304Y164922D01*
X242496Y164958D01*
X242653Y164982D01*
X242785Y164994D01*
X243085D01*
X243253Y164970D01*
D02*
G37*
G36*
X229041D02*
X229365Y164910D01*
X229641Y164814D01*
X229881Y164718D01*
X229990Y164658D01*
X230074Y164610D01*
X230158Y164562D01*
X230218Y164513D01*
X230266Y164477D01*
X230302Y164453D01*
X230326Y164441D01*
X230338Y164429D01*
X230566Y164201D01*
X230747Y163949D01*
X230891Y163685D01*
X231011Y163420D01*
X231083Y163192D01*
X231119Y163096D01*
X231143Y163012D01*
X231155Y162940D01*
X231167Y162892D01*
X231179Y162855D01*
Y162843D01*
X230158Y162663D01*
X230110Y162928D01*
X230038Y163156D01*
X229954Y163348D01*
X229869Y163504D01*
X229785Y163624D01*
X229713Y163708D01*
X229665Y163769D01*
X229653Y163781D01*
X229497Y163901D01*
X229329Y163997D01*
X229173Y164057D01*
X229016Y164105D01*
X228872Y164129D01*
X228764Y164153D01*
X228668D01*
X228452Y164141D01*
X228260Y164093D01*
X228091Y164033D01*
X227947Y163973D01*
X227839Y163901D01*
X227755Y163841D01*
X227695Y163793D01*
X227683Y163781D01*
X227551Y163636D01*
X227455Y163480D01*
X227395Y163324D01*
X227346Y163180D01*
X227323Y163048D01*
X227299Y162952D01*
Y162880D01*
Y162868D01*
Y162855D01*
Y162723D01*
X227323Y162603D01*
X227383Y162399D01*
X227467Y162219D01*
X227563Y162063D01*
X227659Y161954D01*
X227743Y161870D01*
X227803Y161822D01*
X227815Y161810D01*
X227827D01*
X228031Y161702D01*
X228224Y161618D01*
X228428Y161558D01*
X228608Y161522D01*
X228764Y161498D01*
X228896Y161474D01*
X229053D01*
X229101Y161486D01*
X229161D01*
X229281Y160585D01*
X229125Y160621D01*
X228981Y160645D01*
X228860Y160669D01*
X228752Y160681D01*
X228668Y160693D01*
X228560D01*
X228308Y160669D01*
X228079Y160621D01*
X227875Y160549D01*
X227707Y160465D01*
X227575Y160381D01*
X227479Y160308D01*
X227419Y160260D01*
X227395Y160236D01*
X227238Y160056D01*
X227118Y159864D01*
X227034Y159672D01*
X226986Y159480D01*
X226950Y159323D01*
X226938Y159191D01*
X226926Y159143D01*
Y159107D01*
Y159083D01*
Y159071D01*
X226950Y158807D01*
X227010Y158566D01*
X227082Y158362D01*
X227178Y158182D01*
X227274Y158038D01*
X227346Y157930D01*
X227407Y157858D01*
X227431Y157834D01*
X227623Y157665D01*
X227827Y157545D01*
X228031Y157461D01*
X228224Y157401D01*
X228392Y157365D01*
X228524Y157353D01*
X228572Y157341D01*
X228644D01*
X228860Y157353D01*
X229065Y157401D01*
X229245Y157461D01*
X229389Y157533D01*
X229509Y157593D01*
X229605Y157653D01*
X229653Y157701D01*
X229677Y157713D01*
X229821Y157882D01*
X229942Y158074D01*
X230050Y158278D01*
X230134Y158494D01*
X230194Y158675D01*
X230218Y158759D01*
X230230Y158831D01*
X230242Y158891D01*
X230254Y158939D01*
X230266Y158963D01*
Y158975D01*
X231287Y158843D01*
X231263Y158651D01*
X231227Y158470D01*
X231119Y158134D01*
X230987Y157846D01*
X230915Y157725D01*
X230843Y157605D01*
X230771Y157497D01*
X230699Y157413D01*
X230638Y157329D01*
X230578Y157269D01*
X230542Y157221D01*
X230506Y157185D01*
X230482Y157161D01*
X230470Y157149D01*
X230326Y157041D01*
X230182Y156932D01*
X230038Y156848D01*
X229881Y156776D01*
X229581Y156656D01*
X229293Y156584D01*
X229161Y156560D01*
X229041Y156536D01*
X228932Y156524D01*
X228836Y156512D01*
X228764Y156500D01*
X228656D01*
X228428Y156512D01*
X228224Y156536D01*
X228019Y156572D01*
X227827Y156620D01*
X227647Y156680D01*
X227491Y156740D01*
X227334Y156812D01*
X227202Y156884D01*
X227070Y156945D01*
X226962Y157017D01*
X226866Y157077D01*
X226794Y157137D01*
X226734Y157185D01*
X226686Y157221D01*
X226662Y157245D01*
X226650Y157257D01*
X226506Y157401D01*
X226385Y157557D01*
X226277Y157713D01*
X226181Y157870D01*
X226109Y158014D01*
X226037Y158170D01*
X225941Y158458D01*
X225917Y158590D01*
X225893Y158711D01*
X225869Y158819D01*
X225857Y158915D01*
X225845Y158987D01*
Y159047D01*
Y159083D01*
Y159095D01*
X225857Y159383D01*
X225905Y159648D01*
X225977Y159876D01*
X226049Y160068D01*
X226121Y160224D01*
X226193Y160345D01*
X226241Y160417D01*
X226253Y160441D01*
X226421Y160621D01*
X226602Y160777D01*
X226794Y160897D01*
X226986Y160993D01*
X227154Y161065D01*
X227286Y161113D01*
X227334Y161126D01*
X227371Y161138D01*
X227395Y161150D01*
X227407D01*
X227202Y161258D01*
X227034Y161366D01*
X226890Y161486D01*
X226770Y161594D01*
X226674Y161690D01*
X226602Y161774D01*
X226566Y161822D01*
X226554Y161846D01*
X226458Y162015D01*
X226385Y162183D01*
X226325Y162351D01*
X226289Y162507D01*
X226265Y162639D01*
X226253Y162735D01*
Y162807D01*
Y162831D01*
X226265Y163036D01*
X226301Y163240D01*
X226349Y163420D01*
X226409Y163576D01*
X226469Y163708D01*
X226518Y163817D01*
X226554Y163877D01*
X226566Y163901D01*
X226686Y164081D01*
X226830Y164237D01*
X226974Y164369D01*
X227118Y164489D01*
X227238Y164573D01*
X227346Y164646D01*
X227419Y164682D01*
X227431Y164694D01*
X227443D01*
X227659Y164790D01*
X227875Y164862D01*
X228091Y164922D01*
X228284Y164958D01*
X228440Y164982D01*
X228572Y164994D01*
X228872D01*
X229041Y164970D01*
D02*
G37*
G36*
X236273Y156644D02*
X235132D01*
X231876Y164958D01*
X232993D01*
X235252Y158915D01*
X235348Y158663D01*
X235432Y158422D01*
X235504Y158194D01*
X235564Y157990D01*
X235624Y157809D01*
X235660Y157677D01*
X235672Y157629D01*
X235684Y157593D01*
X235696Y157569D01*
Y157557D01*
X235841Y158038D01*
X235913Y158266D01*
X235985Y158470D01*
X236045Y158651D01*
X236069Y158723D01*
X236081Y158795D01*
X236105Y158843D01*
X236117Y158879D01*
X236129Y158903D01*
Y158915D01*
X238291Y164958D01*
X239493D01*
X236273Y156644D01*
D02*
G37*
G36*
X187320Y161073D02*
X186359Y160941D01*
X186275Y161073D01*
X186166Y161181D01*
X186070Y161289D01*
X185974Y161373D01*
X185878Y161433D01*
X185806Y161493D01*
X185758Y161517D01*
X185746Y161529D01*
X185590Y161601D01*
X185434Y161661D01*
X185289Y161698D01*
X185145Y161734D01*
X185025Y161746D01*
X184929Y161758D01*
X184701D01*
X184557Y161734D01*
X184304Y161674D01*
X184088Y161589D01*
X183896Y161505D01*
X183752Y161409D01*
X183643Y161325D01*
X183583Y161265D01*
X183559Y161253D01*
Y161241D01*
X183391Y161037D01*
X183271Y160821D01*
X183187Y160592D01*
X183127Y160364D01*
X183091Y160172D01*
X183079Y160088D01*
Y160016D01*
X183067Y159956D01*
Y159907D01*
Y159883D01*
Y159871D01*
Y159703D01*
X183091Y159547D01*
X183151Y159247D01*
X183235Y158994D01*
X183319Y158790D01*
X183415Y158622D01*
X183499Y158490D01*
X183535Y158454D01*
X183559Y158418D01*
X183571Y158406D01*
X183583Y158394D01*
X183680Y158298D01*
X183776Y158213D01*
X183992Y158069D01*
X184196Y157973D01*
X184400Y157913D01*
X184569Y157865D01*
X184713Y157853D01*
X184761Y157841D01*
X184833D01*
X185061Y157853D01*
X185265Y157901D01*
X185446Y157961D01*
X185590Y158033D01*
X185722Y158105D01*
X185818Y158165D01*
X185866Y158213D01*
X185890Y158225D01*
X186034Y158394D01*
X186154Y158574D01*
X186250Y158778D01*
X186323Y158958D01*
X186371Y159138D01*
X186407Y159271D01*
X186419Y159331D01*
X186431Y159367D01*
Y159391D01*
Y159403D01*
X187500Y159319D01*
X187476Y159127D01*
X187440Y158946D01*
X187332Y158610D01*
X187200Y158322D01*
X187128Y158189D01*
X187055Y158081D01*
X186995Y157973D01*
X186923Y157877D01*
X186863Y157805D01*
X186803Y157745D01*
X186755Y157697D01*
X186731Y157649D01*
X186707Y157637D01*
X186695Y157625D01*
X186551Y157517D01*
X186407Y157421D01*
X186250Y157336D01*
X186094Y157264D01*
X185794Y157156D01*
X185494Y157084D01*
X185361Y157048D01*
X185229Y157036D01*
X185121Y157024D01*
X185025Y157012D01*
X184941Y157000D01*
X184833D01*
X184581Y157012D01*
X184340Y157048D01*
X184112Y157096D01*
X183908Y157156D01*
X183715Y157240D01*
X183535Y157324D01*
X183367Y157409D01*
X183223Y157505D01*
X183091Y157601D01*
X182971Y157685D01*
X182875Y157781D01*
X182790Y157853D01*
X182730Y157913D01*
X182682Y157961D01*
X182658Y157997D01*
X182646Y158009D01*
X182526Y158165D01*
X182430Y158334D01*
X182334Y158490D01*
X182262Y158658D01*
X182142Y158982D01*
X182070Y159295D01*
X182046Y159427D01*
X182022Y159559D01*
X182010Y159667D01*
X181998Y159763D01*
X181985Y159847D01*
Y159907D01*
Y159944D01*
Y159956D01*
X181998Y160172D01*
X182022Y160376D01*
X182058Y160580D01*
X182106Y160760D01*
X182166Y160929D01*
X182226Y161097D01*
X182298Y161241D01*
X182358Y161373D01*
X182430Y161493D01*
X182502Y161601D01*
X182562Y161686D01*
X182622Y161770D01*
X182670Y161830D01*
X182706Y161866D01*
X182730Y161890D01*
X182742Y161902D01*
X182887Y162034D01*
X183031Y162154D01*
X183187Y162250D01*
X183343Y162334D01*
X183499Y162418D01*
X183655Y162479D01*
X183944Y162563D01*
X184076Y162599D01*
X184196Y162623D01*
X184304Y162635D01*
X184400Y162647D01*
X184472Y162659D01*
X184737D01*
X184881Y162635D01*
X185169Y162575D01*
X185434Y162491D01*
X185674Y162394D01*
X185866Y162298D01*
X185950Y162250D01*
X186022Y162214D01*
X186082Y162178D01*
X186118Y162154D01*
X186142Y162142D01*
X186154Y162130D01*
X185710Y164377D01*
X182382D01*
Y165350D01*
X186515D01*
X187320Y161073D01*
D02*
G37*
G36*
X178261Y157144D02*
X177120D01*
X173864Y165458D01*
X174981D01*
X177240Y159415D01*
X177336Y159163D01*
X177420Y158922D01*
X177492Y158694D01*
X177552Y158490D01*
X177612Y158309D01*
X177648Y158177D01*
X177660Y158129D01*
X177672Y158093D01*
X177684Y158069D01*
Y158057D01*
X177829Y158538D01*
X177901Y158766D01*
X177973Y158970D01*
X178033Y159150D01*
X178057Y159223D01*
X178069Y159295D01*
X178093Y159343D01*
X178105Y159379D01*
X178117Y159403D01*
Y159415D01*
X180280Y165458D01*
X181481D01*
X178261Y157144D01*
D02*
G37*
G36*
X201999Y312040D02*
X202132Y311848D01*
X202288Y311655D01*
X202432Y311487D01*
X202576Y311343D01*
X202684Y311223D01*
X202732Y311187D01*
X202768Y311151D01*
X202780Y311139D01*
X202792Y311127D01*
X203045Y310923D01*
X203297Y310730D01*
X203537Y310562D01*
X203778Y310430D01*
X203982Y310310D01*
X204066Y310262D01*
X204138Y310226D01*
X204198Y310190D01*
X204246Y310178D01*
X204270Y310154D01*
X204282D01*
Y309168D01*
X204102Y309240D01*
X203922Y309325D01*
X203742Y309409D01*
X203573Y309493D01*
X203429Y309565D01*
X203309Y309625D01*
X203237Y309673D01*
X203225Y309685D01*
X203213D01*
X202997Y309817D01*
X202804Y309949D01*
X202636Y310070D01*
X202504Y310178D01*
X202384Y310262D01*
X202312Y310334D01*
X202252Y310382D01*
X202240Y310394D01*
Y303894D01*
X201219D01*
Y312244D01*
X201879D01*
X201999Y312040D01*
D02*
G37*
G36*
X220117Y307402D02*
Y307162D01*
X220105Y306934D01*
X220093Y306717D01*
X220069Y306513D01*
X220045Y306333D01*
X220021Y306165D01*
X219985Y306009D01*
X219961Y305865D01*
X219937Y305732D01*
X219901Y305624D01*
X219877Y305528D01*
X219853Y305456D01*
X219829Y305396D01*
X219817Y305348D01*
X219804Y305324D01*
Y305312D01*
X219672Y305047D01*
X219504Y304807D01*
X219336Y304615D01*
X219156Y304447D01*
X219000Y304315D01*
X218867Y304219D01*
X218819Y304195D01*
X218783Y304170D01*
X218759Y304146D01*
X218747D01*
X218447Y304014D01*
X218135Y303918D01*
X217810Y303846D01*
X217510Y303798D01*
X217378Y303786D01*
X217246Y303774D01*
X217125Y303762D01*
X217029D01*
X216945Y303750D01*
X216837D01*
X216404Y303774D01*
X216212Y303798D01*
X216032Y303822D01*
X215852Y303858D01*
X215696Y303894D01*
X215551Y303930D01*
X215419Y303978D01*
X215299Y304026D01*
X215203Y304062D01*
X215107Y304098D01*
X215035Y304134D01*
X214975Y304170D01*
X214939Y304182D01*
X214915Y304207D01*
X214903D01*
X214638Y304387D01*
X214422Y304591D01*
X214254Y304783D01*
X214110Y304975D01*
X214002Y305144D01*
X213930Y305276D01*
X213906Y305324D01*
X213881Y305360D01*
X213869Y305384D01*
Y305396D01*
X213822Y305540D01*
X213773Y305696D01*
X213701Y306021D01*
X213653Y306357D01*
X213617Y306681D01*
X213605Y306826D01*
X213593Y306970D01*
Y307090D01*
X213581Y307198D01*
Y307282D01*
Y307342D01*
Y307390D01*
Y307402D01*
Y312208D01*
X214687D01*
Y307402D01*
Y307126D01*
X214711Y306862D01*
X214734Y306633D01*
X214771Y306417D01*
X214807Y306225D01*
X214855Y306045D01*
X214891Y305889D01*
X214939Y305756D01*
X214987Y305648D01*
X215035Y305540D01*
X215083Y305468D01*
X215119Y305396D01*
X215155Y305348D01*
X215179Y305312D01*
X215191Y305300D01*
X215203Y305288D01*
X215311Y305192D01*
X215431Y305108D01*
X215696Y304975D01*
X215972Y304879D01*
X216260Y304819D01*
X216525Y304771D01*
X216633Y304759D01*
X216741D01*
X216813Y304747D01*
X216933D01*
X217185Y304759D01*
X217414Y304795D01*
X217630Y304831D01*
X217798Y304891D01*
X217942Y304939D01*
X218050Y304975D01*
X218111Y305012D01*
X218135Y305023D01*
X218303Y305132D01*
X218447Y305264D01*
X218567Y305396D01*
X218651Y305516D01*
X218723Y305636D01*
X218783Y305720D01*
X218807Y305780D01*
X218819Y305804D01*
X218855Y305912D01*
X218879Y306021D01*
X218927Y306273D01*
X218964Y306537D01*
X218988Y306802D01*
X219000Y307030D01*
Y307138D01*
X219012Y307222D01*
Y307294D01*
Y307354D01*
Y307390D01*
Y307402D01*
Y312208D01*
X220117D01*
Y307402D01*
D02*
G37*
G36*
X212368Y311223D02*
X209629D01*
Y303894D01*
X208523D01*
Y311223D01*
X205784D01*
Y312208D01*
X212368D01*
Y311223D01*
D02*
G37*
G36*
X225848Y312340D02*
X226148Y312304D01*
X226436Y312244D01*
X226713Y312172D01*
X226965Y312076D01*
X227205Y311980D01*
X227421Y311872D01*
X227614Y311763D01*
X227794Y311655D01*
X227950Y311547D01*
X228082Y311451D01*
X228190Y311355D01*
X228274Y311283D01*
X228347Y311223D01*
X228383Y311187D01*
X228395Y311175D01*
X228587Y310947D01*
X228755Y310706D01*
X228911Y310442D01*
X229031Y310178D01*
X229140Y309901D01*
X229236Y309637D01*
X229308Y309373D01*
X229356Y309120D01*
X229404Y308880D01*
X229440Y308652D01*
X229464Y308447D01*
X229488Y308279D01*
Y308135D01*
X229500Y308027D01*
Y307955D01*
Y307943D01*
Y307931D01*
X229476Y307522D01*
X229428Y307150D01*
X229356Y306790D01*
X229308Y306633D01*
X229260Y306477D01*
X229224Y306345D01*
X229176Y306225D01*
X229140Y306117D01*
X229104Y306021D01*
X229079Y305949D01*
X229056Y305900D01*
X229031Y305865D01*
Y305853D01*
X228827Y305504D01*
X228611Y305204D01*
X228371Y304939D01*
X228142Y304723D01*
X227938Y304543D01*
X227854Y304471D01*
X227782Y304423D01*
X227710Y304375D01*
X227662Y304339D01*
X227638Y304327D01*
X227626Y304315D01*
X227446Y304219D01*
X227265Y304134D01*
X226905Y303990D01*
X226556Y303894D01*
X226232Y303822D01*
X226076Y303798D01*
X225944Y303786D01*
X225824Y303762D01*
X225716D01*
X225643Y303750D01*
X225523D01*
X225127Y303774D01*
X224754Y303834D01*
X224406Y303906D01*
X224250Y303954D01*
X224106Y304002D01*
X223974Y304050D01*
X223853Y304098D01*
X223757Y304134D01*
X223673Y304170D01*
X223601Y304207D01*
X223541Y304231D01*
X223517Y304255D01*
X223505D01*
X223169Y304471D01*
X222880Y304711D01*
X222640Y304963D01*
X222436Y305204D01*
X222267Y305432D01*
X222207Y305516D01*
X222159Y305600D01*
X222111Y305672D01*
X222087Y305720D01*
X222063Y305756D01*
Y305768D01*
X221967Y305961D01*
X221895Y306153D01*
X221763Y306537D01*
X221667Y306922D01*
X221607Y307270D01*
X221595Y307426D01*
X221571Y307570D01*
X221559Y307703D01*
Y307811D01*
X221547Y307907D01*
Y307967D01*
Y308015D01*
Y308027D01*
X221571Y308484D01*
X221619Y308904D01*
X221655Y309096D01*
X221703Y309289D01*
X221751Y309457D01*
X221787Y309613D01*
X221835Y309757D01*
X221883Y309889D01*
X221919Y309997D01*
X221967Y310093D01*
X221991Y310166D01*
X222015Y310214D01*
X222039Y310250D01*
Y310262D01*
X222231Y310610D01*
X222460Y310923D01*
X222700Y311187D01*
X222916Y311403D01*
X223120Y311571D01*
X223217Y311643D01*
X223289Y311703D01*
X223361Y311739D01*
X223409Y311775D01*
X223433Y311787D01*
X223445Y311800D01*
X223625Y311896D01*
X223805Y311980D01*
X224154Y312124D01*
X224514Y312220D01*
X224827Y312280D01*
X224971Y312304D01*
X225115Y312328D01*
X225223Y312340D01*
X225331D01*
X225415Y312352D01*
X225523D01*
X225848Y312340D01*
D02*
G37*
G36*
X220778Y378482D02*
X220982Y378470D01*
X221175Y378434D01*
X221355Y378398D01*
X221523Y378350D01*
X221679Y378302D01*
X221823Y378242D01*
X221956Y378182D01*
X222076Y378122D01*
X222172Y378061D01*
X222256Y378013D01*
X222328Y377965D01*
X222388Y377929D01*
X222424Y377893D01*
X222448Y377881D01*
X222460Y377869D01*
X222580Y377749D01*
X222688Y377617D01*
X222796Y377473D01*
X222881Y377329D01*
X223025Y377040D01*
X223121Y376752D01*
X223157Y376620D01*
X223193Y376488D01*
X223217Y376380D01*
X223241Y376283D01*
X223253Y376199D01*
Y376139D01*
X223265Y376103D01*
Y376091D01*
X222220Y375983D01*
X222196Y376259D01*
X222148Y376500D01*
X222076Y376716D01*
X221992Y376884D01*
X221919Y377028D01*
X221847Y377124D01*
X221799Y377184D01*
X221775Y377209D01*
X221595Y377353D01*
X221403Y377461D01*
X221199Y377545D01*
X221018Y377593D01*
X220850Y377629D01*
X220706Y377641D01*
X220658Y377653D01*
X220586D01*
X220334Y377641D01*
X220105Y377593D01*
X219913Y377521D01*
X219745Y377449D01*
X219613Y377365D01*
X219529Y377305D01*
X219469Y377257D01*
X219445Y377233D01*
X219300Y377064D01*
X219192Y376896D01*
X219108Y376728D01*
X219060Y376560D01*
X219024Y376428D01*
X219012Y376307D01*
X219000Y376235D01*
Y376223D01*
Y376211D01*
X219024Y375995D01*
X219072Y375767D01*
X219156Y375563D01*
X219240Y375370D01*
X219336Y375214D01*
X219421Y375082D01*
X219445Y375034D01*
X219469Y374998D01*
X219493Y374986D01*
Y374974D01*
X219589Y374842D01*
X219709Y374710D01*
X219841Y374565D01*
X219985Y374421D01*
X220285Y374133D01*
X220586Y373844D01*
X220742Y373712D01*
X220874Y373592D01*
X221006Y373484D01*
X221115Y373388D01*
X221199Y373316D01*
X221271Y373256D01*
X221319Y373220D01*
X221331Y373208D01*
X221631Y372956D01*
X221908Y372715D01*
X222136Y372499D01*
X222316Y372319D01*
X222472Y372163D01*
X222580Y372054D01*
X222640Y371982D01*
X222664Y371970D01*
Y371958D01*
X222833Y371754D01*
X222965Y371562D01*
X223085Y371370D01*
X223181Y371201D01*
X223253Y371057D01*
X223301Y370949D01*
X223325Y370877D01*
X223337Y370865D01*
Y370853D01*
X223385Y370721D01*
X223409Y370601D01*
X223433Y370481D01*
X223445Y370372D01*
X223457Y370276D01*
Y370204D01*
Y370156D01*
Y370144D01*
X217943D01*
Y371129D01*
X222040D01*
X221895Y371334D01*
X221823Y371418D01*
X221763Y371502D01*
X221703Y371574D01*
X221655Y371622D01*
X221619Y371658D01*
X221607Y371670D01*
X221547Y371730D01*
X221475Y371790D01*
X221307Y371946D01*
X221115Y372127D01*
X220910Y372307D01*
X220718Y372463D01*
X220634Y372535D01*
X220562Y372607D01*
X220502Y372655D01*
X220454Y372691D01*
X220430Y372715D01*
X220418Y372727D01*
X220226Y372895D01*
X220033Y373052D01*
X219865Y373208D01*
X219709Y373340D01*
X219565Y373472D01*
X219445Y373592D01*
X219324Y373700D01*
X219228Y373797D01*
X219132Y373893D01*
X219060Y373965D01*
X219000Y374025D01*
X218940Y374085D01*
X218880Y374157D01*
X218856Y374181D01*
X218688Y374385D01*
X218543Y374565D01*
X218423Y374746D01*
X218327Y374890D01*
X218255Y375022D01*
X218207Y375118D01*
X218183Y375178D01*
X218171Y375202D01*
X218099Y375382D01*
X218051Y375563D01*
X218003Y375731D01*
X217979Y375875D01*
X217967Y376007D01*
X217955Y376103D01*
Y376163D01*
Y376187D01*
X217967Y376367D01*
X217991Y376536D01*
X218015Y376704D01*
X218063Y376848D01*
X218183Y377136D01*
X218303Y377365D01*
X218375Y377473D01*
X218435Y377557D01*
X218495Y377641D01*
X218556Y377701D01*
X218604Y377749D01*
X218628Y377797D01*
X218652Y377809D01*
X218664Y377821D01*
X218796Y377941D01*
X218940Y378050D01*
X219096Y378134D01*
X219252Y378206D01*
X219565Y378326D01*
X219877Y378410D01*
X220009Y378434D01*
X220141Y378458D01*
X220261Y378470D01*
X220358Y378482D01*
X220442Y378494D01*
X220562D01*
X220778Y378482D01*
D02*
G37*
G36*
X238367Y373652D02*
Y373412D01*
X238355Y373184D01*
X238343Y372967D01*
X238319Y372763D01*
X238295Y372583D01*
X238271Y372415D01*
X238235Y372259D01*
X238211Y372114D01*
X238187Y371982D01*
X238151Y371874D01*
X238127Y371778D01*
X238103Y371706D01*
X238079Y371646D01*
X238067Y371598D01*
X238055Y371574D01*
Y371562D01*
X237922Y371297D01*
X237754Y371057D01*
X237586Y370865D01*
X237406Y370697D01*
X237250Y370565D01*
X237117Y370469D01*
X237069Y370444D01*
X237033Y370420D01*
X237009Y370396D01*
X236997D01*
X236697Y370264D01*
X236385Y370168D01*
X236060Y370096D01*
X235760Y370048D01*
X235628Y370036D01*
X235495Y370024D01*
X235375Y370012D01*
X235279D01*
X235195Y370000D01*
X235087D01*
X234655Y370024D01*
X234462Y370048D01*
X234282Y370072D01*
X234102Y370108D01*
X233946Y370144D01*
X233801Y370180D01*
X233669Y370228D01*
X233549Y370276D01*
X233453Y370312D01*
X233357Y370348D01*
X233285Y370384D01*
X233225Y370420D01*
X233189Y370433D01*
X233165Y370457D01*
X233153D01*
X232888Y370637D01*
X232672Y370841D01*
X232504Y371033D01*
X232360Y371225D01*
X232252Y371394D01*
X232180Y371526D01*
X232156Y371574D01*
X232132Y371610D01*
X232120Y371634D01*
Y371646D01*
X232071Y371790D01*
X232023Y371946D01*
X231951Y372271D01*
X231903Y372607D01*
X231867Y372932D01*
X231855Y373076D01*
X231843Y373220D01*
Y373340D01*
X231831Y373448D01*
Y373532D01*
Y373592D01*
Y373640D01*
Y373652D01*
Y378458D01*
X232936D01*
Y373652D01*
Y373376D01*
X232960Y373112D01*
X232985Y372883D01*
X233021Y372667D01*
X233057Y372475D01*
X233105Y372295D01*
X233141Y372138D01*
X233189Y372006D01*
X233237Y371898D01*
X233285Y371790D01*
X233333Y371718D01*
X233369Y371646D01*
X233405Y371598D01*
X233429Y371562D01*
X233441Y371550D01*
X233453Y371538D01*
X233561Y371442D01*
X233681Y371358D01*
X233946Y371225D01*
X234222Y371129D01*
X234510Y371069D01*
X234775Y371021D01*
X234883Y371009D01*
X234991D01*
X235063Y370997D01*
X235183D01*
X235435Y371009D01*
X235664Y371045D01*
X235880Y371081D01*
X236048Y371141D01*
X236192Y371189D01*
X236301Y371225D01*
X236360Y371261D01*
X236385Y371273D01*
X236553Y371382D01*
X236697Y371514D01*
X236817Y371646D01*
X236901Y371766D01*
X236973Y371886D01*
X237033Y371970D01*
X237057Y372030D01*
X237069Y372054D01*
X237105Y372163D01*
X237129Y372271D01*
X237178Y372523D01*
X237213Y372787D01*
X237238Y373052D01*
X237250Y373280D01*
Y373388D01*
X237262Y373472D01*
Y373544D01*
Y373604D01*
Y373640D01*
Y373652D01*
Y378458D01*
X238367D01*
Y373652D01*
D02*
G37*
G36*
X230618Y377473D02*
X227878D01*
Y370144D01*
X226773D01*
Y377473D01*
X224034D01*
Y378458D01*
X230618D01*
Y377473D01*
D02*
G37*
G36*
X244098Y378590D02*
X244398Y378554D01*
X244686Y378494D01*
X244963Y378422D01*
X245215Y378326D01*
X245455Y378230D01*
X245672Y378122D01*
X245864Y378013D01*
X246044Y377905D01*
X246200Y377797D01*
X246332Y377701D01*
X246441Y377605D01*
X246525Y377533D01*
X246597Y377473D01*
X246633Y377437D01*
X246645Y377425D01*
X246837Y377197D01*
X247005Y376956D01*
X247161Y376692D01*
X247281Y376428D01*
X247390Y376151D01*
X247486Y375887D01*
X247558Y375623D01*
X247606Y375370D01*
X247654Y375130D01*
X247690Y374902D01*
X247714Y374697D01*
X247738Y374529D01*
Y374385D01*
X247750Y374277D01*
Y374205D01*
Y374193D01*
Y374181D01*
X247726Y373773D01*
X247678Y373400D01*
X247606Y373040D01*
X247558Y372883D01*
X247510Y372727D01*
X247474Y372595D01*
X247426Y372475D01*
X247390Y372367D01*
X247353Y372271D01*
X247330Y372199D01*
X247306Y372150D01*
X247281Y372114D01*
Y372103D01*
X247077Y371754D01*
X246861Y371454D01*
X246621Y371189D01*
X246392Y370973D01*
X246188Y370793D01*
X246104Y370721D01*
X246032Y370673D01*
X245960Y370625D01*
X245912Y370589D01*
X245888Y370577D01*
X245876Y370565D01*
X245696Y370469D01*
X245515Y370384D01*
X245155Y370240D01*
X244806Y370144D01*
X244482Y370072D01*
X244326Y370048D01*
X244194Y370036D01*
X244074Y370012D01*
X243965D01*
X243893Y370000D01*
X243773D01*
X243377Y370024D01*
X243004Y370084D01*
X242656Y370156D01*
X242500Y370204D01*
X242356Y370252D01*
X242223Y370300D01*
X242103Y370348D01*
X242007Y370384D01*
X241923Y370420D01*
X241851Y370457D01*
X241791Y370481D01*
X241767Y370505D01*
X241755D01*
X241418Y370721D01*
X241130Y370961D01*
X240890Y371213D01*
X240686Y371454D01*
X240518Y371682D01*
X240457Y371766D01*
X240409Y371850D01*
X240361Y371922D01*
X240337Y371970D01*
X240313Y372006D01*
Y372018D01*
X240217Y372211D01*
X240145Y372403D01*
X240013Y372787D01*
X239917Y373172D01*
X239857Y373520D01*
X239845Y373676D01*
X239821Y373820D01*
X239809Y373953D01*
Y374061D01*
X239797Y374157D01*
Y374217D01*
Y374265D01*
Y374277D01*
X239821Y374734D01*
X239869Y375154D01*
X239905Y375346D01*
X239953Y375538D01*
X240001Y375707D01*
X240037Y375863D01*
X240085Y376007D01*
X240133Y376139D01*
X240169Y376247D01*
X240217Y376343D01*
X240241Y376416D01*
X240265Y376464D01*
X240289Y376500D01*
Y376512D01*
X240481Y376860D01*
X240710Y377173D01*
X240950Y377437D01*
X241166Y377653D01*
X241371Y377821D01*
X241467Y377893D01*
X241539Y377953D01*
X241611Y377989D01*
X241659Y378026D01*
X241683Y378037D01*
X241695Y378050D01*
X241875Y378146D01*
X242055Y378230D01*
X242404Y378374D01*
X242764Y378470D01*
X243076Y378530D01*
X243221Y378554D01*
X243365Y378578D01*
X243473Y378590D01*
X243581D01*
X243665Y378602D01*
X243773D01*
X244098Y378590D01*
D02*
G37*
G36*
X252717Y31146D02*
X252850Y30953D01*
X253006Y30761D01*
X253150Y30593D01*
X253294Y30449D01*
X253402Y30329D01*
X253450Y30293D01*
X253486Y30257D01*
X253498Y30245D01*
X253510Y30233D01*
X253762Y30028D01*
X254015Y29836D01*
X254255Y29668D01*
X254495Y29536D01*
X254700Y29416D01*
X254784Y29367D01*
X254856Y29332D01*
X254916Y29295D01*
X254964Y29283D01*
X254988Y29259D01*
X255000D01*
Y28274D01*
X254820Y28346D01*
X254640Y28430D01*
X254459Y28514D01*
X254291Y28599D01*
X254147Y28671D01*
X254027Y28731D01*
X253955Y28779D01*
X253943Y28791D01*
X253931D01*
X253715Y28923D01*
X253522Y29055D01*
X253354Y29175D01*
X253222Y29283D01*
X253102Y29367D01*
X253030Y29440D01*
X252970Y29488D01*
X252958Y29500D01*
Y23000D01*
X251936D01*
Y31350D01*
X252597D01*
X252717Y31146D01*
D02*
G37*
G36*
X175646Y344181D02*
X175850Y344169D01*
X176043Y344133D01*
X176223Y344097D01*
X176391Y344049D01*
X176547Y344001D01*
X176691Y343941D01*
X176824Y343881D01*
X176944Y343820D01*
X177040Y343760D01*
X177124Y343712D01*
X177196Y343664D01*
X177256Y343628D01*
X177292Y343592D01*
X177316Y343580D01*
X177328Y343568D01*
X177448Y343448D01*
X177556Y343316D01*
X177665Y343172D01*
X177749Y343028D01*
X177893Y342739D01*
X177989Y342451D01*
X178025Y342319D01*
X178061Y342187D01*
X178085Y342079D01*
X178109Y341982D01*
X178121Y341898D01*
Y341838D01*
X178133Y341802D01*
Y341790D01*
X177088Y341682D01*
X177064Y341958D01*
X177016Y342199D01*
X176944Y342415D01*
X176860Y342583D01*
X176788Y342727D01*
X176716Y342823D01*
X176667Y342883D01*
X176643Y342907D01*
X176463Y343052D01*
X176271Y343160D01*
X176067Y343244D01*
X175886Y343292D01*
X175718Y343328D01*
X175574Y343340D01*
X175526Y343352D01*
X175454D01*
X175202Y343340D01*
X174973Y343292D01*
X174781Y343220D01*
X174613Y343148D01*
X174481Y343064D01*
X174397Y343004D01*
X174337Y342956D01*
X174313Y342932D01*
X174168Y342763D01*
X174060Y342595D01*
X173976Y342427D01*
X173928Y342259D01*
X173892Y342127D01*
X173880Y342006D01*
X173868Y341934D01*
Y341922D01*
Y341910D01*
X173892Y341694D01*
X173940Y341466D01*
X174024Y341261D01*
X174108Y341069D01*
X174205Y340913D01*
X174289Y340781D01*
X174313Y340733D01*
X174337Y340697D01*
X174361Y340685D01*
Y340673D01*
X174457Y340541D01*
X174577Y340409D01*
X174709Y340264D01*
X174853Y340120D01*
X175154Y339832D01*
X175454Y339543D01*
X175610Y339411D01*
X175742Y339291D01*
X175875Y339183D01*
X175983Y339087D01*
X176067Y339015D01*
X176139Y338955D01*
X176187Y338919D01*
X176199Y338907D01*
X176499Y338654D01*
X176775Y338414D01*
X177004Y338198D01*
X177184Y338018D01*
X177340Y337862D01*
X177448Y337753D01*
X177508Y337681D01*
X177532Y337669D01*
Y337657D01*
X177701Y337453D01*
X177833Y337261D01*
X177953Y337068D01*
X178049Y336900D01*
X178121Y336756D01*
X178169Y336648D01*
X178193Y336576D01*
X178205Y336564D01*
Y336552D01*
X178253Y336420D01*
X178277Y336300D01*
X178301Y336180D01*
X178313Y336071D01*
X178325Y335975D01*
Y335903D01*
Y335855D01*
Y335843D01*
X172811D01*
Y336828D01*
X176908D01*
X176763Y337033D01*
X176691Y337117D01*
X176631Y337201D01*
X176571Y337273D01*
X176523Y337321D01*
X176487Y337357D01*
X176475Y337369D01*
X176415Y337429D01*
X176343Y337489D01*
X176175Y337645D01*
X175983Y337825D01*
X175778Y338006D01*
X175586Y338162D01*
X175502Y338234D01*
X175430Y338306D01*
X175370Y338354D01*
X175322Y338390D01*
X175298Y338414D01*
X175286Y338426D01*
X175094Y338594D01*
X174901Y338750D01*
X174733Y338907D01*
X174577Y339039D01*
X174433Y339171D01*
X174313Y339291D01*
X174193Y339399D01*
X174096Y339495D01*
X174000Y339591D01*
X173928Y339664D01*
X173868Y339724D01*
X173808Y339784D01*
X173748Y339856D01*
X173724Y339880D01*
X173556Y340084D01*
X173412Y340264D01*
X173291Y340444D01*
X173195Y340589D01*
X173123Y340721D01*
X173075Y340817D01*
X173051Y340877D01*
X173039Y340901D01*
X172967Y341081D01*
X172919Y341261D01*
X172871Y341430D01*
X172847Y341574D01*
X172835Y341706D01*
X172823Y341802D01*
Y341862D01*
Y341886D01*
X172835Y342066D01*
X172859Y342235D01*
X172883Y342403D01*
X172931Y342547D01*
X173051Y342835D01*
X173171Y343064D01*
X173243Y343172D01*
X173303Y343256D01*
X173363Y343340D01*
X173424Y343400D01*
X173472Y343448D01*
X173496Y343496D01*
X173520Y343508D01*
X173532Y343520D01*
X173664Y343640D01*
X173808Y343748D01*
X173964Y343833D01*
X174120Y343905D01*
X174433Y344025D01*
X174745Y344109D01*
X174877Y344133D01*
X175009Y344157D01*
X175130Y344169D01*
X175226Y344181D01*
X175310Y344193D01*
X175430D01*
X175646Y344181D01*
D02*
G37*
G36*
X187480Y335843D02*
X186423D01*
Y342920D01*
X184020Y335843D01*
X183035D01*
X180608Y342799D01*
Y335843D01*
X179551D01*
Y344157D01*
X181029D01*
X183023Y338366D01*
X183131Y338054D01*
X183215Y337789D01*
X183299Y337561D01*
X183359Y337369D01*
X183407Y337225D01*
X183443Y337117D01*
X183455Y337057D01*
X183468Y337033D01*
X183515Y337201D01*
X183576Y337393D01*
X183648Y337597D01*
X183708Y337801D01*
X183768Y337982D01*
X183816Y338126D01*
X183840Y338186D01*
X183852Y338222D01*
X183864Y338246D01*
Y338258D01*
X185834Y344157D01*
X187480D01*
Y335843D01*
D02*
G37*
G36*
X201669Y344277D02*
X202053Y344217D01*
X202390Y344145D01*
X202546Y344097D01*
X202690Y344049D01*
X202822Y344001D01*
X202943Y343953D01*
X203039Y343917D01*
X203135Y343881D01*
X203195Y343844D01*
X203243Y343820D01*
X203279Y343809D01*
X203291Y343797D01*
X203615Y343592D01*
X203892Y343352D01*
X204132Y343112D01*
X204336Y342871D01*
X204492Y342655D01*
X204552Y342559D01*
X204600Y342475D01*
X204648Y342415D01*
X204673Y342367D01*
X204685Y342331D01*
X204697Y342319D01*
X204865Y341946D01*
X204985Y341562D01*
X205069Y341177D01*
X205129Y340829D01*
X205153Y340673D01*
X205165Y340517D01*
X205177Y340396D01*
Y340276D01*
X205189Y340192D01*
Y340120D01*
Y340072D01*
Y340060D01*
X205165Y339628D01*
X205117Y339207D01*
X205057Y338835D01*
X205009Y338654D01*
X204973Y338498D01*
X204937Y338354D01*
X204889Y338222D01*
X204853Y338102D01*
X204829Y338006D01*
X204793Y337934D01*
X204781Y337873D01*
X204757Y337837D01*
Y337825D01*
X204576Y337465D01*
X204372Y337141D01*
X204156Y336864D01*
X204048Y336756D01*
X203952Y336648D01*
X203855Y336552D01*
X203759Y336468D01*
X203675Y336396D01*
X203603Y336348D01*
X203555Y336300D01*
X203507Y336264D01*
X203483Y336252D01*
X203471Y336240D01*
X203303Y336143D01*
X203135Y336059D01*
X202774Y335927D01*
X202414Y335831D01*
X202065Y335771D01*
X201897Y335747D01*
X201753Y335723D01*
X201621Y335711D01*
X201513D01*
X201417Y335699D01*
X201285D01*
X201044Y335711D01*
X200816Y335735D01*
X200600Y335759D01*
X200396Y335807D01*
X200203Y335867D01*
X200023Y335927D01*
X199855Y335987D01*
X199699Y336059D01*
X199566Y336119D01*
X199434Y336180D01*
X199338Y336240D01*
X199242Y336300D01*
X199182Y336348D01*
X199122Y336372D01*
X199098Y336396D01*
X199086Y336408D01*
X198918Y336552D01*
X198773Y336696D01*
X198641Y336864D01*
X198509Y337033D01*
X198293Y337369D01*
X198125Y337705D01*
X198053Y337862D01*
X197993Y338006D01*
X197945Y338138D01*
X197908Y338246D01*
X197873Y338342D01*
X197848Y338414D01*
X197836Y338462D01*
Y338474D01*
X198942Y338750D01*
X198990Y338558D01*
X199050Y338378D01*
X199110Y338210D01*
X199170Y338054D01*
X199242Y337910D01*
X199314Y337789D01*
X199398Y337669D01*
X199470Y337561D01*
X199530Y337465D01*
X199603Y337393D01*
X199663Y337321D01*
X199711Y337261D01*
X199759Y337225D01*
X199795Y337189D01*
X199807Y337177D01*
X199819Y337165D01*
X199939Y337068D01*
X200071Y336996D01*
X200335Y336864D01*
X200588Y336768D01*
X200840Y336708D01*
X201056Y336660D01*
X201140Y336648D01*
X201224D01*
X201297Y336636D01*
X201381D01*
X201657Y336648D01*
X201921Y336696D01*
X202162Y336756D01*
X202378Y336828D01*
X202546Y336900D01*
X202618Y336936D01*
X202678Y336960D01*
X202726Y336984D01*
X202762Y337009D01*
X202786Y337020D01*
X202798D01*
X203027Y337189D01*
X203219Y337369D01*
X203387Y337573D01*
X203519Y337765D01*
X203627Y337934D01*
X203699Y338078D01*
X203723Y338138D01*
X203747Y338174D01*
X203759Y338198D01*
Y338210D01*
X203855Y338522D01*
X203928Y338835D01*
X203988Y339147D01*
X204024Y339435D01*
X204036Y339567D01*
X204048Y339688D01*
Y339796D01*
X204060Y339880D01*
Y339952D01*
Y340012D01*
Y340048D01*
Y340060D01*
X204048Y340372D01*
X204024Y340661D01*
X203976Y340925D01*
X203928Y341165D01*
X203892Y341370D01*
X203868Y341454D01*
X203843Y341526D01*
X203832Y341586D01*
X203820Y341622D01*
X203808Y341646D01*
Y341658D01*
X203687Y341934D01*
X203555Y342187D01*
X203411Y342391D01*
X203255Y342571D01*
X203123Y342715D01*
X203015Y342811D01*
X202931Y342871D01*
X202918Y342895D01*
X202906D01*
X202654Y343052D01*
X202378Y343172D01*
X202113Y343256D01*
X201861Y343304D01*
X201633Y343340D01*
X201537Y343352D01*
X201453D01*
X201393Y343364D01*
X201297D01*
X200996Y343352D01*
X200720Y343304D01*
X200492Y343232D01*
X200287Y343160D01*
X200131Y343076D01*
X200011Y343016D01*
X199939Y342967D01*
X199915Y342943D01*
X199723Y342763D01*
X199543Y342559D01*
X199398Y342343D01*
X199278Y342127D01*
X199182Y341934D01*
X199146Y341838D01*
X199122Y341766D01*
X199098Y341706D01*
X199074Y341658D01*
X199062Y341634D01*
Y341622D01*
X197981Y341874D01*
X198053Y342090D01*
X198125Y342283D01*
X198221Y342463D01*
X198305Y342643D01*
X198401Y342799D01*
X198509Y342943D01*
X198605Y343088D01*
X198701Y343208D01*
X198798Y343304D01*
X198882Y343400D01*
X198966Y343484D01*
X199026Y343544D01*
X199086Y343604D01*
X199134Y343640D01*
X199158Y343652D01*
X199170Y343664D01*
X199338Y343773D01*
X199506Y343881D01*
X199675Y343965D01*
X199855Y344037D01*
X200215Y344145D01*
X200540Y344217D01*
X200696Y344253D01*
X200828Y344265D01*
X200960Y344277D01*
X201068Y344289D01*
X201152Y344301D01*
X201273D01*
X201669Y344277D01*
D02*
G37*
G36*
X193163Y344289D02*
X193463Y344253D01*
X193752Y344193D01*
X194028Y344121D01*
X194280Y344025D01*
X194520Y343929D01*
X194737Y343820D01*
X194929Y343712D01*
X195109Y343604D01*
X195265Y343496D01*
X195398Y343400D01*
X195506Y343304D01*
X195590Y343232D01*
X195662Y343172D01*
X195698Y343136D01*
X195710Y343124D01*
X195902Y342895D01*
X196070Y342655D01*
X196227Y342391D01*
X196347Y342127D01*
X196455Y341850D01*
X196551Y341586D01*
X196623Y341322D01*
X196671Y341069D01*
X196719Y340829D01*
X196755Y340601D01*
X196779Y340396D01*
X196803Y340228D01*
Y340084D01*
X196815Y339976D01*
Y339904D01*
Y339892D01*
Y339880D01*
X196791Y339471D01*
X196743Y339099D01*
X196671Y338739D01*
X196623Y338582D01*
X196575Y338426D01*
X196539Y338294D01*
X196491Y338174D01*
X196455Y338066D01*
X196419Y337970D01*
X196395Y337897D01*
X196371Y337850D01*
X196347Y337813D01*
Y337801D01*
X196142Y337453D01*
X195926Y337153D01*
X195686Y336888D01*
X195458Y336672D01*
X195253Y336492D01*
X195169Y336420D01*
X195097Y336372D01*
X195025Y336324D01*
X194977Y336288D01*
X194953Y336276D01*
X194941Y336264D01*
X194761Y336167D01*
X194581Y336083D01*
X194220Y335939D01*
X193872Y335843D01*
X193547Y335771D01*
X193391Y335747D01*
X193259Y335735D01*
X193139Y335711D01*
X193031D01*
X192959Y335699D01*
X192838D01*
X192442Y335723D01*
X192070Y335783D01*
X191721Y335855D01*
X191565Y335903D01*
X191421Y335951D01*
X191289Y335999D01*
X191169Y336047D01*
X191072Y336083D01*
X190988Y336119D01*
X190916Y336156D01*
X190856Y336180D01*
X190832Y336203D01*
X190820D01*
X190484Y336420D01*
X190195Y336660D01*
X189955Y336912D01*
X189751Y337153D01*
X189583Y337381D01*
X189523Y337465D01*
X189475Y337549D01*
X189426Y337621D01*
X189403Y337669D01*
X189378Y337705D01*
Y337717D01*
X189282Y337910D01*
X189210Y338102D01*
X189078Y338486D01*
X188982Y338871D01*
X188922Y339219D01*
X188910Y339375D01*
X188886Y339519D01*
X188874Y339652D01*
Y339760D01*
X188862Y339856D01*
Y339916D01*
Y339964D01*
Y339976D01*
X188886Y340433D01*
X188934Y340853D01*
X188970Y341045D01*
X189018Y341237D01*
X189066Y341406D01*
X189102Y341562D01*
X189150Y341706D01*
X189198Y341838D01*
X189234Y341946D01*
X189282Y342042D01*
X189306Y342114D01*
X189330Y342163D01*
X189354Y342199D01*
Y342211D01*
X189547Y342559D01*
X189775Y342871D01*
X190015Y343136D01*
X190231Y343352D01*
X190436Y343520D01*
X190532Y343592D01*
X190604Y343652D01*
X190676Y343688D01*
X190724Y343724D01*
X190748Y343736D01*
X190760Y343748D01*
X190940Y343844D01*
X191120Y343929D01*
X191469Y344073D01*
X191829Y344169D01*
X192142Y344229D01*
X192286Y344253D01*
X192430Y344277D01*
X192538Y344289D01*
X192646D01*
X192730Y344301D01*
X192838D01*
X193163Y344289D01*
D02*
G37*
G36*
X78969Y344181D02*
X79173Y344169D01*
X79365Y344133D01*
X79545Y344097D01*
X79713Y344049D01*
X79870Y344001D01*
X80014Y343941D01*
X80146Y343881D01*
X80266Y343820D01*
X80362Y343760D01*
X80446Y343712D01*
X80518Y343664D01*
X80578Y343628D01*
X80614Y343592D01*
X80639Y343580D01*
X80651Y343568D01*
X80771Y343448D01*
X80879Y343316D01*
X80987Y343172D01*
X81071Y343028D01*
X81215Y342739D01*
X81311Y342451D01*
X81347Y342319D01*
X81383Y342187D01*
X81407Y342079D01*
X81431Y341982D01*
X81443Y341898D01*
Y341838D01*
X81455Y341802D01*
Y341790D01*
X80410Y341682D01*
X80386Y341958D01*
X80338Y342199D01*
X80266Y342415D01*
X80182Y342583D01*
X80110Y342727D01*
X80038Y342823D01*
X79990Y342883D01*
X79966Y342907D01*
X79785Y343052D01*
X79593Y343160D01*
X79389Y343244D01*
X79209Y343292D01*
X79041Y343328D01*
X78896Y343340D01*
X78848Y343352D01*
X78776D01*
X78524Y343340D01*
X78296Y343292D01*
X78103Y343220D01*
X77935Y343148D01*
X77803Y343064D01*
X77719Y343004D01*
X77659Y342956D01*
X77635Y342932D01*
X77491Y342763D01*
X77383Y342595D01*
X77298Y342427D01*
X77250Y342259D01*
X77214Y342127D01*
X77202Y342006D01*
X77190Y341934D01*
Y341922D01*
Y341910D01*
X77214Y341694D01*
X77263Y341466D01*
X77347Y341261D01*
X77431Y341069D01*
X77527Y340913D01*
X77611Y340781D01*
X77635Y340733D01*
X77659Y340697D01*
X77683Y340685D01*
Y340673D01*
X77779Y340541D01*
X77899Y340409D01*
X78031Y340264D01*
X78176Y340120D01*
X78476Y339832D01*
X78776Y339543D01*
X78932Y339411D01*
X79065Y339291D01*
X79197Y339183D01*
X79305Y339087D01*
X79389Y339015D01*
X79461Y338955D01*
X79509Y338919D01*
X79521Y338907D01*
X79822Y338654D01*
X80098Y338414D01*
X80326Y338198D01*
X80506Y338018D01*
X80662Y337862D01*
X80771Y337753D01*
X80831Y337681D01*
X80855Y337669D01*
Y337657D01*
X81023Y337453D01*
X81155Y337261D01*
X81275Y337068D01*
X81371Y336900D01*
X81443Y336756D01*
X81491Y336648D01*
X81516Y336576D01*
X81528Y336564D01*
Y336552D01*
X81576Y336420D01*
X81600Y336300D01*
X81624Y336180D01*
X81636Y336071D01*
X81648Y335975D01*
Y335903D01*
Y335855D01*
Y335843D01*
X76133D01*
Y336828D01*
X80230D01*
X80086Y337033D01*
X80014Y337117D01*
X79954Y337201D01*
X79894Y337273D01*
X79845Y337321D01*
X79809Y337357D01*
X79798Y337369D01*
X79737Y337429D01*
X79665Y337489D01*
X79497Y337645D01*
X79305Y337825D01*
X79101Y338006D01*
X78908Y338162D01*
X78824Y338234D01*
X78752Y338306D01*
X78692Y338354D01*
X78644Y338390D01*
X78620Y338414D01*
X78608Y338426D01*
X78416Y338594D01*
X78224Y338750D01*
X78055Y338907D01*
X77899Y339039D01*
X77755Y339171D01*
X77635Y339291D01*
X77515Y339399D01*
X77419Y339495D01*
X77323Y339591D01*
X77250Y339664D01*
X77190Y339724D01*
X77130Y339784D01*
X77070Y339856D01*
X77046Y339880D01*
X76878Y340084D01*
X76734Y340264D01*
X76614Y340444D01*
X76518Y340589D01*
X76445Y340721D01*
X76398Y340817D01*
X76373Y340877D01*
X76361Y340901D01*
X76289Y341081D01*
X76241Y341261D01*
X76193Y341430D01*
X76169Y341574D01*
X76157Y341706D01*
X76145Y341802D01*
Y341862D01*
Y341886D01*
X76157Y342066D01*
X76181Y342235D01*
X76205Y342403D01*
X76253Y342547D01*
X76373Y342835D01*
X76494Y343064D01*
X76566Y343172D01*
X76626Y343256D01*
X76686Y343340D01*
X76746Y343400D01*
X76794Y343448D01*
X76818Y343496D01*
X76842Y343508D01*
X76854Y343520D01*
X76986Y343640D01*
X77130Y343748D01*
X77287Y343833D01*
X77443Y343905D01*
X77755Y344025D01*
X78067Y344109D01*
X78200Y344133D01*
X78332Y344157D01*
X78452Y344169D01*
X78548Y344181D01*
X78632Y344193D01*
X78752D01*
X78969Y344181D01*
D02*
G37*
G36*
X97867Y335843D02*
X96810D01*
Y342367D01*
X92460Y335843D01*
X91319D01*
Y344157D01*
X92376D01*
Y337621D01*
X96737Y344157D01*
X97867D01*
Y335843D01*
D02*
G37*
G36*
X86273Y344277D02*
X86658Y344217D01*
X86994Y344145D01*
X87150Y344097D01*
X87294Y344049D01*
X87427Y344001D01*
X87547Y343953D01*
X87643Y343917D01*
X87739Y343881D01*
X87799Y343844D01*
X87847Y343820D01*
X87883Y343809D01*
X87895Y343797D01*
X88219Y343592D01*
X88496Y343352D01*
X88736Y343112D01*
X88940Y342871D01*
X89096Y342655D01*
X89157Y342559D01*
X89205Y342475D01*
X89253Y342415D01*
X89277Y342367D01*
X89289Y342331D01*
X89301Y342319D01*
X89469Y341946D01*
X89589Y341562D01*
X89673Y341177D01*
X89733Y340829D01*
X89757Y340673D01*
X89769Y340517D01*
X89781Y340396D01*
Y340276D01*
X89793Y340192D01*
Y340120D01*
Y340072D01*
Y340060D01*
X89769Y339628D01*
X89721Y339207D01*
X89661Y338835D01*
X89613Y338654D01*
X89577Y338498D01*
X89541Y338354D01*
X89493Y338222D01*
X89457Y338102D01*
X89433Y338006D01*
X89397Y337934D01*
X89385Y337873D01*
X89361Y337837D01*
Y337825D01*
X89181Y337465D01*
X88976Y337141D01*
X88760Y336864D01*
X88652Y336756D01*
X88556Y336648D01*
X88460Y336552D01*
X88364Y336468D01*
X88279Y336396D01*
X88207Y336348D01*
X88159Y336300D01*
X88111Y336264D01*
X88087Y336252D01*
X88075Y336240D01*
X87907Y336143D01*
X87739Y336059D01*
X87378Y335927D01*
X87018Y335831D01*
X86670Y335771D01*
X86501Y335747D01*
X86357Y335723D01*
X86225Y335711D01*
X86117D01*
X86021Y335699D01*
X85889D01*
X85648Y335711D01*
X85420Y335735D01*
X85204Y335759D01*
X85000Y335807D01*
X84807Y335867D01*
X84627Y335927D01*
X84459Y335987D01*
X84303Y336059D01*
X84171Y336119D01*
X84038Y336180D01*
X83942Y336240D01*
X83846Y336300D01*
X83786Y336348D01*
X83726Y336372D01*
X83702Y336396D01*
X83690Y336408D01*
X83522Y336552D01*
X83378Y336696D01*
X83246Y336864D01*
X83113Y337033D01*
X82897Y337369D01*
X82729Y337705D01*
X82657Y337862D01*
X82597Y338006D01*
X82549Y338138D01*
X82513Y338246D01*
X82477Y338342D01*
X82453Y338414D01*
X82441Y338462D01*
Y338474D01*
X83546Y338750D01*
X83594Y338558D01*
X83654Y338378D01*
X83714Y338210D01*
X83774Y338054D01*
X83846Y337910D01*
X83918Y337789D01*
X84002Y337669D01*
X84074Y337561D01*
X84135Y337465D01*
X84207Y337393D01*
X84267Y337321D01*
X84315Y337261D01*
X84363Y337225D01*
X84399Y337189D01*
X84411Y337177D01*
X84423Y337165D01*
X84543Y337068D01*
X84675Y336996D01*
X84940Y336864D01*
X85192Y336768D01*
X85444Y336708D01*
X85660Y336660D01*
X85744Y336648D01*
X85829D01*
X85901Y336636D01*
X85985D01*
X86261Y336648D01*
X86525Y336696D01*
X86766Y336756D01*
X86982Y336828D01*
X87150Y336900D01*
X87222Y336936D01*
X87282Y336960D01*
X87330Y336984D01*
X87366Y337009D01*
X87390Y337020D01*
X87402D01*
X87631Y337189D01*
X87823Y337369D01*
X87991Y337573D01*
X88123Y337765D01*
X88231Y337934D01*
X88303Y338078D01*
X88328Y338138D01*
X88352Y338174D01*
X88364Y338198D01*
Y338210D01*
X88460Y338522D01*
X88532Y338835D01*
X88592Y339147D01*
X88628Y339435D01*
X88640Y339567D01*
X88652Y339688D01*
Y339796D01*
X88664Y339880D01*
Y339952D01*
Y340012D01*
Y340048D01*
Y340060D01*
X88652Y340372D01*
X88628Y340661D01*
X88580Y340925D01*
X88532Y341165D01*
X88496Y341370D01*
X88472Y341454D01*
X88448Y341526D01*
X88436Y341586D01*
X88424Y341622D01*
X88412Y341646D01*
Y341658D01*
X88292Y341934D01*
X88159Y342187D01*
X88015Y342391D01*
X87859Y342571D01*
X87727Y342715D01*
X87619Y342811D01*
X87535Y342871D01*
X87523Y342895D01*
X87511D01*
X87258Y343052D01*
X86982Y343172D01*
X86718Y343256D01*
X86465Y343304D01*
X86237Y343340D01*
X86141Y343352D01*
X86057D01*
X85997Y343364D01*
X85901D01*
X85600Y343352D01*
X85324Y343304D01*
X85096Y343232D01*
X84892Y343160D01*
X84735Y343076D01*
X84615Y343016D01*
X84543Y342967D01*
X84519Y342943D01*
X84327Y342763D01*
X84147Y342559D01*
X84002Y342343D01*
X83882Y342127D01*
X83786Y341934D01*
X83750Y341838D01*
X83726Y341766D01*
X83702Y341706D01*
X83678Y341658D01*
X83666Y341634D01*
Y341622D01*
X82585Y341874D01*
X82657Y342090D01*
X82729Y342283D01*
X82825Y342463D01*
X82909Y342643D01*
X83005Y342799D01*
X83113Y342943D01*
X83209Y343088D01*
X83306Y343208D01*
X83402Y343304D01*
X83486Y343400D01*
X83570Y343484D01*
X83630Y343544D01*
X83690Y343604D01*
X83738Y343640D01*
X83762Y343652D01*
X83774Y343664D01*
X83942Y343773D01*
X84111Y343881D01*
X84279Y343965D01*
X84459Y344037D01*
X84819Y344145D01*
X85144Y344217D01*
X85300Y344253D01*
X85432Y344265D01*
X85564Y344277D01*
X85672Y344289D01*
X85757Y344301D01*
X85877D01*
X86273Y344277D01*
D02*
G37*
G36*
X130644Y344181D02*
X130848Y344169D01*
X131041Y344133D01*
X131221Y344097D01*
X131389Y344049D01*
X131545Y344001D01*
X131689Y343941D01*
X131821Y343881D01*
X131942Y343820D01*
X132038Y343760D01*
X132122Y343712D01*
X132194Y343664D01*
X132254Y343628D01*
X132290Y343592D01*
X132314Y343580D01*
X132326Y343568D01*
X132446Y343448D01*
X132554Y343316D01*
X132662Y343172D01*
X132747Y343028D01*
X132891Y342739D01*
X132987Y342451D01*
X133023Y342319D01*
X133059Y342187D01*
X133083Y342079D01*
X133107Y341982D01*
X133119Y341898D01*
Y341838D01*
X133131Y341802D01*
Y341790D01*
X132086Y341682D01*
X132062Y341958D01*
X132014Y342199D01*
X131942Y342415D01*
X131858Y342583D01*
X131785Y342727D01*
X131713Y342823D01*
X131665Y342883D01*
X131641Y342907D01*
X131461Y343052D01*
X131269Y343160D01*
X131065Y343244D01*
X130884Y343292D01*
X130716Y343328D01*
X130572Y343340D01*
X130524Y343352D01*
X130452D01*
X130200Y343340D01*
X129971Y343292D01*
X129779Y343220D01*
X129611Y343148D01*
X129479Y343064D01*
X129395Y343004D01*
X129335Y342956D01*
X129311Y342932D01*
X129166Y342763D01*
X129058Y342595D01*
X128974Y342427D01*
X128926Y342259D01*
X128890Y342127D01*
X128878Y342006D01*
X128866Y341934D01*
Y341922D01*
Y341910D01*
X128890Y341694D01*
X128938Y341466D01*
X129022Y341261D01*
X129106Y341069D01*
X129202Y340913D01*
X129286Y340781D01*
X129311Y340733D01*
X129335Y340697D01*
X129359Y340685D01*
Y340673D01*
X129455Y340541D01*
X129575Y340409D01*
X129707Y340264D01*
X129851Y340120D01*
X130152Y339832D01*
X130452Y339543D01*
X130608Y339411D01*
X130740Y339291D01*
X130872Y339183D01*
X130981Y339087D01*
X131065Y339015D01*
X131137Y338955D01*
X131185Y338919D01*
X131197Y338907D01*
X131497Y338654D01*
X131773Y338414D01*
X132002Y338198D01*
X132182Y338018D01*
X132338Y337862D01*
X132446Y337753D01*
X132506Y337681D01*
X132530Y337669D01*
Y337657D01*
X132698Y337453D01*
X132831Y337261D01*
X132951Y337068D01*
X133047Y336900D01*
X133119Y336756D01*
X133167Y336648D01*
X133191Y336576D01*
X133203Y336564D01*
Y336552D01*
X133251Y336420D01*
X133275Y336300D01*
X133299Y336180D01*
X133311Y336071D01*
X133323Y335975D01*
Y335903D01*
Y335855D01*
Y335843D01*
X127809D01*
Y336828D01*
X131906D01*
X131761Y337033D01*
X131689Y337117D01*
X131629Y337201D01*
X131569Y337273D01*
X131521Y337321D01*
X131485Y337357D01*
X131473Y337369D01*
X131413Y337429D01*
X131341Y337489D01*
X131173Y337645D01*
X130981Y337825D01*
X130776Y338006D01*
X130584Y338162D01*
X130500Y338234D01*
X130428Y338306D01*
X130368Y338354D01*
X130320Y338390D01*
X130296Y338414D01*
X130284Y338426D01*
X130091Y338594D01*
X129899Y338750D01*
X129731Y338907D01*
X129575Y339039D01*
X129431Y339171D01*
X129311Y339291D01*
X129190Y339399D01*
X129094Y339495D01*
X128998Y339591D01*
X128926Y339664D01*
X128866Y339724D01*
X128806Y339784D01*
X128746Y339856D01*
X128722Y339880D01*
X128554Y340084D01*
X128410Y340264D01*
X128289Y340444D01*
X128193Y340589D01*
X128121Y340721D01*
X128073Y340817D01*
X128049Y340877D01*
X128037Y340901D01*
X127965Y341081D01*
X127917Y341261D01*
X127869Y341430D01*
X127845Y341574D01*
X127833Y341706D01*
X127821Y341802D01*
Y341862D01*
Y341886D01*
X127833Y342066D01*
X127857Y342235D01*
X127881Y342403D01*
X127929Y342547D01*
X128049Y342835D01*
X128169Y343064D01*
X128241Y343172D01*
X128301Y343256D01*
X128361Y343340D01*
X128421Y343400D01*
X128469Y343448D01*
X128494Y343496D01*
X128518Y343508D01*
X128530Y343520D01*
X128662Y343640D01*
X128806Y343748D01*
X128962Y343833D01*
X129118Y343905D01*
X129431Y344025D01*
X129743Y344109D01*
X129875Y344133D01*
X130007Y344157D01*
X130127Y344169D01*
X130224Y344181D01*
X130308Y344193D01*
X130428D01*
X130644Y344181D01*
D02*
G37*
G36*
X150191Y335843D02*
X149134D01*
Y342367D01*
X144785Y335843D01*
X143644D01*
Y344157D01*
X144701D01*
Y337621D01*
X149062Y344157D01*
X150191D01*
Y335843D01*
D02*
G37*
G36*
X138477Y344289D02*
X138778Y344253D01*
X139066Y344193D01*
X139342Y344121D01*
X139595Y344025D01*
X139835Y343929D01*
X140051Y343820D01*
X140244Y343712D01*
X140424Y343604D01*
X140580Y343496D01*
X140712Y343400D01*
X140820Y343304D01*
X140904Y343232D01*
X140976Y343172D01*
X141012Y343136D01*
X141024Y343124D01*
X141217Y342895D01*
X141385Y342655D01*
X141541Y342391D01*
X141661Y342127D01*
X141769Y341850D01*
X141865Y341586D01*
X141938Y341322D01*
X141986Y341069D01*
X142034Y340829D01*
X142070Y340601D01*
X142094Y340396D01*
X142118Y340228D01*
Y340084D01*
X142130Y339976D01*
Y339904D01*
Y339892D01*
Y339880D01*
X142106Y339471D01*
X142058Y339099D01*
X141986Y338739D01*
X141938Y338582D01*
X141889Y338426D01*
X141853Y338294D01*
X141805Y338174D01*
X141769Y338066D01*
X141733Y337970D01*
X141709Y337897D01*
X141685Y337850D01*
X141661Y337813D01*
Y337801D01*
X141457Y337453D01*
X141241Y337153D01*
X141000Y336888D01*
X140772Y336672D01*
X140568Y336492D01*
X140484Y336420D01*
X140412Y336372D01*
X140340Y336324D01*
X140292Y336288D01*
X140267Y336276D01*
X140255Y336264D01*
X140075Y336167D01*
X139895Y336083D01*
X139535Y335939D01*
X139186Y335843D01*
X138862Y335771D01*
X138706Y335747D01*
X138574Y335735D01*
X138453Y335711D01*
X138345D01*
X138273Y335699D01*
X138153D01*
X137757Y335723D01*
X137384Y335783D01*
X137036Y335855D01*
X136880Y335903D01*
X136735Y335951D01*
X136603Y335999D01*
X136483Y336047D01*
X136387Y336083D01*
X136303Y336119D01*
X136231Y336156D01*
X136171Y336180D01*
X136147Y336203D01*
X136135D01*
X135798Y336420D01*
X135510Y336660D01*
X135270Y336912D01*
X135065Y337153D01*
X134897Y337381D01*
X134837Y337465D01*
X134789Y337549D01*
X134741Y337621D01*
X134717Y337669D01*
X134693Y337705D01*
Y337717D01*
X134597Y337910D01*
X134525Y338102D01*
X134392Y338486D01*
X134296Y338871D01*
X134236Y339219D01*
X134224Y339375D01*
X134200Y339519D01*
X134188Y339652D01*
Y339760D01*
X134176Y339856D01*
Y339916D01*
Y339964D01*
Y339976D01*
X134200Y340433D01*
X134248Y340853D01*
X134284Y341045D01*
X134333Y341237D01*
X134381Y341406D01*
X134417Y341562D01*
X134465Y341706D01*
X134513Y341838D01*
X134549Y341946D01*
X134597Y342042D01*
X134621Y342114D01*
X134645Y342163D01*
X134669Y342199D01*
Y342211D01*
X134861Y342559D01*
X135089Y342871D01*
X135330Y343136D01*
X135546Y343352D01*
X135750Y343520D01*
X135846Y343592D01*
X135918Y343652D01*
X135990Y343688D01*
X136039Y343724D01*
X136062Y343736D01*
X136074Y343748D01*
X136255Y343844D01*
X136435Y343929D01*
X136783Y344073D01*
X137144Y344169D01*
X137456Y344229D01*
X137600Y344253D01*
X137745Y344277D01*
X137853Y344289D01*
X137961D01*
X138045Y344301D01*
X138153D01*
X138477Y344289D01*
D02*
G37*
G36*
X238831Y75969D02*
X239155Y75909D01*
X239431Y75813D01*
X239672Y75717D01*
X239780Y75657D01*
X239864Y75609D01*
X239948Y75560D01*
X240008Y75512D01*
X240056Y75476D01*
X240092Y75452D01*
X240116Y75440D01*
X240128Y75428D01*
X240357Y75200D01*
X240537Y74948D01*
X240681Y74683D01*
X240801Y74419D01*
X240873Y74191D01*
X240909Y74095D01*
X240933Y74011D01*
X240945Y73938D01*
X240957Y73891D01*
X240969Y73854D01*
Y73842D01*
X239948Y73662D01*
X239900Y73927D01*
X239828Y74155D01*
X239744Y74347D01*
X239660Y74503D01*
X239576Y74623D01*
X239503Y74707D01*
X239456Y74767D01*
X239443Y74780D01*
X239287Y74900D01*
X239119Y74996D01*
X238963Y75056D01*
X238807Y75104D01*
X238662Y75128D01*
X238554Y75152D01*
X238458D01*
X238242Y75140D01*
X238050Y75092D01*
X237882Y75032D01*
X237737Y74972D01*
X237629Y74900D01*
X237545Y74840D01*
X237485Y74791D01*
X237473Y74780D01*
X237341Y74635D01*
X237245Y74479D01*
X237185Y74323D01*
X237137Y74179D01*
X237113Y74047D01*
X237089Y73951D01*
Y73878D01*
Y73867D01*
Y73854D01*
Y73722D01*
X237113Y73602D01*
X237173Y73398D01*
X237257Y73218D01*
X237353Y73061D01*
X237449Y72953D01*
X237533Y72869D01*
X237593Y72821D01*
X237605Y72809D01*
X237617D01*
X237822Y72701D01*
X238014Y72617D01*
X238218Y72557D01*
X238398Y72521D01*
X238554Y72497D01*
X238687Y72473D01*
X238843D01*
X238891Y72485D01*
X238951D01*
X239071Y71584D01*
X238915Y71620D01*
X238771Y71644D01*
X238650Y71668D01*
X238542Y71680D01*
X238458Y71692D01*
X238350D01*
X238098Y71668D01*
X237870Y71620D01*
X237665Y71548D01*
X237497Y71464D01*
X237365Y71379D01*
X237269Y71307D01*
X237209Y71259D01*
X237185Y71235D01*
X237029Y71055D01*
X236908Y70863D01*
X236824Y70671D01*
X236776Y70478D01*
X236740Y70322D01*
X236728Y70190D01*
X236716Y70142D01*
Y70106D01*
Y70082D01*
Y70070D01*
X236740Y69806D01*
X236800Y69565D01*
X236872Y69361D01*
X236968Y69181D01*
X237065Y69037D01*
X237137Y68929D01*
X237197Y68857D01*
X237221Y68833D01*
X237413Y68664D01*
X237617Y68544D01*
X237822Y68460D01*
X238014Y68400D01*
X238182Y68364D01*
X238314Y68352D01*
X238362Y68340D01*
X238434D01*
X238650Y68352D01*
X238855Y68400D01*
X239035Y68460D01*
X239179Y68532D01*
X239299Y68592D01*
X239395Y68652D01*
X239443Y68700D01*
X239468Y68712D01*
X239612Y68881D01*
X239732Y69073D01*
X239840Y69277D01*
X239924Y69493D01*
X239984Y69674D01*
X240008Y69758D01*
X240020Y69830D01*
X240032Y69890D01*
X240044Y69938D01*
X240056Y69962D01*
Y69974D01*
X241077Y69842D01*
X241053Y69650D01*
X241017Y69469D01*
X240909Y69133D01*
X240777Y68844D01*
X240705Y68724D01*
X240633Y68604D01*
X240561Y68496D01*
X240489Y68412D01*
X240429Y68328D01*
X240368Y68268D01*
X240333Y68220D01*
X240296Y68184D01*
X240272Y68160D01*
X240260Y68148D01*
X240116Y68040D01*
X239972Y67931D01*
X239828Y67847D01*
X239672Y67775D01*
X239371Y67655D01*
X239083Y67583D01*
X238951Y67559D01*
X238831Y67535D01*
X238723Y67523D01*
X238626Y67511D01*
X238554Y67499D01*
X238446D01*
X238218Y67511D01*
X238014Y67535D01*
X237810Y67571D01*
X237617Y67619D01*
X237437Y67679D01*
X237281Y67739D01*
X237125Y67811D01*
X236992Y67883D01*
X236860Y67944D01*
X236752Y68015D01*
X236656Y68076D01*
X236584Y68136D01*
X236524Y68184D01*
X236476Y68220D01*
X236452Y68244D01*
X236440Y68256D01*
X236296Y68400D01*
X236176Y68556D01*
X236067Y68712D01*
X235971Y68868D01*
X235899Y69013D01*
X235827Y69169D01*
X235731Y69457D01*
X235707Y69589D01*
X235683Y69710D01*
X235659Y69818D01*
X235647Y69914D01*
X235635Y69986D01*
Y70046D01*
Y70082D01*
Y70094D01*
X235647Y70382D01*
X235695Y70647D01*
X235767Y70875D01*
X235839Y71067D01*
X235911Y71223D01*
X235983Y71343D01*
X236031Y71416D01*
X236043Y71440D01*
X236212Y71620D01*
X236392Y71776D01*
X236584Y71896D01*
X236776Y71992D01*
X236945Y72064D01*
X237077Y72112D01*
X237125Y72124D01*
X237161Y72136D01*
X237185Y72148D01*
X237197D01*
X236992Y72256D01*
X236824Y72365D01*
X236680Y72485D01*
X236560Y72593D01*
X236464Y72689D01*
X236392Y72773D01*
X236356Y72821D01*
X236344Y72845D01*
X236248Y73013D01*
X236176Y73182D01*
X236115Y73350D01*
X236080Y73506D01*
X236055Y73638D01*
X236043Y73734D01*
Y73806D01*
Y73830D01*
X236055Y74035D01*
X236091Y74239D01*
X236140Y74419D01*
X236200Y74575D01*
X236260Y74707D01*
X236308Y74816D01*
X236344Y74876D01*
X236356Y74900D01*
X236476Y75080D01*
X236620Y75236D01*
X236764Y75368D01*
X236908Y75488D01*
X237029Y75573D01*
X237137Y75645D01*
X237209Y75681D01*
X237221Y75693D01*
X237233D01*
X237449Y75789D01*
X237665Y75861D01*
X237882Y75921D01*
X238074Y75957D01*
X238230Y75981D01*
X238362Y75993D01*
X238662D01*
X238831Y75969D01*
D02*
G37*
G36*
X249067Y67643D02*
X248010D01*
Y74167D01*
X243660Y67643D01*
X242519D01*
Y75957D01*
X243576D01*
Y69421D01*
X247938Y75957D01*
X249067D01*
Y67643D01*
D02*
G37*
G36*
X254245Y76077D02*
X254629Y76017D01*
X254966Y75945D01*
X255122Y75897D01*
X255266Y75849D01*
X255398Y75801D01*
X255518Y75753D01*
X255615Y75717D01*
X255711Y75681D01*
X255771Y75645D01*
X255819Y75620D01*
X255855Y75609D01*
X255867Y75596D01*
X256191Y75392D01*
X256468Y75152D01*
X256708Y74912D01*
X256912Y74671D01*
X257068Y74455D01*
X257128Y74359D01*
X257176Y74275D01*
X257225Y74215D01*
X257248Y74167D01*
X257260Y74131D01*
X257272Y74119D01*
X257441Y73746D01*
X257561Y73362D01*
X257645Y72977D01*
X257705Y72629D01*
X257729Y72473D01*
X257741Y72317D01*
X257753Y72196D01*
Y72076D01*
X257765Y71992D01*
Y71920D01*
Y71872D01*
Y71860D01*
X257741Y71428D01*
X257693Y71007D01*
X257633Y70635D01*
X257585Y70454D01*
X257549Y70298D01*
X257513Y70154D01*
X257465Y70022D01*
X257429Y69902D01*
X257405Y69806D01*
X257369Y69734D01*
X257357Y69674D01*
X257333Y69637D01*
Y69625D01*
X257152Y69265D01*
X256948Y68941D01*
X256732Y68664D01*
X256624Y68556D01*
X256528Y68448D01*
X256432Y68352D01*
X256335Y68268D01*
X256251Y68196D01*
X256179Y68148D01*
X256131Y68100D01*
X256083Y68064D01*
X256059Y68052D01*
X256047Y68040D01*
X255879Y67944D01*
X255711Y67859D01*
X255350Y67727D01*
X254990Y67631D01*
X254641Y67571D01*
X254473Y67547D01*
X254329Y67523D01*
X254197Y67511D01*
X254089D01*
X253993Y67499D01*
X253860D01*
X253620Y67511D01*
X253392Y67535D01*
X253176Y67559D01*
X252971Y67607D01*
X252779Y67667D01*
X252599Y67727D01*
X252431Y67787D01*
X252275Y67859D01*
X252142Y67919D01*
X252010Y67979D01*
X251914Y68040D01*
X251818Y68100D01*
X251758Y68148D01*
X251698Y68172D01*
X251674Y68196D01*
X251662Y68208D01*
X251494Y68352D01*
X251350Y68496D01*
X251217Y68664D01*
X251085Y68833D01*
X250869Y69169D01*
X250701Y69505D01*
X250629Y69661D01*
X250569Y69806D01*
X250520Y69938D01*
X250485Y70046D01*
X250448Y70142D01*
X250424Y70214D01*
X250412Y70262D01*
Y70274D01*
X251518Y70550D01*
X251566Y70358D01*
X251626Y70178D01*
X251686Y70010D01*
X251746Y69854D01*
X251818Y69710D01*
X251890Y69589D01*
X251974Y69469D01*
X252046Y69361D01*
X252106Y69265D01*
X252178Y69193D01*
X252239Y69121D01*
X252287Y69061D01*
X252335Y69025D01*
X252371Y68989D01*
X252383Y68977D01*
X252395Y68965D01*
X252515Y68868D01*
X252647Y68797D01*
X252911Y68664D01*
X253164Y68568D01*
X253416Y68508D01*
X253632Y68460D01*
X253716Y68448D01*
X253800D01*
X253873Y68436D01*
X253957D01*
X254233Y68448D01*
X254497Y68496D01*
X254737Y68556D01*
X254954Y68628D01*
X255122Y68700D01*
X255194Y68736D01*
X255254Y68760D01*
X255302Y68784D01*
X255338Y68808D01*
X255362Y68821D01*
X255374D01*
X255602Y68989D01*
X255795Y69169D01*
X255963Y69373D01*
X256095Y69565D01*
X256203Y69734D01*
X256275Y69878D01*
X256299Y69938D01*
X256323Y69974D01*
X256335Y69998D01*
Y70010D01*
X256432Y70322D01*
X256504Y70635D01*
X256564Y70947D01*
X256600Y71235D01*
X256612Y71368D01*
X256624Y71488D01*
Y71596D01*
X256636Y71680D01*
Y71752D01*
Y71812D01*
Y71848D01*
Y71860D01*
X256624Y72172D01*
X256600Y72461D01*
X256552Y72725D01*
X256504Y72965D01*
X256468Y73170D01*
X256444Y73254D01*
X256420Y73326D01*
X256408Y73386D01*
X256395Y73422D01*
X256383Y73446D01*
Y73458D01*
X256263Y73734D01*
X256131Y73987D01*
X255987Y74191D01*
X255831Y74371D01*
X255699Y74515D01*
X255590Y74611D01*
X255506Y74671D01*
X255494Y74695D01*
X255482D01*
X255230Y74852D01*
X254954Y74972D01*
X254690Y75056D01*
X254437Y75104D01*
X254209Y75140D01*
X254113Y75152D01*
X254029D01*
X253969Y75164D01*
X253873D01*
X253572Y75152D01*
X253296Y75104D01*
X253067Y75032D01*
X252863Y74960D01*
X252707Y74876D01*
X252587Y74816D01*
X252515Y74767D01*
X252491Y74743D01*
X252299Y74563D01*
X252118Y74359D01*
X251974Y74143D01*
X251854Y73927D01*
X251758Y73734D01*
X251722Y73638D01*
X251698Y73566D01*
X251674Y73506D01*
X251650Y73458D01*
X251638Y73434D01*
Y73422D01*
X250557Y73674D01*
X250629Y73891D01*
X250701Y74083D01*
X250797Y74263D01*
X250881Y74443D01*
X250977Y74599D01*
X251085Y74743D01*
X251181Y74888D01*
X251277Y75008D01*
X251374Y75104D01*
X251458Y75200D01*
X251542Y75284D01*
X251602Y75344D01*
X251662Y75404D01*
X251710Y75440D01*
X251734Y75452D01*
X251746Y75464D01*
X251914Y75573D01*
X252082Y75681D01*
X252251Y75765D01*
X252431Y75837D01*
X252791Y75945D01*
X253116Y76017D01*
X253272Y76053D01*
X253404Y76065D01*
X253536Y76077D01*
X253644Y76089D01*
X253728Y76101D01*
X253848D01*
X254245Y76077D01*
D02*
G37*
%LPC*%
G36*
X556395Y89973D02*
X554472D01*
X554316Y89961D01*
X554160D01*
X554016Y89949D01*
X553776Y89913D01*
X553583Y89889D01*
X553427Y89853D01*
X553319Y89817D01*
X553259Y89805D01*
X553235Y89793D01*
X553019Y89684D01*
X552814Y89552D01*
X552634Y89396D01*
X552478Y89240D01*
X552358Y89096D01*
X552262Y88976D01*
X552238Y88928D01*
X552214Y88891D01*
X552190Y88868D01*
Y88855D01*
X552118Y88723D01*
X552046Y88567D01*
X551937Y88255D01*
X551865Y87918D01*
X551805Y87594D01*
X551793Y87450D01*
X551781Y87306D01*
X551769Y87185D01*
Y87077D01*
X551757Y86981D01*
Y86921D01*
Y86873D01*
Y86861D01*
X551769Y86525D01*
X551793Y86212D01*
X551829Y85936D01*
X551865Y85696D01*
X551889Y85600D01*
X551913Y85516D01*
X551937Y85431D01*
X551949Y85371D01*
X551962Y85323D01*
X551973Y85287D01*
X551986Y85263D01*
Y85251D01*
X552070Y85023D01*
X552166Y84819D01*
X552274Y84639D01*
X552370Y84482D01*
X552454Y84362D01*
X552526Y84278D01*
X552574Y84230D01*
X552586Y84206D01*
X552706Y84110D01*
X552826Y84026D01*
X552947Y83954D01*
X553067Y83882D01*
X553175Y83834D01*
X553259Y83798D01*
X553319Y83785D01*
X553343Y83773D01*
X553523Y83725D01*
X553740Y83689D01*
X553956Y83665D01*
X554160Y83653D01*
X554340Y83641D01*
X554424Y83629D01*
X556395D01*
Y89973D01*
D02*
G37*
G36*
X521145Y159579D02*
X519222D01*
X519066Y159567D01*
X518910D01*
X518766Y159555D01*
X518526Y159519D01*
X518333Y159495D01*
X518177Y159459D01*
X518069Y159423D01*
X518009Y159410D01*
X517985Y159398D01*
X517769Y159290D01*
X517565Y159158D01*
X517384Y159002D01*
X517228Y158846D01*
X517108Y158702D01*
X517012Y158581D01*
X516988Y158533D01*
X516964Y158497D01*
X516940Y158473D01*
Y158461D01*
X516868Y158329D01*
X516796Y158173D01*
X516687Y157861D01*
X516615Y157524D01*
X516555Y157200D01*
X516543Y157056D01*
X516531Y156911D01*
X516519Y156791D01*
Y156683D01*
X516507Y156587D01*
Y156527D01*
Y156479D01*
Y156467D01*
X516519Y156131D01*
X516543Y155818D01*
X516579Y155542D01*
X516615Y155302D01*
X516639Y155205D01*
X516663Y155121D01*
X516687Y155037D01*
X516699Y154977D01*
X516712Y154929D01*
X516724Y154893D01*
X516735Y154869D01*
Y154857D01*
X516820Y154629D01*
X516916Y154425D01*
X517024Y154244D01*
X517120Y154088D01*
X517204Y153968D01*
X517276Y153884D01*
X517324Y153836D01*
X517336Y153812D01*
X517456Y153716D01*
X517576Y153632D01*
X517697Y153560D01*
X517817Y153488D01*
X517925Y153439D01*
X518009Y153403D01*
X518069Y153391D01*
X518093Y153379D01*
X518273Y153331D01*
X518490Y153295D01*
X518706Y153271D01*
X518910Y153259D01*
X519090Y153247D01*
X519174Y153235D01*
X521145D01*
Y159579D01*
D02*
G37*
G36*
X324291Y252006D02*
X324207Y251729D01*
X324110Y251441D01*
X324014Y251152D01*
X323918Y250876D01*
X323870Y250756D01*
X323834Y250636D01*
X323798Y250528D01*
X323762Y250444D01*
X323738Y250372D01*
X323714Y250312D01*
X323702Y250275D01*
Y250264D01*
X322837Y247981D01*
X325648D01*
X324747Y250408D01*
X324639Y250708D01*
X324555Y250996D01*
X324471Y251261D01*
X324411Y251501D01*
X324363Y251705D01*
X324339Y251789D01*
X324327Y251873D01*
X324303Y251921D01*
Y251970D01*
X324291Y251994D01*
Y252006D01*
D02*
G37*
G36*
X318260Y251945D02*
X315641D01*
X315316Y251933D01*
X315040Y251885D01*
X314799Y251825D01*
X314619Y251753D01*
X314463Y251681D01*
X314367Y251621D01*
X314307Y251573D01*
X314283Y251561D01*
X314139Y251405D01*
X314031Y251249D01*
X313958Y251080D01*
X313899Y250936D01*
X313874Y250792D01*
X313862Y250684D01*
X313850Y250612D01*
Y250600D01*
Y250588D01*
X313862Y250444D01*
X313886Y250299D01*
X313923Y250179D01*
X313958Y250071D01*
X314007Y249975D01*
X314043Y249903D01*
X314067Y249855D01*
X314079Y249843D01*
X314163Y249723D01*
X314271Y249615D01*
X314379Y249531D01*
X314487Y249459D01*
X314583Y249410D01*
X314655Y249374D01*
X314703Y249350D01*
X314727Y249338D01*
X314896Y249290D01*
X315088Y249254D01*
X315280Y249230D01*
X315472Y249218D01*
X315641Y249206D01*
X315785Y249194D01*
X318260D01*
Y251945D01*
D02*
G37*
G36*
X296310D02*
X293691D01*
X293366Y251933D01*
X293090Y251885D01*
X292850Y251825D01*
X292669Y251753D01*
X292513Y251681D01*
X292417Y251621D01*
X292357Y251573D01*
X292333Y251561D01*
X292189Y251405D01*
X292081Y251249D01*
X292009Y251080D01*
X291949Y250936D01*
X291924Y250792D01*
X291912Y250684D01*
X291901Y250612D01*
Y250600D01*
Y250588D01*
X291912Y250444D01*
X291936Y250299D01*
X291973Y250179D01*
X292009Y250071D01*
X292057Y249975D01*
X292093Y249903D01*
X292117Y249855D01*
X292129Y249843D01*
X292213Y249723D01*
X292321Y249615D01*
X292429Y249531D01*
X292537Y249459D01*
X292633Y249410D01*
X292705Y249374D01*
X292754Y249350D01*
X292778Y249338D01*
X292946Y249290D01*
X293138Y249254D01*
X293330Y249230D01*
X293522Y249218D01*
X293691Y249206D01*
X293835Y249194D01*
X296310D01*
Y251945D01*
D02*
G37*
G36*
X323291Y188006D02*
X323207Y187729D01*
X323111Y187441D01*
X323014Y187153D01*
X322918Y186876D01*
X322870Y186756D01*
X322834Y186636D01*
X322798Y186528D01*
X322762Y186444D01*
X322738Y186372D01*
X322714Y186311D01*
X322702Y186276D01*
Y186264D01*
X321837Y183981D01*
X324648D01*
X323747Y186408D01*
X323639Y186708D01*
X323555Y186996D01*
X323471Y187261D01*
X323411Y187501D01*
X323363Y187705D01*
X323339Y187789D01*
X323327Y187873D01*
X323303Y187921D01*
Y187969D01*
X323291Y187994D01*
Y188006D01*
D02*
G37*
G36*
X317260Y187945D02*
X314641D01*
X314316Y187934D01*
X314040Y187885D01*
X313799Y187825D01*
X313619Y187753D01*
X313463Y187681D01*
X313367Y187621D01*
X313307Y187573D01*
X313283Y187561D01*
X313139Y187405D01*
X313031Y187249D01*
X312959Y187080D01*
X312899Y186936D01*
X312874Y186792D01*
X312862Y186684D01*
X312850Y186612D01*
Y186600D01*
Y186588D01*
X312862Y186444D01*
X312886Y186299D01*
X312922Y186179D01*
X312959Y186071D01*
X313007Y185975D01*
X313043Y185903D01*
X313067Y185855D01*
X313079Y185843D01*
X313163Y185723D01*
X313271Y185615D01*
X313379Y185531D01*
X313487Y185459D01*
X313583Y185410D01*
X313655Y185374D01*
X313703Y185350D01*
X313727Y185338D01*
X313896Y185290D01*
X314088Y185254D01*
X314280Y185230D01*
X314472Y185218D01*
X314641Y185206D01*
X314785Y185194D01*
X317260D01*
Y187945D01*
D02*
G37*
G36*
X225631Y311403D02*
X225523D01*
X225223Y311391D01*
X224935Y311343D01*
X224682Y311271D01*
X224466Y311199D01*
X224286Y311115D01*
X224214Y311079D01*
X224154Y311055D01*
X224094Y311019D01*
X224058Y311007D01*
X224046Y310982D01*
X224034D01*
X223805Y310814D01*
X223601Y310622D01*
X223421Y310430D01*
X223277Y310238D01*
X223169Y310070D01*
X223084Y309925D01*
X223060Y309877D01*
X223036Y309841D01*
X223024Y309817D01*
Y309805D01*
X222904Y309517D01*
X222820Y309204D01*
X222760Y308916D01*
X222724Y308640D01*
X222700Y308508D01*
X222688Y308400D01*
Y308291D01*
X222676Y308207D01*
Y308135D01*
Y308087D01*
Y308051D01*
Y308039D01*
X222688Y307751D01*
X222712Y307474D01*
X222748Y307210D01*
X222796Y306970D01*
X222868Y306754D01*
X222928Y306549D01*
X223000Y306357D01*
X223072Y306189D01*
X223157Y306045D01*
X223229Y305912D01*
X223289Y305804D01*
X223349Y305720D01*
X223409Y305648D01*
X223445Y305588D01*
X223469Y305564D01*
X223481Y305552D01*
X223637Y305396D01*
X223805Y305264D01*
X223974Y305156D01*
X224142Y305047D01*
X224310Y304963D01*
X224490Y304903D01*
X224646Y304843D01*
X224814Y304795D01*
X224959Y304759D01*
X225103Y304735D01*
X225223Y304711D01*
X225331Y304699D01*
X225415D01*
X225475Y304687D01*
X225535D01*
X225764Y304699D01*
X225980Y304723D01*
X226172Y304771D01*
X226364Y304819D01*
X226544Y304891D01*
X226713Y304963D01*
X226869Y305035D01*
X227013Y305120D01*
X227133Y305204D01*
X227241Y305276D01*
X227337Y305348D01*
X227421Y305420D01*
X227482Y305468D01*
X227530Y305516D01*
X227554Y305540D01*
X227566Y305552D01*
X227710Y305720D01*
X227830Y305900D01*
X227938Y306093D01*
X228034Y306285D01*
X228106Y306489D01*
X228178Y306681D01*
X228274Y307066D01*
X228299Y307234D01*
X228323Y307402D01*
X228347Y307547D01*
X228359Y307667D01*
X228371Y307775D01*
Y307859D01*
Y307907D01*
Y307919D01*
X228359Y308255D01*
X228335Y308568D01*
X228299Y308868D01*
X228239Y309132D01*
X228178Y309373D01*
X228106Y309589D01*
X228022Y309793D01*
X227950Y309961D01*
X227866Y310117D01*
X227794Y310250D01*
X227722Y310358D01*
X227662Y310442D01*
X227602Y310514D01*
X227566Y310562D01*
X227542Y310586D01*
X227530Y310598D01*
X227374Y310742D01*
X227205Y310862D01*
X227037Y310970D01*
X226857Y311067D01*
X226689Y311139D01*
X226521Y311211D01*
X226208Y311307D01*
X226064Y311331D01*
X225932Y311355D01*
X225824Y311379D01*
X225716Y311391D01*
X225631Y311403D01*
D02*
G37*
G36*
X243881Y377653D02*
X243773D01*
X243473Y377641D01*
X243185Y377593D01*
X242932Y377521D01*
X242716Y377449D01*
X242536Y377365D01*
X242464Y377329D01*
X242404Y377305D01*
X242344Y377269D01*
X242308Y377257D01*
X242296Y377233D01*
X242283D01*
X242055Y377064D01*
X241851Y376872D01*
X241671Y376680D01*
X241527Y376488D01*
X241418Y376320D01*
X241334Y376175D01*
X241310Y376127D01*
X241286Y376091D01*
X241274Y376067D01*
Y376055D01*
X241154Y375767D01*
X241070Y375454D01*
X241010Y375166D01*
X240974Y374890D01*
X240950Y374758D01*
X240938Y374650D01*
Y374541D01*
X240926Y374457D01*
Y374385D01*
Y374337D01*
Y374301D01*
Y374289D01*
X240938Y374001D01*
X240962Y373724D01*
X240998Y373460D01*
X241046Y373220D01*
X241118Y373004D01*
X241178Y372799D01*
X241250Y372607D01*
X241322Y372439D01*
X241406Y372295D01*
X241479Y372163D01*
X241539Y372054D01*
X241599Y371970D01*
X241659Y371898D01*
X241695Y371838D01*
X241719Y371814D01*
X241731Y371802D01*
X241887Y371646D01*
X242055Y371514D01*
X242223Y371406D01*
X242392Y371297D01*
X242560Y371213D01*
X242740Y371153D01*
X242896Y371093D01*
X243064Y371045D01*
X243209Y371009D01*
X243353Y370985D01*
X243473Y370961D01*
X243581Y370949D01*
X243665D01*
X243725Y370937D01*
X243785D01*
X244014Y370949D01*
X244230Y370973D01*
X244422Y371021D01*
X244614Y371069D01*
X244795Y371141D01*
X244963Y371213D01*
X245119Y371286D01*
X245263Y371370D01*
X245383Y371454D01*
X245491Y371526D01*
X245587Y371598D01*
X245672Y371670D01*
X245732Y371718D01*
X245780Y371766D01*
X245804Y371790D01*
X245816Y371802D01*
X245960Y371970D01*
X246080Y372150D01*
X246188Y372343D01*
X246284Y372535D01*
X246356Y372739D01*
X246428Y372932D01*
X246525Y373316D01*
X246549Y373484D01*
X246573Y373652D01*
X246597Y373797D01*
X246609Y373917D01*
X246621Y374025D01*
Y374109D01*
Y374157D01*
Y374169D01*
X246609Y374505D01*
X246585Y374818D01*
X246549Y375118D01*
X246488Y375382D01*
X246428Y375623D01*
X246356Y375839D01*
X246272Y376043D01*
X246200Y376211D01*
X246116Y376367D01*
X246044Y376500D01*
X245972Y376608D01*
X245912Y376692D01*
X245852Y376764D01*
X245816Y376812D01*
X245792Y376836D01*
X245780Y376848D01*
X245623Y376992D01*
X245455Y377112D01*
X245287Y377220D01*
X245107Y377317D01*
X244939Y377389D01*
X244771Y377461D01*
X244458Y377557D01*
X244314Y377581D01*
X244182Y377605D01*
X244074Y377629D01*
X243965Y377641D01*
X243881Y377653D01*
D02*
G37*
G36*
X192947Y343352D02*
X192838D01*
X192538Y343340D01*
X192250Y343292D01*
X191998Y343220D01*
X191781Y343148D01*
X191601Y343064D01*
X191529Y343028D01*
X191469Y343004D01*
X191409Y342967D01*
X191373Y342956D01*
X191361Y342932D01*
X191349D01*
X191120Y342763D01*
X190916Y342571D01*
X190736Y342379D01*
X190592Y342187D01*
X190484Y342018D01*
X190400Y341874D01*
X190376Y341826D01*
X190352Y341790D01*
X190340Y341766D01*
Y341754D01*
X190219Y341466D01*
X190135Y341153D01*
X190075Y340865D01*
X190039Y340589D01*
X190015Y340457D01*
X190003Y340348D01*
Y340240D01*
X189991Y340156D01*
Y340084D01*
Y340036D01*
Y340000D01*
Y339988D01*
X190003Y339700D01*
X190027Y339423D01*
X190063Y339159D01*
X190111Y338919D01*
X190183Y338703D01*
X190243Y338498D01*
X190315Y338306D01*
X190388Y338138D01*
X190472Y337994D01*
X190544Y337862D01*
X190604Y337753D01*
X190664Y337669D01*
X190724Y337597D01*
X190760Y337537D01*
X190784Y337513D01*
X190796Y337501D01*
X190952Y337345D01*
X191120Y337213D01*
X191289Y337105D01*
X191457Y336996D01*
X191625Y336912D01*
X191805Y336852D01*
X191961Y336792D01*
X192130Y336744D01*
X192274Y336708D01*
X192418Y336684D01*
X192538Y336660D01*
X192646Y336648D01*
X192730D01*
X192791Y336636D01*
X192850D01*
X193079Y336648D01*
X193295Y336672D01*
X193487Y336720D01*
X193680Y336768D01*
X193860Y336840D01*
X194028Y336912D01*
X194184Y336984D01*
X194328Y337068D01*
X194448Y337153D01*
X194557Y337225D01*
X194653Y337297D01*
X194737Y337369D01*
X194797Y337417D01*
X194845Y337465D01*
X194869Y337489D01*
X194881Y337501D01*
X195025Y337669D01*
X195145Y337850D01*
X195253Y338042D01*
X195350Y338234D01*
X195422Y338438D01*
X195494Y338630D01*
X195590Y339015D01*
X195614Y339183D01*
X195638Y339351D01*
X195662Y339495D01*
X195674Y339616D01*
X195686Y339724D01*
Y339808D01*
Y339856D01*
Y339868D01*
X195674Y340204D01*
X195650Y340517D01*
X195614Y340817D01*
X195554Y341081D01*
X195494Y341322D01*
X195422Y341538D01*
X195338Y341742D01*
X195265Y341910D01*
X195181Y342066D01*
X195109Y342199D01*
X195037Y342307D01*
X194977Y342391D01*
X194917Y342463D01*
X194881Y342511D01*
X194857Y342535D01*
X194845Y342547D01*
X194689Y342691D01*
X194520Y342811D01*
X194352Y342920D01*
X194172Y343016D01*
X194004Y343088D01*
X193836Y343160D01*
X193523Y343256D01*
X193379Y343280D01*
X193247Y343304D01*
X193139Y343328D01*
X193031Y343340D01*
X192947Y343352D01*
D02*
G37*
G36*
X138261D02*
X138153D01*
X137853Y343340D01*
X137564Y343292D01*
X137312Y343220D01*
X137096Y343148D01*
X136916Y343064D01*
X136843Y343028D01*
X136783Y343004D01*
X136723Y342967D01*
X136687Y342956D01*
X136675Y342932D01*
X136663D01*
X136435Y342763D01*
X136231Y342571D01*
X136051Y342379D01*
X135906Y342187D01*
X135798Y342018D01*
X135714Y341874D01*
X135690Y341826D01*
X135666Y341790D01*
X135654Y341766D01*
Y341754D01*
X135534Y341466D01*
X135450Y341153D01*
X135390Y340865D01*
X135354Y340589D01*
X135330Y340457D01*
X135318Y340348D01*
Y340240D01*
X135306Y340156D01*
Y340084D01*
Y340036D01*
Y340000D01*
Y339988D01*
X135318Y339700D01*
X135342Y339423D01*
X135378Y339159D01*
X135426Y338919D01*
X135498Y338703D01*
X135558Y338498D01*
X135630Y338306D01*
X135702Y338138D01*
X135786Y337994D01*
X135858Y337862D01*
X135918Y337753D01*
X135978Y337669D01*
X136039Y337597D01*
X136074Y337537D01*
X136099Y337513D01*
X136111Y337501D01*
X136267Y337345D01*
X136435Y337213D01*
X136603Y337105D01*
X136771Y336996D01*
X136940Y336912D01*
X137120Y336852D01*
X137276Y336792D01*
X137444Y336744D01*
X137588Y336708D01*
X137732Y336684D01*
X137853Y336660D01*
X137961Y336648D01*
X138045D01*
X138105Y336636D01*
X138165D01*
X138393Y336648D01*
X138610Y336672D01*
X138802Y336720D01*
X138994Y336768D01*
X139174Y336840D01*
X139342Y336912D01*
X139499Y336984D01*
X139643Y337068D01*
X139763Y337153D01*
X139871Y337225D01*
X139967Y337297D01*
X140051Y337369D01*
X140111Y337417D01*
X140159Y337465D01*
X140183Y337489D01*
X140195Y337501D01*
X140340Y337669D01*
X140460Y337850D01*
X140568Y338042D01*
X140664Y338234D01*
X140736Y338438D01*
X140808Y338630D01*
X140904Y339015D01*
X140928Y339183D01*
X140952Y339351D01*
X140976Y339495D01*
X140988Y339616D01*
X141000Y339724D01*
Y339808D01*
Y339856D01*
Y339868D01*
X140988Y340204D01*
X140964Y340517D01*
X140928Y340817D01*
X140868Y341081D01*
X140808Y341322D01*
X140736Y341538D01*
X140652Y341742D01*
X140580Y341910D01*
X140496Y342066D01*
X140424Y342199D01*
X140352Y342307D01*
X140292Y342391D01*
X140231Y342463D01*
X140195Y342511D01*
X140171Y342535D01*
X140159Y342547D01*
X140003Y342691D01*
X139835Y342811D01*
X139667Y342920D01*
X139487Y343016D01*
X139318Y343088D01*
X139150Y343160D01*
X138838Y343256D01*
X138694Y343280D01*
X138561Y343304D01*
X138453Y343328D01*
X138345Y343340D01*
X138261Y343352D01*
D02*
G37*
%LPD*%
D11*
X523562Y141000D02*
G03*
X523562Y141000I-8062J0D01*
G01*
X559062Y71000D02*
G03*
X559062Y71000I-8062J0D01*
G01*
X189062Y146000D02*
G03*
X189062Y146000I-8062J0D01*
G01*
X244062Y145250D02*
G03*
X244062Y145250I-8062J0D01*
G01*
X317062Y231000D02*
G03*
X317062Y231000I-8062J0D01*
G01*
Y201000D02*
G03*
X317062Y201000I-8062J0D01*
G01*
X241062Y359000D02*
G03*
X241062Y359000I-8062J0D01*
G01*
X224062Y323500D02*
G03*
X224062Y323500I-8062J0D01*
G01*
D15*
X251000Y34000D02*
X259000Y34000D01*
X225000Y64000D02*
X259000Y64000D01*
Y34000D02*
Y64000D01*
X200000Y34000D02*
X230000Y34000D01*
X175000Y64000D02*
X205000D01*
X149000Y34000D02*
X179000D01*
X124000Y64000D02*
X154000Y64000D01*
X95000D02*
X103000Y64000D01*
X95000Y34000D02*
X129000Y34000D01*
X95000Y34000D02*
Y64000D01*
M02*
