G04*
G04 #@! TF.GenerationSoftware,Altium Limited,Altium Designer,25.4.2 (15)*
G04*
G04 Layer_Color=128*
%FSLAX44Y44*%
%MOMM*%
G71*
G04*
G04 #@! TF.SameCoordinates,58BEE836-9102-4636-8553-DC709D7D42DE*
G04*
G04*
G04 #@! TF.FilePolarity,Positive*
G04*
G01*
G75*
%ADD91C,0.1270*%
D91*
X75500Y368000D02*
X100500D01*
X88000Y355500D02*
Y380500D01*
X175500Y368000D02*
X200500D01*
X188000Y355500D02*
Y380500D01*
X503555Y62600D02*
X512445D01*
X508000Y58155D02*
Y67045D01*
X503555Y88000D02*
X512445D01*
X508000Y83555D02*
Y92445D01*
X503555Y113400D02*
X512445D01*
X508000Y108955D02*
Y117845D01*
X20500Y33000D02*
X45500D01*
X33000Y20500D02*
Y45500D01*
X360355Y25000D02*
X369245D01*
X364800Y20555D02*
Y29445D01*
X385755Y25000D02*
X394645D01*
X390200Y20555D02*
Y29445D01*
X411155Y25000D02*
X420045D01*
X415600Y20555D02*
Y29445D01*
X436555Y25000D02*
X445445D01*
X441000Y20555D02*
Y29445D01*
X461955Y25000D02*
X470845D01*
X466400Y20555D02*
Y29445D01*
X487355Y25000D02*
X496245D01*
X491800Y20555D02*
Y29445D01*
X19500Y261000D02*
X44500D01*
X32000Y248500D02*
Y273500D01*
X19500Y311000D02*
X44500D01*
X32000Y298500D02*
Y323500D01*
X19500Y361000D02*
X44500D01*
X32000Y348500D02*
Y373500D01*
X125500Y368000D02*
X150500D01*
X138000Y355500D02*
Y380500D01*
X463500Y64500D02*
X473500D01*
X468500Y59500D02*
Y69500D01*
X463500Y109500D02*
X473500D01*
X468500Y104500D02*
Y114500D01*
X398500Y64500D02*
X408500D01*
X403500Y59500D02*
Y69500D01*
X398500Y109500D02*
X408500D01*
X403500Y104500D02*
Y114500D01*
X45500Y197000D02*
X56500D01*
X51000Y191500D02*
Y202500D01*
X45500Y153000D02*
X56500D01*
X51000Y147500D02*
Y158500D01*
X297500Y109500D02*
X307500D01*
X302500Y104500D02*
Y114500D01*
X297500Y64500D02*
X307500D01*
X302500Y59500D02*
Y69500D01*
X362500Y109500D02*
X372500D01*
X367500Y104500D02*
Y114500D01*
X362500Y64500D02*
X372500D01*
X367500Y59500D02*
Y69500D01*
X106000Y293500D02*
X116000D01*
X111000Y288500D02*
Y298500D01*
X106000Y248500D02*
X116000D01*
X111000Y243500D02*
Y253500D01*
X171000Y293500D02*
X181000D01*
X176000Y288500D02*
Y298500D01*
X171000Y248500D02*
X181000D01*
X176000Y243500D02*
Y253500D01*
X20500Y86000D02*
X45500D01*
X33000Y73500D02*
Y98500D01*
X310750Y333500D02*
X313750D01*
X312250Y332000D02*
Y335000D01*
X303750Y340500D02*
X306750D01*
X305250Y339000D02*
Y342000D01*
X295000Y340500D02*
X298000D01*
X296500Y339000D02*
Y342000D01*
X285000Y340500D02*
X288000D01*
X286500Y339000D02*
Y342000D01*
X275250Y340500D02*
X278250D01*
X276750Y339000D02*
Y342000D01*
X268750Y321000D02*
X271750D01*
X270250Y319500D02*
Y322500D01*
X117000Y342250D02*
X120000D01*
X118500Y340750D02*
Y343750D01*
X253901Y308310D02*
X256901D01*
X255401Y306810D02*
Y309810D01*
X255493Y321993D02*
X258493D01*
X256993Y320493D02*
Y323493D01*
X254500Y336000D02*
X257500D01*
X256000Y334500D02*
Y337500D01*
X201500Y256250D02*
X204500D01*
X203000Y254750D02*
Y257750D01*
X248020Y224000D02*
X251020D01*
X249520Y222500D02*
Y225500D01*
X242500Y218000D02*
X245500D01*
X244000Y216500D02*
Y219500D01*
X275026Y224026D02*
X278026D01*
X276526Y222526D02*
Y225526D01*
X274250Y208000D02*
X277250D01*
X275750Y206500D02*
Y209500D01*
X93500Y70000D02*
X96500D01*
X95000Y68500D02*
Y71500D01*
X513500Y12000D02*
X516500D01*
X515000Y10500D02*
Y13500D01*
X535500Y12000D02*
X538500D01*
X537000Y10500D02*
Y13500D01*
X586500Y12000D02*
X589500D01*
X588000Y10500D02*
Y13500D01*
X587500Y117000D02*
X590500D01*
X589000Y115500D02*
Y118500D01*
X336500Y12000D02*
X339500D01*
X338000Y10500D02*
Y13500D01*
X316500Y12000D02*
X319500D01*
X318000Y10500D02*
Y13500D01*
X293500Y12000D02*
X296500D01*
X295000Y10500D02*
Y13500D01*
X9500Y66000D02*
X12500D01*
X11000Y64500D02*
Y67500D01*
X9500Y109000D02*
X12500D01*
X11000Y107500D02*
Y110500D01*
X9500Y152000D02*
X12500D01*
X11000Y150500D02*
Y153500D01*
X9500Y176000D02*
X12500D01*
X11000Y174500D02*
Y177500D01*
X9750Y200250D02*
X12750D01*
X11250Y198750D02*
Y201750D01*
X10000Y240000D02*
X13000D01*
X11500Y238500D02*
Y241500D01*
X9750Y286250D02*
X12750D01*
X11250Y284750D02*
Y287750D01*
X10500Y336500D02*
X13500D01*
X12000Y335000D02*
Y338000D01*
X10750Y388250D02*
X13750D01*
X12250Y386750D02*
Y389750D01*
X57250Y388500D02*
X60250D01*
X58750Y387000D02*
Y390000D01*
X207368Y347382D02*
X210368D01*
X208868Y345882D02*
Y348882D01*
X395500Y50000D02*
X398500D01*
X397000Y48500D02*
Y51500D01*
X455500Y89250D02*
X458500D01*
X457000Y87750D02*
Y90750D01*
X455500Y169250D02*
X458500D01*
X457000Y167750D02*
Y170750D01*
X455500Y129250D02*
X458500D01*
X457000Y127750D02*
Y130750D01*
X465500Y143000D02*
X468500D01*
X467000Y141500D02*
Y144500D01*
X485015Y143000D02*
X488015D01*
X486515Y141500D02*
Y144500D01*
X505500Y149250D02*
X508500D01*
X507000Y147750D02*
Y150750D01*
X465500Y309250D02*
X468500D01*
X467000Y307750D02*
Y310750D01*
X445500Y309250D02*
X448500D01*
X447000Y307750D02*
Y310750D01*
X585500Y269250D02*
X588500D01*
X587000Y267750D02*
Y270750D01*
X585500Y229250D02*
X588500D01*
X587000Y227750D02*
Y230750D01*
X585500Y189250D02*
X588500D01*
X587000Y187750D02*
Y190750D01*
X575500Y249250D02*
X578500D01*
X577000Y247750D02*
Y250750D01*
X575500Y209250D02*
X578500D01*
X577000Y207750D02*
Y210750D01*
X565500Y189250D02*
X568500D01*
X567000Y187750D02*
Y190750D01*
X575500Y49250D02*
X578500D01*
X577000Y47750D02*
Y50750D01*
X545500Y189250D02*
X548500D01*
X547000Y187750D02*
Y190750D01*
X555500Y169250D02*
X558500D01*
X557000Y167750D02*
Y170750D01*
X545500Y149250D02*
X548500D01*
X547000Y147750D02*
Y150750D01*
X545500Y109250D02*
X548500D01*
X547000Y107750D02*
Y110750D01*
X555500Y89250D02*
X558500D01*
X557000Y87750D02*
Y90750D01*
X555500Y49250D02*
X558500D01*
X557000Y47750D02*
Y50750D01*
X545500Y29250D02*
X548500D01*
X547000Y27750D02*
Y30750D01*
X525500Y189250D02*
X528500D01*
X527000Y187750D02*
Y190750D01*
X535500Y169250D02*
X538500D01*
X537000Y167750D02*
Y170750D01*
X535500Y49250D02*
X538500D01*
X537000Y47750D02*
Y50750D01*
X525500Y29250D02*
X528500D01*
X527000Y27750D02*
Y30750D01*
X505500Y189250D02*
X508500D01*
X507000Y187750D02*
Y190750D01*
X495500Y209250D02*
X498500D01*
X497000Y207750D02*
Y210750D01*
X485500Y109250D02*
X488500D01*
X487000Y107750D02*
Y110750D01*
X485500Y69250D02*
X488500D01*
X487000Y67750D02*
Y70750D01*
X465500Y389250D02*
X468500D01*
X467000Y387750D02*
Y390750D01*
X465500Y269250D02*
X468500D01*
X467000Y267750D02*
Y270750D01*
X465500Y189250D02*
X468500D01*
X467000Y187750D02*
Y190750D01*
X475500Y169250D02*
X478500D01*
X477000Y167750D02*
Y170750D01*
X475500Y129250D02*
X478500D01*
X477000Y127750D02*
Y130750D01*
X475500Y89250D02*
X478500D01*
X477000Y87750D02*
Y90750D01*
X475500Y49250D02*
X478500D01*
X477000Y47750D02*
Y50750D01*
X445500Y389250D02*
X448500D01*
X447000Y387750D02*
Y390750D01*
X455500Y369250D02*
X458500D01*
X457000Y367750D02*
Y370750D01*
X455500Y289250D02*
X458500D01*
X457000Y287750D02*
Y290750D01*
X445500Y269250D02*
X448500D01*
X447000Y267750D02*
Y270750D01*
X425500Y389250D02*
X428500D01*
X427000Y387750D02*
Y390750D01*
X435500Y369250D02*
X438500D01*
X437000Y367750D02*
Y370750D01*
X435500Y289250D02*
X438500D01*
X437000Y287750D02*
Y290750D01*
X405500Y389250D02*
X408500D01*
X407000Y387750D02*
Y390750D01*
X415500Y369250D02*
X418500D01*
X417000Y367750D02*
Y370750D01*
X415500Y89250D02*
X418500D01*
X417000Y87750D02*
Y90750D01*
X385500Y389250D02*
X388500D01*
X387000Y387750D02*
Y390750D01*
X395500Y369250D02*
X398500D01*
X397000Y367750D02*
Y370750D01*
X385500Y349250D02*
X388500D01*
X387000Y347750D02*
Y350750D01*
X365500Y389250D02*
X368500D01*
X367000Y387750D02*
Y390750D01*
X375500Y369250D02*
X378500D01*
X377000Y367750D02*
Y370750D01*
X365500Y349250D02*
X368500D01*
X367000Y347750D02*
Y350750D01*
X375500Y329250D02*
X378500D01*
X377000Y327750D02*
Y330750D01*
X365500Y309250D02*
X368500D01*
X367000Y307750D02*
Y310750D01*
X375500Y89250D02*
X378500D01*
X377000Y87750D02*
Y90750D01*
X375500Y49250D02*
X378500D01*
X377000Y47750D02*
Y50750D01*
X345500Y389250D02*
X348500D01*
X347000Y387750D02*
Y390750D01*
X355500Y369250D02*
X358500D01*
X357000Y367750D02*
Y370750D01*
X345500Y349250D02*
X348500D01*
X347000Y347750D02*
Y350750D01*
X355500Y329250D02*
X358500D01*
X357000Y327750D02*
Y330750D01*
X345500Y109250D02*
X348500D01*
X347000Y107750D02*
Y110750D01*
X355500Y89250D02*
X358500D01*
X357000Y87750D02*
Y90750D01*
X345500Y69250D02*
X348500D01*
X347000Y67750D02*
Y70750D01*
X355500Y49250D02*
X358500D01*
X357000Y47750D02*
Y50750D01*
X345500Y29250D02*
X348500D01*
X347000Y27750D02*
Y30750D01*
X325500Y389250D02*
X328500D01*
X327000Y387750D02*
Y390750D01*
X335500Y369250D02*
X338500D01*
X337000Y367750D02*
Y370750D01*
X325500Y349250D02*
X328500D01*
X327000Y347750D02*
Y350750D01*
X325500Y109250D02*
X328500D01*
X327000Y107750D02*
Y110750D01*
X335500Y89250D02*
X338500D01*
X337000Y87750D02*
Y90750D01*
X325500Y69250D02*
X328500D01*
X327000Y67750D02*
Y70750D01*
X335500Y49250D02*
X338500D01*
X337000Y47750D02*
Y50750D01*
X325500Y29250D02*
X328500D01*
X327000Y27750D02*
Y30750D01*
X305500Y389250D02*
X308500D01*
X307000Y387750D02*
Y390750D01*
X315500Y369250D02*
X318500D01*
X317000Y367750D02*
Y370750D01*
X305500Y349250D02*
X308500D01*
X307000Y347750D02*
Y350750D01*
X315500Y89250D02*
X318500D01*
X317000Y87750D02*
Y90750D01*
X315500Y49250D02*
X318500D01*
X317000Y47750D02*
Y50750D01*
X305500Y29250D02*
X308500D01*
X307000Y27750D02*
Y30750D01*
X285500Y389250D02*
X288500D01*
X287000Y387750D02*
Y390750D01*
X295500Y369250D02*
X298500D01*
X297000Y367750D02*
Y370750D01*
X285500Y349250D02*
X288500D01*
X287000Y347750D02*
Y350750D01*
X285500Y309250D02*
X288500D01*
X287000Y307750D02*
Y310750D01*
X295500Y49250D02*
X298500D01*
X297000Y47750D02*
Y50750D01*
X285500Y29250D02*
X288500D01*
X287000Y27750D02*
Y30750D01*
X265500Y389250D02*
X268500D01*
X267000Y387750D02*
Y390750D01*
X275500Y129250D02*
X278500D01*
X277000Y127750D02*
Y130750D01*
X265500Y109250D02*
X268500D01*
X267000Y107750D02*
Y110750D01*
X245500Y389250D02*
X248500D01*
X247000Y387750D02*
Y390750D01*
X245500Y349250D02*
X248500D01*
X247000Y347750D02*
Y350750D01*
X255500Y129250D02*
X258500D01*
X257000Y127750D02*
Y130750D01*
X205500Y389250D02*
X208500D01*
X207000Y387750D02*
Y390750D01*
X165500Y229250D02*
X168500D01*
X167000Y227750D02*
Y230750D01*
X175500Y209250D02*
X178500D01*
X177000Y207750D02*
Y210750D01*
X165500Y189250D02*
X168500D01*
X167000Y187750D02*
Y190750D01*
X175500Y169250D02*
X178500D01*
X177000Y167750D02*
Y170750D01*
X155500Y289250D02*
X158500D01*
X157000Y287750D02*
Y290750D01*
X155500Y169250D02*
X158500D01*
X157000Y167750D02*
Y170750D01*
X135500Y249250D02*
X138500D01*
X137000Y247750D02*
Y250750D01*
X135500Y169250D02*
X138500D01*
X137000Y167750D02*
Y170750D01*
X125500Y109250D02*
X128500D01*
X127000Y107750D02*
Y110750D01*
X135500Y89250D02*
X138500D01*
X137000Y87750D02*
Y90750D01*
X125500Y69250D02*
X128500D01*
X127000Y67750D02*
Y70750D01*
X105500Y229250D02*
X108500D01*
X107000Y227750D02*
Y230750D01*
X115500Y129250D02*
X118500D01*
X117000Y127750D02*
Y130750D01*
X105500Y109250D02*
X108500D01*
X107000Y107750D02*
Y110750D01*
X115500Y89250D02*
X118500D01*
X117000Y87750D02*
Y90750D01*
X95500Y209250D02*
X98500D01*
X97000Y207750D02*
Y210750D01*
X95500Y129250D02*
X98500D01*
X97000Y127750D02*
Y130750D01*
X85500Y109250D02*
X88500D01*
X87000Y107750D02*
Y110750D01*
X95500Y89250D02*
X98500D01*
X97000Y87750D02*
Y90750D01*
X65500Y269250D02*
X68500D01*
X67000Y267750D02*
Y270750D01*
X65500Y109250D02*
X68500D01*
X67000Y107750D02*
Y110750D01*
X75500Y89250D02*
X78500D01*
X77000Y87750D02*
Y90750D01*
X65500Y69250D02*
X68500D01*
X67000Y67750D02*
Y70750D01*
X55500Y249250D02*
X58500D01*
X57000Y247750D02*
Y250750D01*
X35500Y209250D02*
X38500D01*
X37000Y207750D02*
Y210750D01*
X25500Y189250D02*
X28500D01*
X27000Y187750D02*
Y190750D01*
X35500Y129250D02*
X38500D01*
X37000Y127750D02*
Y130750D01*
X93500Y159000D02*
X96500D01*
X95000Y157500D02*
Y160500D01*
X197000Y336000D02*
X200000D01*
X198500Y334500D02*
Y337500D01*
X89500Y312000D02*
X92500D01*
X91000Y310500D02*
Y313500D01*
X149500Y329000D02*
X152500D01*
X151000Y327500D02*
Y330500D01*
X403500Y165000D02*
X406500D01*
X405000Y163500D02*
Y166500D01*
X403500Y175000D02*
X406500D01*
X405000Y173500D02*
Y176500D01*
X386757Y193257D02*
X389757D01*
X388257Y191757D02*
Y194757D01*
X377500Y194000D02*
X380500D01*
X379000Y192500D02*
Y195500D01*
X403500Y185000D02*
X406500D01*
X405000Y183500D02*
Y186500D01*
X396929Y193429D02*
X399929D01*
X398429Y191929D02*
Y194929D01*
X323500Y232500D02*
X326500D01*
X325000Y231000D02*
Y234000D01*
X338500Y232500D02*
X341500D01*
X340000Y231000D02*
Y234000D01*
X353500Y232500D02*
X356500D01*
X355000Y231000D02*
Y234000D01*
X368500Y232500D02*
X371500D01*
X370000Y231000D02*
Y234000D01*
X399346Y240539D02*
X402346D01*
X400846Y239039D02*
Y242039D01*
X483500Y280000D02*
X486500D01*
X485000Y278500D02*
Y281500D01*
X563500Y280000D02*
X566500D01*
X565000Y278500D02*
Y281500D01*
X543500Y280000D02*
X546500D01*
X545000Y278500D02*
Y281500D01*
X523500Y280000D02*
X526500D01*
X525000Y278500D02*
Y281500D01*
X503500Y280000D02*
X506500D01*
X505000Y278500D02*
Y281500D01*
X111000Y388750D02*
X114000D01*
X112500Y387250D02*
Y390250D01*
X161000Y388750D02*
X164000D01*
X162500Y387250D02*
Y390250D01*
X277500Y360500D02*
X280500D01*
X279000Y359000D02*
Y362000D01*
X200500Y245000D02*
X203500D01*
X202000Y243500D02*
Y246500D01*
X228500Y250000D02*
X231500D01*
X230000Y248500D02*
Y251500D01*
X50750Y167500D02*
X53750D01*
X52250Y166000D02*
Y169000D01*
X187500Y227750D02*
X190500D01*
X189000Y226250D02*
Y229250D01*
X240750Y284500D02*
X243750D01*
X242250Y283000D02*
Y286000D01*
X240750Y277250D02*
X243750D01*
X242250Y275750D02*
Y278750D01*
X269500Y284750D02*
X272500D01*
X271000Y283250D02*
Y286250D01*
X269750Y277250D02*
X272750D01*
X271250Y275750D02*
Y278750D01*
X303976Y293911D02*
X306976D01*
X305476Y292411D02*
Y295411D01*
X269132Y330368D02*
X272132D01*
X270632Y328868D02*
Y331868D01*
X262500Y341000D02*
X265500D01*
X264000Y339500D02*
Y342500D01*
X261500Y314250D02*
X264500D01*
X263000Y312750D02*
Y315750D01*
X284000Y224000D02*
X287000D01*
X285500Y222500D02*
Y225500D01*
X332062Y133510D02*
X335062D01*
X333563Y132010D02*
Y135010D01*
X322096Y134251D02*
X325096D01*
X323596Y132751D02*
Y135751D01*
X342025Y134301D02*
X345025D01*
X343525Y132801D02*
Y135801D01*
X343973Y192384D02*
X346973D01*
X345473Y190884D02*
Y193884D01*
X67000Y243500D02*
X70000D01*
X68500Y242000D02*
Y245000D01*
X72000Y336500D02*
X75000D01*
X73500Y335000D02*
Y338000D01*
X195500Y270000D02*
X198500D01*
X197000Y268500D02*
Y271500D01*
X225750Y321000D02*
X228750D01*
X227250Y319500D02*
Y322500D01*
X125500Y223000D02*
X128500D01*
X127000Y221500D02*
Y224500D01*
X287992Y270027D02*
X290992D01*
X289492Y268527D02*
Y271527D01*
X82000Y254500D02*
X85000D01*
X83500Y253000D02*
Y256000D01*
X214849Y223716D02*
X217849D01*
X216349Y222216D02*
Y225216D01*
X163500Y340000D02*
X166500D01*
X165000Y338500D02*
Y341500D01*
X174500Y322000D02*
X177500D01*
X176000Y320500D02*
Y323500D01*
X235500Y224000D02*
X238500D01*
X237000Y222500D02*
Y225500D01*
X396563Y334318D02*
X399563D01*
X398063Y332818D02*
Y335818D01*
X527500Y71000D02*
X530500D01*
X529000Y69500D02*
Y72500D01*
X528500Y141000D02*
X531500D01*
X530000Y139500D02*
Y142500D01*
X197000Y321000D02*
X200000D01*
X198500Y319500D02*
Y322500D01*
X277500Y376000D02*
X280500D01*
X279000Y374500D02*
Y377500D01*
X238727Y307500D02*
X241727D01*
X240227Y306000D02*
Y309000D01*
X248500Y203000D02*
X251500D01*
X250000Y201500D02*
Y204500D01*
X203500Y144000D02*
X206500D01*
X205000Y142500D02*
Y145500D01*
X203500Y161000D02*
X206500D01*
X205000Y159500D02*
Y162500D01*
X401500Y135000D02*
X404500D01*
X403000Y133500D02*
Y136500D01*
X403500Y145000D02*
X406500D01*
X405000Y143500D02*
Y146500D01*
X403500Y155000D02*
X406500D01*
X405000Y153500D02*
Y156500D01*
X391500Y135000D02*
X394500D01*
X393000Y133500D02*
Y136500D01*
X381500Y135000D02*
X384500D01*
X383000Y133500D02*
Y136500D01*
X356500Y192000D02*
X359500D01*
X358000Y190500D02*
Y193500D01*
X371500Y135000D02*
X374500D01*
X373000Y133500D02*
Y136500D01*
X367500Y193000D02*
X370500D01*
X369000Y191500D02*
Y194500D01*
X316910Y187572D02*
X319909D01*
X318410Y186072D02*
Y189072D01*
X324216Y194400D02*
X327216D01*
X325716Y192900D02*
Y195900D01*
X334215Y194569D02*
X337215D01*
X335715Y193069D02*
Y196069D01*
X286004Y146929D02*
X289004D01*
X287504Y145429D02*
Y148429D01*
X266299Y146929D02*
X269300D01*
X267799Y145429D02*
Y148429D01*
X268038Y181151D02*
X271038D01*
X269538Y179651D02*
Y182651D01*
X274500Y196000D02*
X277500D01*
X276000Y194500D02*
Y197500D01*
X287869Y181955D02*
X290869D01*
X289369Y180455D02*
Y183455D01*
X305170Y142931D02*
X308170D01*
X306670Y141431D02*
Y144431D01*
X295170Y142931D02*
X298170D01*
X296670Y141431D02*
Y144431D01*
X297643Y184069D02*
X300643D01*
X299143Y182569D02*
Y185569D01*
X307640Y183820D02*
X310640D01*
X309140Y182320D02*
Y185320D01*
X267000Y250000D02*
X270000D01*
X268500Y248500D02*
Y251500D01*
X246750Y250000D02*
X249750D01*
X248250Y248500D02*
Y251500D01*
X296500Y309000D02*
X299500D01*
X298000Y307500D02*
Y310500D01*
X340500Y306000D02*
X343500D01*
X342000Y304500D02*
Y307500D01*
X290500Y292000D02*
X293500D01*
X292000Y290500D02*
Y293500D01*
X585500Y298000D02*
X588500D01*
X587000Y296500D02*
Y299500D01*
X575500Y298000D02*
X578500D01*
X577000Y296500D02*
Y299500D01*
X565500Y298000D02*
X568500D01*
X567000Y296500D02*
Y299500D01*
X555500Y298000D02*
X558500D01*
X557000Y296500D02*
Y299500D01*
X545500Y298000D02*
X548500D01*
X547000Y296500D02*
Y299500D01*
X535500Y298000D02*
X538500D01*
X537000Y296500D02*
Y299500D01*
X525500Y298000D02*
X528500D01*
X527000Y296500D02*
Y299500D01*
X515500Y298000D02*
X518500D01*
X517000Y296500D02*
Y299500D01*
X505500Y298000D02*
X508500D01*
X507000Y296500D02*
Y299500D01*
X495500Y298000D02*
X498500D01*
X497000Y296500D02*
Y299500D01*
X485500Y298000D02*
X488500D01*
X487000Y296500D02*
Y299500D01*
X474500Y310000D02*
X477500D01*
X476000Y308500D02*
Y311500D01*
X474500Y320000D02*
X477500D01*
X476000Y318500D02*
Y321500D01*
X474729Y365003D02*
X477729D01*
X476229Y363503D02*
Y366503D01*
X474500Y375000D02*
X477500D01*
X476000Y373500D02*
Y376500D01*
X474500Y385000D02*
X477500D01*
X476000Y383500D02*
Y386500D01*
X522500Y266000D02*
X525500D01*
X524000Y264500D02*
Y267500D01*
X532500Y266000D02*
X535500D01*
X534000Y264500D02*
Y267500D01*
X542500Y266000D02*
X545500D01*
X544000Y264500D02*
Y267500D01*
X553500Y266000D02*
X556500D01*
X555000Y264500D02*
Y267500D01*
X560500Y254000D02*
X563500D01*
X562000Y252500D02*
Y255500D01*
X560500Y240000D02*
X563500D01*
X562000Y238500D02*
Y241500D01*
X560500Y225000D02*
X563500D01*
X562000Y223500D02*
Y226500D01*
X553500Y215000D02*
X556500D01*
X555000Y213500D02*
Y216500D01*
X542500Y215000D02*
X545500D01*
X544000Y213500D02*
Y216500D01*
X532500Y215000D02*
X535500D01*
X534000Y213500D02*
Y216500D01*
X522500Y215000D02*
X525500D01*
X524000Y213500D02*
Y216500D01*
X494500Y221000D02*
X497500D01*
X496000Y219500D02*
Y222500D01*
X484500Y221000D02*
X487500D01*
X486000Y219500D02*
Y222500D01*
X436500Y222000D02*
X439500D01*
X438000Y220500D02*
Y223500D01*
X338500Y259000D02*
X341500D01*
X340000Y257500D02*
Y260500D01*
X474627Y355571D02*
X477627D01*
X476128Y354071D02*
Y357071D01*
X467628Y355571D02*
X470628D01*
X469128Y354071D02*
Y357071D01*
X457628Y355571D02*
X460628D01*
X459128Y354071D02*
Y357071D01*
X447630Y355342D02*
X450630D01*
X449130Y353842D02*
Y356842D01*
X437633Y355571D02*
X440633D01*
X439133Y354071D02*
Y357071D01*
X427638Y355259D02*
X430638D01*
X429138Y353759D02*
Y356759D01*
X417702Y354131D02*
X420702D01*
X419202Y352631D02*
Y355630D01*
X408622Y349939D02*
X411622D01*
X410122Y348439D02*
Y351439D01*
X401308Y343120D02*
X404308D01*
X402808Y341620D02*
Y344620D01*
X394837Y324468D02*
X397837D01*
X396337Y322968D02*
Y325968D01*
X394712Y314469D02*
X397712D01*
X396212Y312969D02*
Y315969D01*
X389417Y305985D02*
X392417D01*
X390917Y304485D02*
Y307485D01*
X382346Y298914D02*
X385346D01*
X383846Y297414D02*
Y300414D01*
X373734Y293831D02*
X376734D01*
X375234Y292331D02*
Y295331D01*
X363799Y292690D02*
X366799D01*
X365299Y291190D02*
Y294190D01*
X353874Y293911D02*
X356874D01*
X355374Y292411D02*
Y295411D01*
X343874Y293911D02*
X346874D01*
X345374Y292411D02*
Y295411D01*
X333874Y293911D02*
X336874D01*
X335374Y292411D02*
Y295411D01*
X323874Y293911D02*
X326874D01*
X325374Y292411D02*
Y295411D01*
X313925Y292905D02*
X316925D01*
X315425Y291405D02*
Y294405D01*
X308377Y262589D02*
X311377D01*
X309877Y261089D02*
Y264089D01*
X318369Y262971D02*
X321369D01*
X319869Y261471D02*
Y264471D01*
X328362Y262589D02*
X331362D01*
X329862Y261089D02*
Y264089D01*
X348362Y262589D02*
X351362D01*
X349862Y261089D02*
Y264089D01*
X358347Y263141D02*
X361347D01*
X359847Y261641D02*
Y264641D01*
X368335Y262663D02*
X371335D01*
X369835Y261162D02*
Y264163D01*
X378308Y261923D02*
X381308D01*
X379808Y260423D02*
Y263423D01*
X385204Y254681D02*
X388204D01*
X386704Y253181D02*
Y256181D01*
X392275Y247610D02*
X395275D01*
X393775Y246110D02*
Y249110D01*
X406740Y233806D02*
X409740D01*
X408240Y232306D02*
Y235306D01*
X415440Y228877D02*
X418440D01*
X416940Y227377D02*
Y230377D01*
X425069Y226176D02*
X428069D01*
X426569Y224676D02*
Y227676D01*
X445062Y225669D02*
X448062D01*
X446562Y224169D02*
Y227169D01*
X455062Y225669D02*
X458062D01*
X456562Y224169D02*
Y227169D01*
X465053Y226085D02*
X468053D01*
X466553Y224585D02*
Y227585D01*
X475045Y225669D02*
X478045D01*
X476545Y224169D02*
Y227169D01*
X505045Y225669D02*
X508045D01*
X506544Y224169D02*
Y227169D01*
X515045Y225669D02*
X518045D01*
X516544Y224169D02*
Y227169D01*
X516753Y256991D02*
X519753D01*
X518253Y255491D02*
Y258491D01*
X506753Y256991D02*
X509753D01*
X508253Y255491D02*
Y258491D01*
X496753Y256991D02*
X499753D01*
X498253Y255491D02*
Y258491D01*
X486753Y256991D02*
X489753D01*
X488253Y255491D02*
Y258491D01*
X476753Y256991D02*
X479753D01*
X478253Y255491D02*
Y258491D01*
X466790Y256131D02*
X469790D01*
X468290Y254631D02*
Y257631D01*
X456827Y256991D02*
X459827D01*
X458327Y255491D02*
Y258491D01*
X446827Y256991D02*
X449827D01*
X448327Y255491D02*
Y258491D01*
X436827Y256991D02*
X439827D01*
X438327Y255491D02*
Y258491D01*
X426888Y258094D02*
X429888D01*
X428388Y256594D02*
Y259594D01*
X419428Y264753D02*
X422428D01*
X420928Y263253D02*
Y266253D01*
X412357Y271824D02*
X415357D01*
X413857Y270324D02*
Y273324D01*
X408956Y281228D02*
X411956D01*
X410456Y279728D02*
Y282728D01*
X415933Y288392D02*
X418933D01*
X417433Y286892D02*
Y289892D01*
X421560Y296658D02*
X424560D01*
X423060Y295159D02*
Y298158D01*
X425021Y306041D02*
X428021D01*
X426521Y304541D02*
Y307541D01*
X426161Y315975D02*
X429161D01*
X427661Y314475D02*
Y317475D01*
X441778Y324249D02*
X444778D01*
X443278Y322749D02*
Y325749D01*
X451763Y324791D02*
X454763D01*
X453263Y323291D02*
Y326291D01*
X461749Y324249D02*
X464748D01*
X463248Y322749D02*
Y325749D01*
X361500Y135000D02*
X364500D01*
X363000Y133500D02*
Y136500D01*
X351500Y135000D02*
X354500D01*
X353000Y133500D02*
Y136500D01*
X214849Y213716D02*
X217849D01*
X216349Y212216D02*
Y215216D01*
X214849Y203716D02*
X217849D01*
X216349Y202216D02*
Y205216D01*
X215378Y193730D02*
X218378D01*
X216878Y192230D02*
Y195230D01*
X221631Y185927D02*
X224631D01*
X223131Y184427D02*
Y187427D01*
X256987Y150571D02*
X259987D01*
X258487Y149071D02*
Y152071D01*
X315043Y141340D02*
X318043D01*
X316543Y139840D02*
Y142840D01*
X258108Y182334D02*
X261108D01*
X259608Y180834D02*
Y183834D01*
X238151Y204612D02*
X241151D01*
X239651Y203112D02*
Y206112D01*
X168000Y145500D02*
X171000D01*
X169500Y144000D02*
Y147000D01*
X244500Y121000D02*
X247500D01*
X246000Y119500D02*
Y122500D01*
X162000Y136000D02*
X165000D01*
X163500Y134500D02*
Y137500D01*
X329500Y326000D02*
X332500D01*
X331000Y324500D02*
Y327500D01*
X317000Y326000D02*
X320000D01*
X318500Y324500D02*
Y327500D01*
X179500Y11000D02*
X182500D01*
X181000Y9500D02*
Y12500D01*
X179500Y21000D02*
X182500D01*
X181000Y19500D02*
Y22500D01*
X179500Y31000D02*
X182500D01*
X181000Y29500D02*
Y32500D01*
X179500Y41000D02*
X182500D01*
X181000Y39500D02*
Y42500D01*
X154500Y91000D02*
X157500D01*
X156000Y89500D02*
Y92500D01*
X149500Y103500D02*
X152500D01*
X151000Y102000D02*
Y105000D01*
X149500Y123500D02*
X152500D01*
X151000Y122000D02*
Y125000D01*
X244500Y98500D02*
X247500D01*
X246000Y97000D02*
Y100000D01*
X244500Y108500D02*
X247500D01*
X246000Y107000D02*
Y110000D01*
X250000Y157000D02*
X253000D01*
X251500Y155500D02*
Y158500D01*
X244500Y164000D02*
X247500D01*
X246000Y162500D02*
Y165500D01*
M02*
