M48
;Layer_Color=9474304
;FILE_FORMAT=4:4
METRIC,LZ
;TYPE=PLATED
T01F00S00C0.3000
T02F00S00C0.8890
T03F00S00C1.0000
T04F00S00C1.1000
T05F00S00C2.5000
%
T01
X00011Y00066
Y00109
X00037Y0012925
X00067Y0010925
X00087
X00107
X00127
X00137Y0008925
X00117
X00097
X00077
X00067Y0006925
X00095Y0007
X00127Y0006925
X00117Y0012925
X00097
X00151Y001235
Y001035
X00156Y00091
X001635Y00136
X00246Y00121
X00246Y001085
Y000985
X00267Y0010925
X00257Y0012925
X00277
X00323596Y00134251
X00333563Y0013351
X00343525Y00134301
X00353Y00135
X00363
X00373
X00383
X00393
X00403
X00457Y0012925
X00477
X00487Y0010925
X00477Y0008925
X00457
X00417
X00377
X00357
X00337
X00317
X00327Y0010925
X00347
Y0006925
X00327
X00337Y0004925
X00357
X00377
X00397Y0005
X00347Y0002925
X00327
X00307
X00287
X00295Y00012
X00318
X00338
X00317Y0004925
X00297
X00316543Y0014134
X0053Y00141
X00529Y00071
X00537Y0004925
X00527Y0002925
X00537Y00012
X00515
X00477Y0004925
X00487Y0006925
X00181Y00041
Y00031
Y00021
Y00011
X00547Y0002925
X00557Y0004925
X00577
X00588Y00012
X00589Y00117
X00547Y0010925
X00557Y0008925
X00547Y0014925
X00557Y0016925
X00567Y0018925
X00587
X00577Y0020925
X00555Y00215
X00544
X00562Y00225
Y0024
Y00254
X00555Y00266
X00544
X00545Y0028
X00547Y00298
X00557
X00567
X00577
X00587
X00587Y0026925
X00577Y0024925
X00587Y0022925
X00565Y0028
X00547Y0018925
X00527
X00507
X00497Y0020925
X00496Y00221
X00486
X00476545Y00225669
X00466553Y00226085
X00456562Y00225669
X00446562
X00438Y00222
X00426569Y00226176
X0041694Y00228877
X0040824Y00233806
X00400846Y00240539
X00393775Y0024761
X00386704Y00254681
X00379808Y00261923
X00369835Y00262663
X00359847Y00263141
X00349862Y00262589
X0034Y00259
X00329862Y00262589
X00319869Y00262971
X00309877Y00262589
X00289492Y00270027
X00292Y00292
X00305476Y00293911
X00315425Y00292905
X00325374Y00293911
X00335374
X00345374
X00355374
X00365299Y0029269
X00375234Y00293831
X00383846Y00298914
X00390917Y00305985
X00396212Y00314469
X00396337Y00324468
X00398063Y00334318
X00402808Y0034312
X00410122Y00349939
X00419202Y00354131
X00429138Y00355259
X00439133Y00355571
X0044913Y00355342
X00459128Y00355571
X00469128
X00476128Y00355571
X00476229Y00365003
X00476Y00375
Y00385
X00467Y0038925
X00447
X00427
X00407
X00387
X00367
X00347
X00327
X00307
X00287
X00267
X00247
Y0034925
X00256Y00336
X00264Y00341
X0027675Y003405
X002865
X00287Y0034925
X002965Y003405
X0030525
X00307Y0034925
X00327
X00347
X00367
X00387
X00397Y0036925
X00417
X00437
X00457
X00453263Y00324791
X00443278Y00324249
X00447Y0030925
X00467
X00476Y0031
Y0032
X00463248Y00324249
X00457Y0028925
X00437
X00417433Y00288392
X0042306Y00296658
X00426521Y00306041
X00427661Y00315975
X00410456Y00281228
X00413857Y00271824
X00420928Y00264753
X00428388Y00258094
X00438327Y00256991
X00448327
X00458327
X0046829Y00256131
X00478253Y00256991
X00488253
X00498253
X00508253
X00518253
X00524Y00266
X00534
X00525Y0028
X00505
X00507Y00298
X00497
X00487
X00485Y0028
X00467Y0026925
X00447
X00517Y00298
X00527
X00537
X00534Y00215
X00524
X00516544Y00225669
X00506544
X00467Y0018925
X00457Y0016925
X00477
X00486515Y00143
X00467
X00507Y0014925
X00537Y0016925
X00405Y00165
Y00175
Y00185
X00398429Y00193429
X00388257Y00193257
X00379Y00194
X00369Y00193
X00358Y00192
X00345473Y00192384
X00335715Y00194569
X00325716Y001944
X0031841Y00187572
X0030914Y0018382
X00299143Y00184069
X00289369Y00181955
X00269538Y00181151
X00259608Y00182334
X00276Y00196
X0027575Y00208
X00276526Y00224026
X002855Y00224
X0024952
X00244Y00218
X00237Y00224
X00216349Y00223716
Y00213716
Y00203716
X00216878Y0019373
X00223131Y00185927
X00239651Y00204612
X0025Y00203
X00246Y00164
X002515Y00157
X00258487Y00150571
X00267799Y00146929
X00287504
X0029667Y00142931
X0030667
X00405Y00145
Y00155
X0037Y002325
X00355
X0034
X00325
X002685Y0025
X0024825
X0023
X00202Y00245
X00203Y0025625
X00197Y0027
X00189Y0022775
X00167Y0022925
X00177Y0020925
X00167Y0018925
X00177Y0016925
X00157
X001695Y001455
X00205Y00144
Y00161
X0024225Y0027725
Y002845
X00240227Y003075
X00255401Y0030831
X00263Y0031425
X00256993Y00321993
X0027025Y00321
X00270632Y00330368
X00287Y0030925
X00298Y00309
X003185Y00326
X00331
X0031225Y003335
X00317Y0036925
X00337
X00357
X00377
Y0032925
X00357
X00367Y0030925
X00342Y00306
X00271Y0028475
X0027125Y0027725
X0022725Y00321
X001985Y00321
Y00336
X00208868Y00347382
X00207Y0038925
X001625Y0038875
X00165Y0034
X00151Y00329
X00176Y00322
X00157Y0028925
X00279Y003605
Y00376
X00297Y0036925
X001125Y0038875
X001185Y0034225
X000735Y003365
X00091Y00312
X000835Y002545
X000685Y002435
X00057Y0024925
X00067Y0026925
X0001125Y0028625
X000115Y0024
X0001125Y0020025
X00011Y00176
Y00152
X00027Y0018925
X00037Y0020925
X0005225Y001675
X00095Y00159
X00137Y0016925
X00127Y00223
X00107Y0022925
X00097Y0020925
X00137Y0024925
X00012Y003365
X0001225Y0038825
X0005875Y003885
T02
X003648Y00025
X003902
X004156
X00441
X004664
X004918
X00508Y000626
Y00088
Y001134
T03
X003025Y000645
Y001095
X003675
X004035
Y000645
X003675
X004685
Y001095
X00176Y002485
Y002935
X00111
Y002485
T04
X00051Y00153
Y00197
T05
X00033Y00033
Y00086
X00188Y00368
X00138
X00088
X00032Y00361
Y00311
Y00261
M30
